{"glyphs":{"0":{"ha":713,"x_min":50,"x_max":664,"o":"m 137 794 q 50 449 50 671 q 133 107 51 229 q 350 -15 215 -15 q 582 108 500 -15 q 664 461 664 232 q 585 797 664 676 q 365 918 507 918 q 180 856 224 918 q 137 794 137 794 m 357 824 q 495 726 450 824 q 540 456 540 629 q 494 178 540 278 q 357 79 447 79 q 223 176 272 79 q 174 447 174 274 q 224 725 174 626 q 357 824 275 824 "},"1":{"ha":713,"x_min":144,"x_max":446,"o":"m 328 0 l 446 0 l 446 903 l 342 903 l 144 797 l 168 704 l 325 789 l 328 789 l 328 0 "},"2":{"ha":713,"x_min":63,"x_max":639,"o":"m 639 0 l 639 101 l 235 101 l 235 104 l 306 171 q 543 434 469 328 q 617 656 617 540 q 547 840 617 763 q 340 918 476 918 q 86 826 194 918 l 125 740 q 317 817 217 817 q 453 767 411 817 q 494 640 494 718 q 421 446 494 544 q 158 168 347 347 l 63 75 l 63 0 l 639 0 "},"3":{"ha":713,"x_min":58,"x_max":622,"o":"m 58 46 q 293 -15 151 -15 q 535 63 447 -15 q 622 256 622 142 q 565 408 621 347 q 421 486 508 469 l 421 489 q 544 574 501 518 q 588 703 588 631 q 521 856 588 793 q 329 918 454 918 q 92 849 189 918 l 125 760 q 306 819 208 819 q 424 781 385 819 q 464 683 464 742 q 401 570 464 610 q 263 531 339 531 l 194 531 l 194 439 l 263 439 q 427 393 360 439 q 496 258 494 347 q 448 137 497 190 q 292 83 399 83 q 92 139 185 83 l 58 46 "},"4":{"ha":713,"x_min":21,"x_max":682,"o":"m 556 0 l 556 247 l 682 247 l 682 342 l 556 342 l 556 903 l 424 903 l 21 326 l 21 247 l 440 247 l 440 0 l 556 0 m 144 342 l 144 344 l 365 651 q 440 785 404 717 l 444 785 q 440 643 440 714 l 440 342 l 144 342 "},"5":{"ha":713,"x_min":58,"x_max":619,"o":"m 601 903 l 169 903 l 111 469 q 238 478 178 478 q 431 424 367 478 q 496 279 496 371 q 435 138 497 192 q 283 83 372 83 q 89 133 174 83 l 58 40 q 283 -15 147 -15 q 524 72 429 -15 q 619 293 619 160 q 583 433 619 374 q 490 524 547 492 q 296 572 413 572 q 222 568 254 572 l 257 800 l 601 800 l 601 903 "},"6":{"ha":713,"x_min":47,"x_max":667,"o":"m 578 917 q 489 910 535 917 q 200 776 314 889 q 47 369 47 626 q 134 90 47 194 q 365 -15 221 -15 q 584 79 501 -15 q 667 304 667 174 q 591 515 667 435 q 394 596 515 596 q 175 490 253 596 l 172 490 q 269 699 189 611 q 486 810 349 788 q 578 817 542 818 l 578 917 m 368 79 q 222 151 274 79 q 168 339 169 224 q 181 392 168 367 q 253 472 206 442 q 357 503 301 503 q 492 447 442 503 q 543 296 543 392 q 494 139 543 199 q 368 79 446 79 "},"7":{"ha":713,"x_min":79,"x_max":649,"o":"m 79 903 l 79 801 l 521 801 l 521 799 l 129 0 l 256 0 l 649 822 l 649 903 l 79 903 "},"8":{"ha":713,"x_min":51,"x_max":661,"o":"m 231 471 q 51 228 51 394 q 134 55 51 125 q 354 -15 217 -15 q 574 58 486 -15 q 661 247 661 131 q 479 481 661 408 l 479 485 q 629 696 629 554 q 560 853 629 788 q 365 918 490 918 q 165 851 244 918 q 85 678 85 783 q 121 563 85 617 q 229 475 157 508 l 231 471 m 357 74 q 224 124 274 74 q 176 244 174 174 q 219 360 176 310 q 339 432 261 410 q 487 358 436 404 q 538 235 538 313 q 488 119 538 164 q 357 74 439 74 m 358 831 q 473 788 435 831 q 511 683 511 744 q 474 583 511 625 q 374 519 436 540 q 245 582 290 542 q 201 686 200 622 q 243 789 201 747 q 358 831 285 831 "},"9":{"ha":713,"x_min":57,"x_max":664,"o":"m 133 -14 q 246 -7 186 -17 q 508 114 403 11 q 664 536 664 264 q 583 815 664 711 q 365 918 503 918 q 144 824 231 918 q 57 597 57 729 q 131 400 57 479 q 322 321 204 321 q 536 417 458 321 l 540 417 q 421 178 517 264 q 232 90 347 106 q 133 86 161 83 l 133 -14 m 354 825 q 494 750 447 825 q 540 553 540 675 q 529 507 540 526 q 458 438 504 464 q 351 413 411 413 q 225 466 272 413 q 178 604 178 519 q 227 763 178 701 q 354 825 276 825 "}," ":{"ha":294,"x_min":0,"x_max":0,"o":""},"!":{"ha":319,"x_min":78,"x_max":242,"o":"m 207 268 l 226 936 l 93 936 l 113 268 l 207 268 m 158 -15 q 219 9 196 -15 q 242 71 242 33 q 219 133 242 108 q 161 157 197 157 q 101 133 125 157 q 78 71 78 108 q 101 10 78 35 q 158 -15 124 -15 "},"\"":{"ha":468,"x_min":71,"x_max":399,"o":"m 71 961 l 93 628 l 168 628 l 192 961 l 71 961 m 278 961 l 301 628 l 375 628 l 399 961 l 278 961 "},"#":{"ha":690,"x_min":51,"x_max":640,"o":"m 261 354 l 288 556 l 432 556 l 406 354 l 261 354 m 214 0 l 249 272 l 393 272 l 357 0 l 440 0 l 476 272 l 608 272 l 608 354 l 489 354 l 514 556 l 640 556 l 640 638 l 526 638 l 561 903 l 479 903 l 444 638 l 299 638 l 335 903 l 253 903 l 217 638 l 85 638 l 85 556 l 206 556 l 179 354 l 51 354 l 51 272 l 167 272 l 131 0 l 214 0 "},"$":{"ha":713,"x_min":92,"x_max":610,"o":"m 390 -118 l 390 26 q 551 109 493 43 q 610 263 610 175 q 558 411 610 353 q 394 515 506 469 q 260 589 299 556 q 222 674 222 622 q 259 758 222 722 q 369 794 296 794 q 544 746 460 794 l 579 838 q 399 886 500 883 l 399 1021 l 311 1021 l 311 882 q 160 806 217 867 q 103 658 103 744 q 160 517 103 572 q 332 417 217 461 q 451 346 413 385 q 489 251 489 307 q 443 153 489 192 q 324 115 397 115 q 125 175 215 115 l 92 82 q 303 21 174 24 l 303 -118 l 390 -118 "},"%":{"ha":1100,"x_min":42,"x_max":1057,"o":"m 104 843 q 42 636 42 768 q 103 436 43 507 q 253 365 163 365 q 407 440 346 365 q 468 650 468 514 q 412 847 468 776 q 261 918 356 918 q 135 881 167 918 q 104 843 104 843 m 254 844 q 344 789 315 844 q 372 643 372 733 q 343 494 372 550 q 256 439 314 439 q 167 496 200 439 q 138 642 135 553 q 169 787 138 729 q 254 844 200 844 m 321 -17 l 853 919 l 775 919 l 243 -17 l 321 -17 m 693 469 q 631 263 631 394 q 692 61 632 132 q 842 -10 751 -10 q 996 65 935 -10 q 1057 275 1057 139 q 1001 474 1057 403 q 850 544 944 544 q 724 507 756 544 q 693 469 693 469 m 843 471 q 933 415 904 471 q 961 269 961 360 q 932 119 961 175 q 844 64 903 64 q 756 121 789 64 q 726 267 724 178 q 758 413 726 356 q 843 471 789 471 "},"&":{"ha":840,"x_min":43,"x_max":836,"o":"m 836 0 l 682 167 q 817 513 776 279 l 706 513 q 615 239 678 335 l 388 499 l 388 504 q 545 619 497 558 q 593 754 593 679 q 534 899 593 844 q 386 953 475 953 q 212 883 275 953 q 149 721 149 814 q 226 525 149 622 l 226 521 q 43 247 43 421 q 121 61 43 138 q 331 -15 199 -15 q 604 90 489 -15 l 692 0 l 836 0 m 353 76 q 214 131 268 76 q 160 265 160 185 q 281 457 160 379 l 544 161 q 353 76 467 76 m 458 833 q 486 749 486 797 q 448 651 486 692 q 331 564 410 610 q 260 733 260 656 q 291 830 260 790 q 376 869 322 869 q 444 851 431 869 q 458 833 458 833 "},"'":{"ha":261,"x_min":71,"x_max":192,"o":"m 71 961 l 93 628 l 168 628 l 192 961 l 71 961 "},"(":{"ha":394,"x_min":89,"x_max":365,"o":"m 271 964 q 89 396 90 724 q 271 -168 89 72 l 365 -168 q 192 394 192 81 q 365 964 192 728 l 271 964 "},")":{"ha":394,"x_min":28,"x_max":304,"o":"m 122 -168 q 304 399 303 72 q 122 964 304 726 l 28 964 q 201 399 201 719 q 28 -168 201 78 l 122 -168 "},"*":{"ha":576,"x_min":42,"x_max":535,"o":"m 374 953 l 289 757 l 286 757 l 200 951 l 115 903 l 246 732 l 246 729 l 42 756 l 42 661 l 247 689 l 247 685 l 115 515 l 194 465 l 283 661 l 286 661 l 371 467 l 458 517 l 325 683 l 325 688 l 535 661 l 535 756 l 325 728 l 325 731 l 457 904 l 374 953 "},"+":{"ha":828,"x_min":56,"x_max":772,"o":"m 369 739 l 369 413 l 56 413 l 56 329 l 369 329 l 369 0 l 458 0 l 458 329 l 772 329 l 772 413 l 458 413 l 458 739 l 369 739 "},",":{"ha":288,"x_min":22,"x_max":242,"o":"m 108 -162 q 177 -14 138 -114 q 242 175 217 86 l 106 161 q 22 -172 78 -19 l 108 -162 "},"-":{"ha":426,"x_min":42,"x_max":385,"o":"m 42 419 l 42 331 l 385 331 l 385 419 l 42 419 "},".":{"ha":288,"x_min":72,"x_max":238,"o":"m 153 -15 q 214 10 190 -15 q 238 72 238 35 q 215 135 238 111 q 156 160 192 160 q 96 135 119 160 q 72 72 72 110 q 95 10 72 35 q 153 -15 118 -15 "},"/":{"ha":476,"x_min":-1,"x_max":481,"o":"m 92 -54 l 481 953 l 385 953 l -1 -54 l 92 -54 "},":":{"ha":288,"x_min":74,"x_max":238,"o":"m 154 475 q 215 499 192 475 q 238 561 238 524 q 215 624 238 600 q 156 649 193 649 q 97 624 119 649 q 74 561 74 600 q 97 500 74 525 q 154 475 119 475 m 154 -15 q 215 9 192 -15 q 238 71 238 33 q 215 134 238 110 q 156 158 193 158 q 97 134 119 158 q 74 71 74 110 q 97 10 74 35 q 154 -15 119 -15 "},";":{"ha":288,"x_min":24,"x_max":247,"o":"m 108 -161 q 177 -12 138 -111 q 242 176 217 88 l 107 163 q 24 -171 81 -15 l 108 -161 m 164 475 q 224 499 201 475 q 247 561 247 524 q 225 624 247 600 q 165 649 203 649 q 106 624 129 649 q 83 561 83 600 q 106 500 83 525 q 164 475 129 475 "},"<":{"ha":828,"x_min":92,"x_max":736,"o":"m 92 332 l 736 0 l 736 96 l 193 368 l 193 371 l 736 643 l 736 739 l 92 407 l 92 332 "},"=":{"ha":828,"x_min":56,"x_max":772,"o":"m 772 468 l 772 551 l 56 551 l 56 468 l 772 468 m 772 196 l 772 279 l 56 279 l 56 196 l 772 196 "},">":{"ha":828,"x_min":92,"x_max":736,"o":"m 736 410 l 92 739 l 92 643 l 639 371 l 639 368 l 92 96 l 92 0 l 736 331 l 736 410 "},"?":{"ha":564,"x_min":71,"x_max":501,"o":"m 306 267 l 303 301 q 382 507 297 406 q 472 632 443 579 q 501 749 501 685 q 442 894 501 835 q 269 953 382 953 q 71 897 150 953 l 104 810 q 244 853 161 853 q 342 819 308 851 q 376 733 376 788 q 279 543 376 657 q 193 303 179 424 l 196 267 l 306 267 m 247 -15 q 308 9 285 -15 q 331 71 331 33 q 308 134 331 110 q 249 158 286 158 q 190 134 213 158 q 167 71 167 110 q 190 10 167 35 q 247 -15 213 -15 "},"@":{"ha":1024,"x_min":60,"x_max":969,"o":"m 622 354 q 560 225 610 285 q 453 165 510 165 q 385 194 408 165 q 361 271 361 224 q 426 447 361 372 q 582 521 490 521 q 651 510 624 521 l 622 354 m 706 -31 q 496 -79 619 -79 q 239 24 339 -79 q 139 297 139 126 q 260 631 139 503 q 556 760 381 760 q 803 663 714 760 q 892 411 892 567 q 845 226 892 297 q 742 158 799 156 q 700 314 669 161 l 747 565 q 599 594 683 594 q 363 497 457 594 q 269 265 269 399 q 313 138 269 186 q 419 90 357 90 q 615 213 543 90 l 619 213 q 648 121 618 151 q 724 90 678 90 q 897 181 825 90 q 969 421 969 271 q 858 710 969 597 q 567 824 746 824 q 201 667 342 824 q 60 289 60 511 q 182 -26 60 93 q 481 -146 304 -146 q 728 -90 622 -146 l 706 -31 "},"A":{"ha":850,"x_min":35,"x_max":818,"o":"m 589 294 l 689 0 l 818 0 l 499 936 l 354 936 l 35 0 l 160 0 l 257 294 l 589 294 m 282 389 l 374 660 q 421 829 389 704 l 424 829 q 472 658 453 715 l 565 389 l 282 389 "},"B":{"ha":753,"x_min":106,"x_max":696,"o":"m 106 3 q 293 -8 186 -8 q 615 79 522 -8 q 696 267 696 153 q 638 422 696 363 q 503 500 581 482 l 503 504 q 619 586 576 531 q 661 710 661 642 q 582 875 661 817 q 326 943 500 943 q 106 922 193 943 l 106 3 m 226 842 q 333 850 265 850 q 538 697 538 850 q 483 583 538 628 q 336 539 429 539 l 226 539 l 226 842 m 226 449 l 326 449 q 500 403 432 449 q 568 268 568 358 q 500 130 568 174 q 328 86 432 86 q 226 92 260 86 l 226 449 "},"C":{"ha":806,"x_min":50,"x_max":761,"o":"m 735 126 q 536 88 654 88 q 273 189 368 88 q 178 464 178 290 q 277 748 178 646 q 543 850 376 850 q 731 811 653 850 l 761 910 q 539 951 682 951 q 185 816 321 951 q 50 460 50 681 q 178 110 50 235 q 511 -15 307 -15 q 758 29 672 -15 l 735 126 "},"D":{"ha":925,"x_min":106,"x_max":875,"o":"m 106 3 q 325 -8 203 -8 q 740 126 603 -8 q 875 490 875 261 q 742 826 875 706 q 363 943 614 943 q 106 922 228 943 l 106 3 m 226 835 q 368 847 283 847 q 652 751 556 847 q 747 486 749 656 q 644 192 747 296 q 349 89 542 89 q 226 94 267 89 l 226 835 "},"E":{"ha":683,"x_min":104,"x_max":632,"o":"m 589 539 l 226 539 l 226 835 l 611 835 l 611 936 l 104 936 l 104 0 l 632 0 l 632 101 l 226 101 l 226 439 l 589 439 l 589 539 "},"F":{"ha":676,"x_min":104,"x_max":608,"o":"m 104 0 l 226 0 l 226 424 l 579 424 l 579 524 l 226 524 l 226 835 l 608 835 l 608 936 l 104 936 l 104 0 "},"G":{"ha":897,"x_min":50,"x_max":819,"o":"m 819 492 l 511 492 l 511 394 l 700 394 l 700 115 q 539 90 650 90 q 276 191 374 90 q 178 468 178 292 q 280 744 178 643 q 554 844 382 844 q 761 804 676 844 l 792 903 q 557 946 703 946 q 188 810 325 946 q 50 463 50 675 q 181 114 50 240 q 531 -10 310 -10 q 819 42 686 -10 l 819 492 "},"H":{"ha":906,"x_min":104,"x_max":801,"o":"m 104 936 l 104 0 l 226 0 l 226 439 l 679 439 l 679 0 l 801 0 l 801 936 l 679 936 l 679 544 l 226 544 l 226 936 l 104 936 "},"I":{"ha":332,"x_min":104,"x_max":226,"o":"m 104 936 l 104 0 l 226 0 l 226 936 l 104 936 "},"J":{"ha":514,"x_min":6,"x_max":418,"o":"m 296 319 q 253 138 296 189 q 125 88 211 88 q 22 106 68 88 l 6 7 q 135 -15 57 -15 q 418 310 418 -15 l 418 936 l 296 936 l 296 319 "},"K":{"ha":753,"x_min":106,"x_max":767,"o":"m 106 0 l 226 0 l 226 357 l 317 460 l 624 0 l 767 0 l 401 539 l 740 936 l 590 936 l 304 585 q 231 485 263 531 l 226 485 l 226 936 l 106 936 l 106 0 "},"L":{"ha":656,"x_min":104,"x_max":626,"o":"m 104 0 l 626 0 l 626 101 l 226 101 l 226 936 l 104 936 l 104 0 "},"M":{"ha":1117,"x_min":81,"x_max":1036,"o":"m 917 0 l 1036 0 l 978 936 l 824 936 l 657 483 q 557 168 590 296 l 554 168 q 460 483 515 317 l 300 936 l 146 936 l 81 0 l 196 0 l 221 401 q 239 815 235 636 l 242 815 q 349 451 278 665 l 501 6 l 593 6 l 758 460 q 876 815 813 610 l 879 815 q 894 411 879 699 l 917 0 "},"N":{"ha":914,"x_min":106,"x_max":808,"o":"m 219 0 l 219 400 q 211 786 219 644 l 215 788 q 389 475 272 660 l 686 0 l 808 0 l 808 936 l 694 936 l 694 544 q 708 160 694 317 l 704 158 q 538 463 646 288 l 239 936 l 106 936 l 106 0 l 219 0 "},"O":{"ha":957,"x_min":50,"x_max":906,"o":"m 483 953 q 172 817 293 953 q 50 461 50 682 q 167 117 50 249 q 471 -15 285 -15 q 782 115 658 -15 q 906 478 906 246 q 790 821 906 689 q 483 953 675 953 m 479 854 q 699 740 621 854 q 778 472 778 626 q 697 194 778 306 q 478 83 617 83 q 259 194 340 83 q 178 464 178 306 q 257 741 178 628 q 479 854 336 854 "},"P":{"ha":739,"x_min":106,"x_max":682,"o":"m 106 0 l 226 0 l 226 375 q 324 367 260 367 q 610 469 511 367 q 682 669 682 544 q 600 865 682 793 q 338 943 514 943 q 106 925 214 943 l 106 0 m 226 838 q 340 847 263 847 q 502 801 443 847 q 561 663 561 754 q 499 516 561 568 q 326 464 436 464 q 226 474 264 464 l 226 838 "},"Q":{"ha":957,"x_min":50,"x_max":913,"o":"m 913 -36 q 639 24 789 -14 l 639 29 q 833 188 761 72 q 906 479 906 304 q 790 821 906 689 q 485 953 675 953 q 172 817 293 953 q 50 460 50 682 q 168 117 50 242 q 463 -15 286 -8 q 519 -29 478 -15 q 878 -137 688 -87 l 913 -36 m 478 83 q 259 194 340 83 q 178 463 178 304 q 210 654 178 567 q 314 798 243 742 q 482 854 385 854 q 700 740 622 854 q 778 472 778 626 q 697 194 778 306 q 478 83 617 83 "},"R":{"ha":747,"x_min":106,"x_max":715,"o":"m 106 0 l 226 0 l 226 406 l 340 406 q 465 362 422 403 q 529 224 508 321 q 590 0 568 39 l 715 0 q 643 257 694 40 q 507 446 608 410 l 507 450 q 633 538 585 476 q 682 688 682 600 q 608 867 682 800 q 338 943 524 943 q 106 924 213 943 l 106 0 m 226 839 q 346 849 263 849 q 503 806 446 849 q 561 675 561 763 q 503 546 561 594 q 350 497 446 497 l 226 497 l 226 839 "},"S":{"ha":685,"x_min":58,"x_max":624,"o":"m 58 46 q 164 2 97 19 q 297 -15 231 -15 q 540 63 456 -15 q 624 256 624 140 q 566 419 624 356 q 386 531 508 483 q 242 608 285 569 q 200 711 200 647 q 244 809 200 767 q 376 851 289 851 q 553 807 481 851 l 586 906 q 381 951 508 951 q 162 880 246 951 q 78 697 78 808 q 325 431 78 521 q 460 352 419 394 q 501 246 501 310 q 449 130 501 174 q 306 86 397 86 q 90 147 186 86 l 58 46 "},"T":{"ha":690,"x_min":-1,"x_max":692,"o":"m 283 0 l 406 0 l 406 833 l 692 833 l 692 936 l -1 936 l -1 833 l 283 833 l 283 0 "},"U":{"ha":899,"x_min":104,"x_max":794,"o":"m 104 936 l 104 385 q 195 81 104 178 q 440 -15 286 -15 q 698 84 601 -15 q 794 389 794 183 l 794 936 l 672 936 l 672 381 q 612 157 672 231 q 444 83 551 83 q 286 157 346 83 q 226 381 226 231 l 226 936 l 104 936 "},"V":{"ha":775,"x_min":4,"x_max":779,"o":"m 444 0 l 779 936 l 650 936 l 492 474 q 385 125 421 271 l 382 125 q 282 475 354 239 l 136 936 l 4 936 l 311 0 l 444 0 "},"W":{"ha":1175,"x_min":21,"x_max":1164,"o":"m 385 0 l 518 488 q 590 793 569 667 l 593 793 q 654 488 610 672 l 772 0 l 899 0 l 1164 936 l 1040 936 l 917 464 q 842 140 860 238 l 839 140 q 774 461 824 253 l 660 936 l 533 936 l 408 464 q 332 139 347 233 l 329 139 q 260 463 303 281 l 149 936 l 21 936 l 258 0 l 385 0 "},"X":{"ha":793,"x_min":35,"x_max":758,"o":"m 758 0 l 467 481 l 751 936 l 611 936 l 485 717 q 400 558 433 628 l 396 558 q 310 717 368 615 l 186 936 l 46 936 l 321 474 l 35 0 l 174 0 l 286 206 q 388 392 356 326 l 390 392 q 497 207 436 306 l 618 0 l 758 0 "},"Y":{"ha":751,"x_min":17,"x_max":749,"o":"m 436 0 l 436 399 l 749 936 l 613 936 l 478 678 q 383 485 400 524 l 381 485 q 288 678 364 521 l 156 936 l 17 936 l 314 397 l 314 0 l 436 0 "},"Z":{"ha":768,"x_min":42,"x_max":725,"o":"m 42 0 l 725 0 l 725 101 l 201 101 l 201 106 l 718 863 l 718 936 l 86 936 l 86 835 l 560 835 l 560 831 l 42 71 l 42 0 "},"[":{"ha":394,"x_min":113,"x_max":367,"o":"m 367 -156 l 367 -79 l 208 -79 l 208 876 l 367 876 l 367 953 l 113 953 l 113 -156 l 367 -156 "},"\\":{"ha":474,"x_min":3,"x_max":475,"o":"m 475 -54 l 97 953 l 3 953 l 381 -54 l 475 -54 "},"]":{"ha":394,"x_min":28,"x_max":282,"o":"m 28 953 l 28 876 l 186 876 l 186 -79 l 28 -79 l 28 -156 l 282 -156 l 282 953 l 28 953 "},"^":{"ha":828,"x_min":85,"x_max":744,"o":"m 744 263 l 458 903 l 371 903 l 85 263 l 181 263 l 413 801 l 415 801 l 647 263 l 744 263 "},"_":{"ha":694,"x_min":0,"x_max":694,"o":"m 0 -104 l 0 -174 l 694 -174 l 694 -104 l 0 -104 "},"`":{"ha":417,"x_min":31,"x_max":286,"o":"m 31 963 l 200 764 l 286 764 l 164 963 l 31 963 "},"a":{"ha":669,"x_min":49,"x_max":583,"o":"m 574 413 q 516 608 574 531 q 318 686 458 686 q 96 628 189 686 l 124 546 q 300 596 197 596 q 381 581 349 596 q 428 539 414 565 q 448 490 443 513 q 453 442 453 467 l 453 428 q 153 365 258 429 q 49 178 49 300 q 103 42 49 99 q 254 -15 157 -15 q 376 13 322 -15 q 460 85 429 42 l 464 85 l 474 0 l 583 0 q 574 161 574 64 l 574 413 m 456 226 q 450 188 456 206 q 390 108 433 140 q 285 75 347 75 q 203 105 236 75 q 171 192 171 135 q 456 343 171 349 l 456 226 "},"b":{"ha":790,"x_min":96,"x_max":739,"o":"m 101 174 q 96 0 101 92 l 200 0 l 207 110 l 210 110 q 436 -15 283 -15 q 649 80 558 -15 q 739 344 739 175 q 660 591 739 496 q 454 686 581 686 q 225 564 296 686 l 222 564 l 222 986 l 101 986 l 101 174 m 222 389 q 229 440 222 415 q 299 549 247 508 q 414 590 351 590 q 562 519 508 590 q 615 340 615 447 q 561 153 615 224 q 411 82 507 82 q 294 122 344 82 q 228 225 244 161 q 222 269 222 243 l 222 389 "},"c":{"ha":622,"x_min":53,"x_max":583,"o":"m 560 115 q 410 83 488 83 q 242 151 308 83 q 176 335 176 219 q 240 516 176 443 q 414 589 303 589 q 556 557 494 589 l 583 650 q 414 686 517 686 q 152 585 251 686 q 53 328 53 485 q 144 79 53 174 q 388 -15 236 -15 q 581 24 499 -15 l 560 115 "},"d":{"ha":783,"x_min":53,"x_max":686,"o":"m 560 986 l 560 585 l 557 585 q 480 657 532 628 q 354 686 428 686 q 140 588 228 686 q 53 326 51 489 q 135 80 53 175 q 342 -15 218 -15 q 481 22 421 -15 q 568 117 540 58 l 572 117 l 578 0 l 686 0 q 681 174 681 92 l 681 986 l 560 986 m 560 282 q 554 229 560 251 q 488 123 538 163 q 375 83 438 83 q 228 154 281 83 q 176 332 176 225 q 231 517 176 444 q 378 590 285 590 q 492 550 444 590 q 554 450 540 510 q 560 399 560 429 l 560 282 "},"e":{"ha":696,"x_min":53,"x_max":646,"o":"m 642 314 q 646 371 646 335 q 633 473 646 422 q 590 574 619 524 q 503 655 561 624 q 368 686 446 686 q 139 583 225 686 q 53 325 53 481 q 142 78 53 171 q 383 -15 231 -15 q 608 28 513 -15 l 586 115 q 400 81 507 81 q 235 138 300 81 q 169 314 171 196 l 642 314 m 171 401 q 226 538 179 478 q 358 599 274 599 q 490 537 450 599 q 528 401 529 475 l 171 401 "},"f":{"ha":406,"x_min":21,"x_max":460,"o":"m 235 0 l 235 579 l 397 579 l 397 672 l 235 672 l 235 708 q 365 903 235 903 q 443 888 410 903 l 460 982 q 356 1001 413 1001 q 192 939 256 1001 q 114 704 114 863 l 114 672 l 21 672 l 21 579 l 114 579 l 114 0 l 235 0 "},"g":{"ha":776,"x_min":53,"x_max":682,"o":"m 676 489 q 682 672 676 610 l 574 672 l 569 571 l 567 571 q 357 686 503 686 q 143 590 233 686 q 53 331 53 493 q 134 97 53 190 q 339 3 215 3 q 469 34 414 3 q 553 115 524 65 l 556 115 l 556 42 q 497 -137 556 -81 q 339 -194 439 -194 q 142 -140 224 -194 l 111 -235 q 335 -290 194 -290 q 581 -210 490 -290 q 676 99 676 -119 l 676 489 m 554 286 q 544 221 554 250 q 480 129 526 163 q 375 96 433 96 q 228 165 281 96 q 176 338 176 233 q 232 522 176 453 q 376 592 288 592 q 485 555 442 592 q 547 461 529 518 q 554 407 554 442 l 554 286 "},"h":{"ha":771,"x_min":101,"x_max":674,"o":"m 101 0 l 224 0 l 224 406 q 232 464 224 442 q 294 550 250 515 q 396 585 339 585 q 514 530 476 585 q 551 386 551 475 l 551 0 l 674 0 l 674 400 q 658 518 674 467 q 617 601 642 569 q 560 651 593 632 q 498 678 528 671 q 439 686 468 686 q 314 653 372 686 q 226 565 258 622 l 224 565 l 224 986 l 101 986 l 101 0 "},"i":{"ha":325,"x_min":86,"x_max":238,"o":"m 224 0 l 224 672 l 101 672 l 101 0 l 224 0 m 108 915 q 86 861 86 893 q 106 808 86 829 q 160 786 126 786 q 217 808 196 786 q 238 861 238 829 q 217 916 238 894 q 163 938 196 938 q 118 926 129 938 q 108 915 108 915 "},"j":{"ha":338,"x_min":-64,"x_max":253,"o":"m -50 -293 q 63 -274 4 -293 q 158 -217 121 -254 q 239 60 239 -135 l 239 672 l 117 672 l 117 107 q 106 -62 117 -10 q 69 -144 96 -115 q -64 -197 29 -190 l -50 -293 m 123 915 q 101 861 101 893 q 122 808 101 831 q 175 786 143 786 q 232 808 211 786 q 253 861 253 829 q 232 915 253 893 q 178 938 211 938 q 134 926 144 938 q 123 915 123 915 "},"k":{"ha":651,"x_min":101,"x_max":665,"o":"m 222 986 l 101 986 l 101 0 l 222 0 l 222 253 l 285 322 l 515 0 l 665 0 l 369 396 l 628 672 l 482 672 l 283 440 q 225 364 253 403 l 222 364 l 222 986 "},"l":{"ha":328,"x_min":101,"x_max":224,"o":"m 101 0 l 224 0 l 224 986 l 101 986 l 101 0 "},"m":{"ha":1158,"x_min":96,"x_max":1063,"o":"m 101 0 l 221 0 l 221 404 q 231 464 221 440 q 288 550 246 514 q 382 586 329 586 q 486 536 450 586 q 522 403 522 486 l 522 0 l 642 0 l 642 415 q 651 476 642 444 q 708 555 669 524 q 797 586 747 586 q 906 532 869 586 q 943 379 943 478 l 943 0 l 1063 0 l 1063 394 q 1041 538 1063 478 q 985 629 1019 599 q 914 673 950 660 q 840 686 878 686 q 693 639 756 686 q 617 551 643 601 l 614 551 q 542 649 592 613 q 425 686 492 686 q 213 563 285 686 l 208 563 l 203 672 l 96 672 q 101 490 101 561 l 101 0 "},"n":{"ha":771,"x_min":96,"x_max":674,"o":"m 101 0 l 224 0 l 224 404 q 232 461 224 439 q 294 550 250 514 q 396 586 339 586 q 514 531 476 586 q 551 388 551 476 l 551 0 l 674 0 l 674 400 q 650 541 674 482 q 589 630 626 600 q 513 673 551 660 q 436 686 475 686 q 300 650 358 686 q 214 561 242 614 l 211 561 l 204 672 l 96 672 q 101 490 101 599 l 101 0 "},"o":{"ha":763,"x_min":53,"x_max":710,"o":"m 386 686 q 148 590 243 686 q 53 331 53 493 q 144 80 53 175 q 375 -15 236 -15 q 610 76 510 -15 q 710 342 710 168 q 620 590 710 494 q 386 686 531 686 m 534 515 q 585 338 585 436 q 526 151 585 225 q 381 76 468 76 q 235 150 292 76 q 178 335 178 224 q 231 517 178 440 q 383 594 283 594 q 509 555 483 594 q 534 515 534 515 "},"p":{"ha":790,"x_min":96,"x_max":739,"o":"m 101 -275 l 222 -275 l 222 90 l 225 90 q 310 13 256 40 q 432 -15 365 -15 q 649 79 560 -15 q 739 346 739 174 q 658 592 739 497 q 453 686 576 686 q 214 557 290 686 l 211 557 l 204 672 l 96 672 q 101 453 101 544 l 101 -275 m 222 390 q 231 439 222 408 q 299 548 247 507 q 415 589 351 589 q 562 517 508 589 q 615 340 615 446 q 561 151 615 222 q 411 81 507 81 q 295 120 346 81 q 228 224 244 160 q 222 274 222 244 l 222 390 "},"q":{"ha":782,"x_min":53,"x_max":686,"o":"m 560 -275 l 681 -275 l 681 488 q 686 672 681 561 l 571 672 l 567 571 l 564 571 q 484 654 538 622 q 357 686 431 686 q 145 593 238 686 q 53 324 53 500 q 135 79 53 174 q 338 -15 217 -15 q 557 103 489 -15 l 560 103 l 560 -275 m 560 274 q 550 214 560 246 q 482 117 529 151 q 375 82 435 82 q 228 153 279 82 q 176 332 176 225 q 231 517 176 446 q 379 589 286 589 q 492 549 444 589 q 554 450 539 510 q 560 400 560 429 l 560 274 "},"r":{"ha":454,"x_min":96,"x_max":433,"o":"m 101 0 l 224 0 l 224 358 q 228 415 224 390 q 284 528 240 485 q 392 571 328 571 q 433 568 421 571 l 433 683 q 400 686 411 686 q 286 646 338 686 q 213 539 235 606 l 208 539 l 203 672 l 96 672 q 101 463 101 589 l 101 0 "},"s":{"ha":550,"x_min":56,"x_max":494,"o":"m 56 32 q 244 -15 136 -15 q 428 40 361 -15 q 494 188 494 96 q 451 308 494 260 q 318 389 407 356 q 220 440 249 417 q 192 504 192 464 q 221 569 192 543 q 303 596 250 596 q 440 556 376 596 l 469 644 q 306 686 406 686 q 138 629 201 686 q 74 489 74 572 q 253 299 74 364 q 349 247 321 274 q 376 176 376 219 q 343 104 376 132 q 247 76 310 76 q 85 124 164 76 l 56 32 "},"t":{"ha":460,"x_min":25,"x_max":424,"o":"m 129 797 l 129 672 l 25 672 l 25 579 l 129 579 l 129 213 q 176 36 129 89 q 308 -15 224 -15 q 417 1 369 -15 l 411 94 q 340 86 383 86 q 249 217 249 86 l 249 579 l 424 579 l 424 672 l 249 672 l 249 833 l 129 797 "},"u":{"ha":765,"x_min":97,"x_max":669,"o":"m 664 672 l 542 672 l 542 261 q 531 199 542 225 q 469 119 513 153 q 369 86 426 86 q 219 301 219 86 l 219 672 l 97 672 l 97 279 q 118 135 97 196 q 174 44 139 75 q 248 -1 210 13 q 329 -15 286 -15 q 467 22 410 -15 q 551 110 524 60 l 554 110 l 561 0 l 669 0 q 664 185 664 71 l 664 672 "},"v":{"ha":668,"x_min":18,"x_max":654,"o":"m 18 672 l 274 0 l 390 0 l 654 672 l 526 672 l 396 296 q 339 122 356 182 l 335 122 q 281 296 317 194 l 149 672 l 18 672 "},"w":{"ha":1022,"x_min":25,"x_max":1001,"o":"m 25 672 l 228 0 l 339 0 l 447 319 q 508 542 489 446 l 511 542 q 571 321 531 447 l 674 0 l 785 0 l 1001 672 l 881 672 l 785 335 q 733 117 747 200 l 729 117 q 669 336 707 214 l 565 672 l 463 672 l 353 329 q 293 117 308 185 l 289 117 q 240 331 281 164 l 150 672 l 25 672 "},"x":{"ha":643,"x_min":11,"x_max":626,"o":"m 22 672 l 250 343 l 11 0 l 146 0 l 243 151 q 314 268 283 214 l 317 268 q 389 151 361 193 l 489 0 l 626 0 l 392 347 l 621 672 l 488 672 l 394 529 q 326 419 351 464 l 324 419 q 254 528 288 481 l 158 672 l 22 672 "},"y":{"ha":654,"x_min":13,"x_max":644,"o":"m 13 672 l 260 53 q 269 21 269 32 q 260 -8 269 14 q 157 -144 219 -96 q 50 -204 108 -186 l 81 -306 q 231 -228 154 -292 q 342 -79 292 -174 q 461 193 393 15 l 644 672 l 515 672 l 382 278 q 356 195 372 249 q 339 138 340 142 l 336 138 q 292 275 317 210 l 146 672 l 13 672 "},"z":{"ha":594,"x_min":25,"x_max":569,"o":"m 25 0 l 569 0 l 569 97 l 178 97 l 178 100 q 264 206 204 129 l 564 596 l 564 672 l 53 672 l 53 575 l 417 575 l 417 572 l 328 467 l 25 71 l 25 0 "},"{":{"ha":394,"x_min":39,"x_max":360,"o":"m 39 365 q 151 261 151 365 q 142 149 151 239 q 129 35 129 81 q 331 -156 129 -156 l 360 -156 l 360 -79 l 336 -79 q 225 42 225 -78 q 235 142 225 64 q 246 249 246 211 q 144 400 246 374 l 144 403 q 246 553 247 431 q 235 658 246 589 q 225 757 225 736 q 336 876 225 875 l 360 876 l 360 953 l 332 953 q 184 908 239 953 q 129 771 129 863 q 140 654 129 735 q 151 539 151 579 q 127 465 150 493 q 39 436 104 436 l 39 365 "},"|":{"ha":332,"x_min":119,"x_max":213,"o":"m 119 1042 l 119 -347 l 213 -347 l 213 1042 l 119 1042 "},"}":{"ha":394,"x_min":35,"x_max":356,"o":"m 356 436 q 266 465 289 436 q 243 539 243 493 q 254 654 243 579 q 265 771 265 735 q 210 908 265 863 q 63 953 156 953 l 35 953 l 35 876 l 58 876 q 169 757 169 875 q 160 658 169 736 q 149 553 149 589 q 250 403 149 429 l 250 400 q 149 249 147 372 q 160 142 149 211 q 169 42 169 64 q 58 -79 169 -78 l 35 -79 l 35 -156 l 64 -156 q 265 35 265 -156 q 254 149 265 74 q 243 261 243 226 q 356 365 246 365 l 356 436 "},"~":{"ha":828,"x_min":68,"x_max":760,"o":"m 151 292 q 233 410 153 410 q 255 408 244 410 q 278 403 265 407 q 299 396 290 399 q 324 386 308 393 q 347 375 339 379 q 373 362 354 371 q 400 349 392 353 q 601 288 532 288 q 719 338 674 288 q 760 497 764 389 l 678 497 q 603 381 675 381 q 431 439 551 381 q 315 488 354 475 q 233 501 275 501 q 112 447 158 501 q 68 292 65 392 l 151 292 "}," ":{"ha":294,"x_min":0,"x_max":0,"o":""},"¡":{"ha":319,"x_min":78,"x_max":242,"o":"m 226 -271 l 207 392 l 113 392 l 93 -271 l 226 -271 m 101 653 q 78 590 78 629 q 101 530 78 554 q 160 506 124 506 q 219 530 196 506 q 242 590 242 554 q 219 653 242 629 q 161 678 197 678 q 113 666 125 678 q 101 653 101 653 "},"¢":{"ha":713,"x_min":93,"x_max":613,"o":"m 460 -19 l 460 119 q 613 160 553 125 l 592 249 q 433 214 522 214 q 277 280 339 214 q 215 457 215 346 q 276 634 215 563 q 438 706 338 706 q 583 671 522 706 l 611 764 q 460 799 546 797 l 460 935 l 372 935 l 372 796 q 169 681 246 775 q 93 453 93 588 q 172 218 93 304 q 372 121 250 135 l 372 -19 l 460 -19 "},"£":{"ha":713,"x_min":78,"x_max":654,"o":"m 654 0 l 654 101 l 240 101 l 240 104 q 336 254 314 167 q 342 410 350 308 l 531 410 l 531 497 l 331 497 q 315 646 315 579 q 352 772 315 725 q 467 819 389 819 q 592 792 542 819 l 618 883 q 467 918 563 918 q 275 844 350 918 q 200 647 200 769 q 215 497 200 589 l 86 497 l 86 410 l 229 410 q 236 313 236 364 q 192 171 236 236 q 78 69 149 106 l 78 0 l 654 0 "},"¤":{"ha":713,"x_min":39,"x_max":678,"o":"m 357 742 q 196 685 263 742 l 101 790 l 39 726 l 144 628 q 90 457 90 558 q 142 289 90 358 l 42 192 l 101 131 l 194 233 q 353 178 254 178 q 515 236 453 178 l 611 131 l 672 192 l 568 294 q 617 464 617 358 q 568 628 617 563 l 678 726 l 615 790 l 517 686 q 357 742 454 742 m 353 654 q 474 597 431 654 q 518 463 518 540 q 469 315 518 364 q 353 265 419 265 q 240 315 290 265 q 189 458 189 365 q 234 598 189 542 q 353 654 279 654 "},"¥":{"ha":713,"x_min":22,"x_max":690,"o":"m 406 0 l 406 244 l 622 244 l 622 313 l 406 313 l 406 414 l 622 414 l 622 482 l 442 482 l 690 903 l 563 903 l 413 619 q 357 490 379 553 l 353 490 q 297 617 331 546 l 153 903 l 22 903 l 257 482 l 75 482 l 75 414 l 290 414 l 290 313 l 75 313 l 75 244 l 290 244 l 290 0 l 406 0 "},"¦":{"ha":332,"x_min":119,"x_max":213,"o":"m 119 242 l 119 -244 l 213 -244 l 213 242 l 119 242 m 119 936 l 119 450 l 213 450 l 213 936 l 119 936 "},"§":{"ha":721,"x_min":82,"x_max":639,"o":"m 182 486 q 244 596 182 551 q 284 576 261 586 q 326 558 307 565 q 374 541 344 551 q 415 525 403 531 q 539 396 539 482 q 486 289 539 328 q 328 356 450 313 q 215 416 249 385 q 182 486 182 447 m 581 903 q 389 949 499 949 q 206 895 279 949 q 133 751 133 842 q 148 684 133 717 q 185 636 163 651 q 82 472 82 568 q 142 343 82 390 q 324 254 201 296 q 457 188 421 219 q 493 108 493 157 q 450 26 493 56 q 339 -4 407 -4 q 154 51 232 -4 l 121 -28 q 339 -86 200 -86 q 525 -33 447 -86 q 603 122 603 21 q 550 246 603 196 q 639 414 639 314 q 582 548 639 500 q 414 632 525 596 q 281 689 321 663 q 240 765 240 715 q 281 840 240 811 q 385 868 322 868 q 550 824 481 868 l 581 903 "},"¨":{"ha":417,"x_min":10,"x_max":406,"o":"m 78 792 q 128 813 108 792 q 147 863 147 833 q 128 913 147 893 q 81 933 108 933 q 30 913 50 933 q 10 863 10 892 q 29 813 10 833 q 78 792 49 792 m 336 792 q 386 813 367 792 q 406 863 406 833 q 386 913 406 893 q 338 933 367 933 q 288 913 308 933 q 268 863 268 892 q 288 813 268 833 q 336 792 307 792 "},"©":{"ha":940,"x_min":50,"x_max":890,"o":"m 474 900 q 173 775 296 900 q 50 472 50 650 q 173 167 50 293 q 472 42 296 42 q 769 167 647 42 q 890 472 890 293 q 769 775 890 650 q 474 900 649 900 m 471 843 q 719 735 618 843 q 821 472 821 628 q 720 206 821 314 q 472 99 619 97 q 221 206 322 99 q 119 468 119 313 q 221 735 119 626 q 471 843 322 843 m 658 685 q 599 710 642 699 q 506 722 556 722 q 318 651 396 722 q 240 464 240 579 q 308 284 240 356 q 494 213 376 213 q 665 256 600 213 l 649 308 q 508 272 593 272 q 364 328 415 272 q 313 468 313 383 q 363 609 313 556 q 507 663 413 663 q 642 631 582 663 l 658 685 "},"ª":{"ha":481,"x_min":46,"x_max":422,"o":"m 422 369 q 415 478 415 425 l 415 626 q 239 821 415 821 q 81 775 144 821 l 103 717 q 221 753 151 753 q 276 743 253 753 q 308 718 299 733 q 322 690 318 703 q 325 667 325 678 l 325 653 q 119 613 193 656 q 46 496 46 571 q 84 401 46 439 q 189 363 122 363 q 331 428 276 363 l 333 428 l 340 369 l 422 369 m 326 517 q 313 481 326 499 q 218 429 282 429 q 160 449 183 429 q 138 501 138 468 q 326 593 138 599 l 326 517 "},"«":{"ha":582,"x_min":40,"x_max":550,"o":"m 322 606 l 224 606 l 40 350 l 224 94 l 324 94 l 138 350 l 322 606 m 550 606 l 451 606 l 268 350 l 451 94 l 550 94 l 365 350 l 550 606 "},"¬":{"ha":828,"x_min":56,"x_max":772,"o":"m 56 554 l 56 471 l 683 471 l 683 168 l 772 168 l 772 554 l 56 554 "},"­":{"ha":404,"x_min":42,"x_max":385,"o":"m 42 419 l 42 331 l 385 331 l 385 419 l 42 419 "},"®":{"ha":582,"x_min":57,"x_max":525,"o":"m 256 693 l 281 693 q 328 658 322 693 q 346 603 340 610 l 401 603 q 385 658 392 621 q 344 714 374 704 l 344 717 q 392 771 392 732 q 368 819 392 803 q 290 838 343 838 q 203 831 256 838 l 203 603 l 256 603 l 256 693 m 257 796 q 286 799 268 799 q 335 764 335 799 q 282 731 335 731 l 257 731 l 257 796 m 293 949 q 126 883 194 949 q 57 721 57 817 q 125 558 57 625 q 292 492 193 492 q 457 558 389 492 q 525 721 525 625 q 458 883 525 817 q 293 949 390 949 m 290 903 q 416 849 365 903 q 467 719 467 796 q 417 591 467 644 q 293 539 367 538 q 167 592 218 539 q 115 721 115 644 q 166 849 115 796 q 290 903 217 903 "},"¯":{"ha":417,"x_min":53,"x_max":365,"o":"m 53 893 l 53 814 l 365 814 l 365 893 l 53 893 "},"°":{"ha":442,"x_min":40,"x_max":408,"o":"m 226 953 q 94 899 147 953 q 40 765 40 844 q 92 638 40 690 q 222 586 143 586 q 353 638 297 586 q 408 772 408 690 q 358 899 408 846 q 226 953 308 953 m 222 888 q 306 851 278 888 q 333 771 333 815 q 302 685 333 719 q 224 651 271 651 q 146 684 176 651 q 115 765 115 717 q 144 851 115 814 q 222 888 172 888 "},"±":{"ha":828,"x_min":56,"x_max":772,"o":"m 369 793 l 369 524 l 56 524 l 56 440 l 369 440 l 369 163 l 458 163 l 458 440 l 772 440 l 772 524 l 458 524 l 458 793 l 369 793 m 56 83 l 56 0 l 772 0 l 772 83 l 56 83 "},"²":{"ha":432,"x_min":17,"x_max":392,"o":"m 17 615 l 392 615 l 392 692 l 156 692 l 156 694 l 197 733 q 338 876 293 817 q 382 1007 382 936 q 335 1116 382 1069 q 199 1163 289 1163 q 28 1106 97 1163 l 57 1042 q 174 1085 115 1085 q 252 1058 225 1085 q 279 989 279 1031 q 239 886 279 939 q 104 747 199 833 l 17 667 l 17 615 "},"³":{"ha":424,"x_min":11,"x_max":390,"o":"m 63 1054 q 181 1092 117 1092 q 247 1072 225 1092 q 268 1022 268 1051 q 228 957 268 979 q 142 935 189 935 l 103 935 l 103 871 l 140 871 q 244 847 201 871 q 288 772 288 822 q 257 708 289 736 q 165 679 225 679 q 36 715 94 679 l 11 646 q 171 607 71 607 q 331 655 272 607 q 390 769 390 703 q 354 859 390 822 q 261 904 318 896 l 261 907 q 340 958 311 925 q 368 1033 368 990 q 326 1126 368 1089 q 199 1164 283 1164 q 39 1121 106 1164 l 63 1054 "},"´":{"ha":417,"x_min":140,"x_max":396,"o":"m 263 963 l 140 764 l 226 764 l 396 963 l 263 963 "},"µ":{"ha":768,"x_min":101,"x_max":732,"o":"m 560 104 q 679 -15 575 -15 q 722 -10 701 -15 l 732 79 q 682 104 696 81 q 668 185 668 128 l 668 672 l 546 672 l 546 261 q 535 197 546 226 q 474 118 517 151 q 375 85 432 85 q 261 138 299 85 q 224 275 224 190 l 224 672 l 101 672 l 101 -26 q 121 -275 101 -217 l 231 -275 q 215 -21 215 -207 l 215 61 q 363 -12 257 -12 q 481 22 431 -12 q 556 104 531 57 l 560 104 "},"¶":{"ha":711,"x_min":47,"x_max":592,"o":"m 407 -68 l 407 856 l 506 856 l 506 -68 l 592 -68 l 592 928 q 429 939 536 939 q 242 912 321 939 q 123 839 164 885 q 65 742 82 793 q 47 632 47 690 q 133 438 49 508 q 311 368 217 368 l 321 368 l 321 -68 l 407 -68 "},"·":{"ha":288,"x_min":61,"x_max":226,"o":"m 142 278 q 203 302 179 278 q 226 364 226 326 q 203 427 226 403 q 144 451 181 451 q 85 427 108 451 q 61 364 61 403 q 84 303 61 328 q 142 278 107 278 "},"¸":{"ha":417,"x_min":75,"x_max":315,"o":"m 188 4 l 122 -112 q 231 -171 231 -122 q 215 -203 232 -193 q 171 -214 197 -214 q 96 -194 132 -214 l 75 -254 q 169 -278 115 -278 q 274 -251 233 -278 q 315 -165 315 -224 q 287 -100 315 -126 q 218 -69 258 -74 l 264 4 l 188 4 "},"¹":{"ha":339,"x_min":31,"x_max":246,"o":"m 246 615 l 246 1157 l 161 1157 l 31 1094 l 46 1022 l 146 1071 l 149 1071 l 149 615 l 246 615 "},"º":{"ha":493,"x_min":25,"x_max":468,"o":"m 250 821 q 90 757 156 821 q 25 588 25 693 q 88 425 25 488 q 246 363 151 363 q 401 422 335 363 q 468 594 467 482 q 408 758 468 694 q 250 821 349 821 m 244 751 q 342 702 308 751 q 375 592 375 653 q 339 476 375 521 q 247 432 303 432 q 156 477 194 432 q 118 589 118 522 q 151 702 118 653 q 244 751 183 751 "},"»":{"ha":582,"x_min":33,"x_max":542,"o":"m 218 350 l 33 94 l 131 94 l 315 350 l 131 606 l 33 606 l 218 350 m 444 350 l 260 94 l 357 94 l 542 350 l 357 606 l 258 606 l 444 350 "},"¼":{"ha":1054,"x_min":60,"x_max":1004,"o":"m 275 369 l 275 911 l 190 911 l 60 850 l 75 778 l 175 826 l 178 826 l 178 369 l 275 369 m 271 -15 l 797 918 l 719 918 l 192 -15 l 271 -15 m 921 0 l 921 143 l 1004 143 l 1004 211 l 921 211 l 921 549 l 819 549 l 551 197 l 551 143 l 829 143 l 829 0 l 921 0 m 829 211 l 653 211 l 651 213 l 785 386 q 808 424 793 399 q 831 463 822 450 l 833 463 q 829 375 829 388 l 829 211 "},"½":{"ha":1054,"x_min":40,"x_max":986,"o":"m 256 369 l 256 911 l 171 911 l 40 850 l 56 778 l 156 826 l 158 826 l 158 369 l 256 369 m 243 -15 l 769 918 l 692 918 l 165 -15 l 243 -15 m 611 0 l 986 0 l 986 76 l 750 76 l 750 79 l 792 118 q 933 263 889 204 q 976 393 976 321 q 930 502 976 456 q 793 549 883 549 q 622 492 692 549 l 651 428 q 768 471 710 471 q 847 444 819 471 q 874 374 874 417 q 834 272 874 324 q 699 132 794 221 l 611 51 l 611 0 "},"¾":{"ha":1054,"x_min":42,"x_max":1019,"o":"m 92 808 q 208 846 146 846 q 275 826 253 846 q 297 776 297 806 q 258 711 297 733 q 171 689 218 689 l 133 689 l 133 625 l 171 625 q 275 602 232 626 q 318 528 318 578 q 288 463 319 492 q 196 435 256 435 q 67 471 119 435 l 42 401 q 201 363 101 363 q 362 410 303 363 q 421 525 421 457 q 385 615 421 578 q 292 660 349 651 l 292 663 q 369 712 342 679 q 397 788 397 744 q 354 881 397 843 q 226 918 311 918 q 68 874 132 918 l 92 808 m 322 -15 l 849 918 l 771 918 l 243 -15 l 322 -15 m 936 0 l 936 143 l 1019 143 l 1019 211 l 936 211 l 936 549 l 835 549 l 567 197 l 567 143 l 844 143 l 844 0 l 936 0 m 844 211 l 667 211 l 665 213 l 800 386 q 846 463 806 393 l 849 463 q 844 375 844 388 l 844 211 "},"¿":{"ha":564,"x_min":76,"x_max":507,"o":"m 331 678 q 270 653 293 678 q 247 590 247 629 q 270 528 247 553 q 329 504 293 504 q 389 528 367 504 q 411 590 411 553 q 389 653 411 629 q 331 678 367 678 m 274 397 l 275 361 q 197 156 283 258 q 106 31 136 83 q 76 -86 76 -22 q 136 -231 76 -172 q 308 -290 196 -290 q 507 -235 425 -290 l 475 -147 q 333 -190 414 -190 q 235 -158 269 -190 q 201 -71 201 -125 q 299 119 201 6 q 385 361 399 242 l 381 397 l 274 397 "},"À":{"ha":850,"x_min":35,"x_max":818,"o":"m 589 294 l 689 0 l 818 0 l 499 936 l 354 936 l 35 0 l 160 0 l 257 294 l 589 294 m 282 389 l 374 660 q 421 829 389 704 l 424 829 q 472 658 453 715 l 565 389 l 282 389 m 224 1149 l 401 988 l 500 988 l 371 1149 l 224 1149 "},"Á":{"ha":850,"x_min":35,"x_max":818,"o":"m 589 294 l 689 0 l 818 0 l 499 936 l 354 936 l 35 0 l 160 0 l 257 294 l 589 294 m 282 389 l 374 660 q 421 829 389 704 l 424 829 q 472 658 453 715 l 565 389 l 282 389 m 483 1149 l 354 986 l 453 986 l 631 1149 l 483 1149 "},"Â":{"ha":850,"x_min":35,"x_max":818,"o":"m 589 294 l 689 0 l 818 0 l 499 936 l 354 936 l 35 0 l 160 0 l 257 294 l 589 294 m 282 389 l 374 660 q 421 829 389 704 l 424 829 q 472 658 453 715 l 565 389 l 282 389 m 383 1144 l 242 986 l 340 986 l 429 1082 l 432 1082 l 519 986 l 622 986 l 476 1144 l 383 1144 "},"Ã":{"ha":850,"x_min":35,"x_max":818,"o":"m 589 294 l 689 0 l 818 0 l 499 936 l 354 936 l 35 0 l 160 0 l 257 294 l 589 294 m 282 389 l 374 660 q 421 829 389 704 l 424 829 q 472 658 453 715 l 565 389 l 282 389 m 322 993 q 358 1054 329 1054 q 425 1028 372 1054 q 510 1001 475 1001 q 603 1136 606 1001 l 539 1136 q 527 1093 536 1104 q 501 1082 518 1082 q 435 1107 479 1082 q 351 1135 382 1135 q 281 1096 307 1135 q 257 993 256 1057 l 322 993 "},"Ä":{"ha":850,"x_min":35,"x_max":818,"o":"m 589 294 l 689 0 l 818 0 l 499 936 l 354 936 l 35 0 l 160 0 l 257 294 l 589 294 m 282 389 l 374 660 q 421 829 389 704 l 424 829 q 472 658 453 715 l 565 389 l 282 389 m 300 999 q 349 1019 331 999 q 368 1069 368 1039 q 349 1119 368 1099 q 301 1139 331 1139 q 253 1119 272 1139 q 233 1069 233 1099 q 252 1019 233 1040 q 300 999 271 999 m 558 999 q 609 1019 590 999 q 628 1069 628 1039 q 609 1119 628 1099 q 561 1139 590 1139 q 512 1119 532 1139 q 492 1069 492 1099 q 510 1019 492 1040 q 558 999 529 999 "},"Å":{"ha":850,"x_min":35,"x_max":818,"o":"m 589 294 l 689 0 l 818 0 l 499 936 l 354 936 l 35 0 l 160 0 l 257 294 l 589 294 m 282 389 l 374 660 q 421 829 389 704 l 424 829 q 472 658 453 715 l 565 389 l 282 389 m 429 1219 q 327 1183 365 1219 q 289 1093 289 1147 q 328 1006 289 1042 q 428 971 367 971 q 526 1006 488 971 q 565 1093 565 1040 q 528 1183 565 1147 q 429 1219 490 1219 m 474 1148 q 493 1096 493 1126 q 474 1043 493 1064 q 426 1022 456 1022 q 378 1044 397 1022 q 360 1093 360 1065 q 377 1147 360 1125 q 425 1169 394 1169 q 465 1159 456 1169 q 474 1148 474 1148 "},"Æ":{"ha":1094,"x_min":-1,"x_max":1050,"o":"m 124 0 l 274 329 l 561 329 l 603 0 l 1049 0 l 1050 101 l 707 101 l 665 436 l 999 436 l 999 536 l 650 536 l 614 835 l 1011 835 l 1013 936 l 426 936 l -1 0 l 124 0 m 314 428 l 435 701 q 494 849 481 810 l 500 849 q 517 697 503 808 l 547 428 l 314 428 "},"Ç":{"ha":813,"x_min":50,"x_max":761,"o":"m 736 126 q 538 88 654 88 q 273 188 368 88 q 178 464 178 289 q 277 748 178 646 q 543 850 376 850 q 732 811 651 850 l 761 910 q 540 951 685 951 q 185 816 321 951 q 50 460 50 681 q 158 133 50 254 q 443 -10 265 11 l 385 -115 q 493 -175 493 -129 q 433 -218 493 -218 q 357 -199 389 -218 l 338 -261 q 436 -285 381 -285 q 538 -257 497 -285 q 579 -172 579 -229 q 551 -105 579 -132 q 482 -69 524 -78 l 517 -14 q 760 31 681 -12 l 736 126 "},"È":{"ha":683,"x_min":104,"x_max":632,"o":"m 589 539 l 226 539 l 226 835 l 611 835 l 611 936 l 104 936 l 104 0 l 632 0 l 632 101 l 226 101 l 226 439 l 589 439 l 589 539 m 165 1149 l 343 988 l 442 988 l 313 1149 l 165 1149 "},"É":{"ha":683,"x_min":104,"x_max":632,"o":"m 589 539 l 226 539 l 226 835 l 611 835 l 611 936 l 104 936 l 104 0 l 632 0 l 632 101 l 226 101 l 226 439 l 589 439 l 589 539 m 419 1149 l 290 986 l 389 986 l 567 1149 l 419 1149 "},"Ê":{"ha":683,"x_min":104,"x_max":632,"o":"m 589 539 l 226 539 l 226 835 l 611 835 l 611 936 l 104 936 l 104 0 l 632 0 l 632 101 l 226 101 l 226 439 l 589 439 l 589 539 m 310 1144 l 168 986 l 267 986 l 356 1082 l 358 1082 l 446 986 l 549 986 l 403 1144 l 310 1144 "},"Ë":{"ha":683,"x_min":104,"x_max":633,"o":"m 590 539 l 226 539 l 226 835 l 611 835 l 611 936 l 104 936 l 104 0 l 633 0 l 633 101 l 226 101 l 226 439 l 590 439 l 590 539 m 225 1001 q 274 1022 256 1001 q 293 1072 293 1042 q 274 1122 293 1101 q 226 1142 256 1142 q 178 1122 197 1142 q 158 1072 158 1101 q 177 1022 158 1043 q 225 1001 196 1001 m 482 1001 q 533 1022 514 1001 q 551 1072 551 1042 q 533 1122 551 1101 q 485 1142 514 1142 q 435 1122 456 1142 q 415 1072 415 1101 q 434 1022 415 1043 q 482 1001 453 1001 "},"Ì":{"ha":332,"x_min":-35,"x_max":242,"o":"m 104 936 l 104 0 l 226 0 l 226 936 l 104 936 m -35 1149 l 143 988 l 242 988 l 113 1149 l -35 1149 "},"Í":{"ha":332,"x_min":93,"x_max":369,"o":"m 104 936 l 104 0 l 226 0 l 226 936 l 104 936 m 222 1149 l 93 986 l 192 986 l 369 1149 l 222 1149 "},"Î":{"ha":332,"x_min":-24,"x_max":357,"o":"m 104 936 l 104 0 l 226 0 l 226 936 l 104 936 m 118 1144 l -24 986 l 75 986 l 164 1082 l 167 1082 l 254 986 l 357 986 l 211 1144 l 118 1144 "},"Ï":{"ha":332,"x_min":-29,"x_max":364,"o":"m 104 936 l 104 0 l 226 0 l 226 936 l 104 936 m 38 1001 q 87 1022 68 1001 q 106 1072 106 1042 q 87 1122 106 1101 q 39 1142 68 1142 q -10 1122 10 1142 q -29 1072 -29 1101 q -10 1022 -29 1043 q 38 1001 8 1001 m 294 1001 q 345 1022 326 1001 q 364 1072 364 1042 q 345 1122 364 1101 q 297 1142 326 1142 q 248 1122 268 1142 q 228 1072 228 1101 q 247 1022 228 1043 q 294 1001 265 1001 "},"Ð":{"ha":932,"x_min":-1,"x_max":881,"o":"m -1 426 l 113 426 l 113 0 q 332 -10 219 -10 q 746 125 608 -10 q 881 490 881 263 q 747 831 881 713 q 369 947 624 947 q 113 926 235 947 l 113 524 l -1 524 l -1 426 m 483 524 l 233 524 l 233 839 q 375 851 290 851 q 658 756 563 851 q 753 489 754 661 q 651 191 753 294 q 354 88 549 88 q 233 93 274 88 l 233 426 l 483 426 l 483 524 "},"Ñ":{"ha":914,"x_min":106,"x_max":808,"o":"m 219 0 l 219 400 q 211 786 219 644 l 215 788 q 389 475 272 660 l 686 0 l 808 0 l 808 936 l 694 936 l 694 544 q 708 160 694 317 l 704 158 q 538 463 646 288 l 239 936 l 106 936 l 106 0 l 219 0 m 357 993 q 393 1054 364 1054 q 458 1028 408 1054 q 543 1001 511 1001 q 636 1136 639 1001 l 572 1136 q 560 1093 569 1104 q 535 1082 551 1082 q 468 1107 513 1082 q 386 1135 415 1135 q 316 1096 342 1135 q 292 993 290 1057 l 357 993 "},"Ò":{"ha":957,"x_min":50,"x_max":906,"o":"m 483 953 q 172 817 293 953 q 50 461 50 682 q 167 117 50 249 q 471 -15 285 -15 q 782 115 658 -15 q 906 478 906 246 q 790 821 906 689 q 483 953 675 953 m 479 854 q 699 740 621 854 q 778 472 778 626 q 697 194 778 306 q 478 83 617 83 q 259 194 340 83 q 178 464 178 306 q 257 741 178 628 q 479 854 336 854 m 276 1151 l 454 990 l 553 990 l 424 1151 l 276 1151 "},"Ó":{"ha":957,"x_min":50,"x_max":906,"o":"m 483 953 q 172 817 293 953 q 50 461 50 682 q 167 117 50 249 q 471 -15 285 -15 q 782 115 658 -15 q 906 478 906 246 q 790 821 906 689 q 483 953 675 953 m 479 854 q 699 740 621 854 q 778 472 778 626 q 697 194 778 306 q 478 83 617 83 q 259 194 340 83 q 178 464 178 306 q 257 741 178 628 q 479 854 336 854 m 533 1151 l 404 989 l 503 989 l 681 1151 l 533 1151 "},"Ô":{"ha":957,"x_min":50,"x_max":906,"o":"m 483 953 q 172 817 293 953 q 50 461 50 682 q 167 117 50 249 q 471 -15 285 -15 q 782 115 658 -15 q 906 478 906 246 q 790 821 906 689 q 483 953 675 953 m 479 854 q 699 740 621 854 q 778 472 778 626 q 697 194 778 306 q 478 83 617 83 q 259 194 340 83 q 178 464 178 306 q 257 741 178 628 q 479 854 336 854 m 429 1149 l 288 990 l 386 990 l 475 1086 l 478 1086 l 565 990 l 668 990 l 522 1149 l 429 1149 "},"Õ":{"ha":957,"x_min":50,"x_max":906,"o":"m 483 953 q 172 817 293 953 q 50 461 50 682 q 167 117 50 249 q 471 -15 285 -15 q 782 115 658 -15 q 906 478 906 246 q 790 821 906 689 q 483 953 675 953 m 479 854 q 699 740 621 854 q 778 472 778 626 q 697 194 778 306 q 478 83 617 83 q 259 194 340 83 q 178 464 178 306 q 257 741 178 628 q 479 854 336 854 m 371 997 q 407 1057 378 1057 q 472 1031 422 1057 q 557 1004 525 1004 q 650 1139 653 1004 l 586 1139 q 574 1096 583 1107 q 549 1085 565 1085 q 482 1110 526 1085 q 400 1138 429 1138 q 330 1099 356 1138 q 306 997 304 1060 l 371 997 "},"Ö":{"ha":957,"x_min":50,"x_max":906,"o":"m 483 953 q 172 817 293 953 q 50 461 50 682 q 167 117 50 249 q 471 -15 285 -15 q 782 115 658 -15 q 906 478 906 246 q 790 821 906 689 q 483 953 675 953 m 479 854 q 699 740 621 854 q 778 472 778 626 q 697 194 778 306 q 478 83 617 83 q 259 194 340 83 q 178 464 178 306 q 257 741 178 628 q 479 854 336 854 m 349 1001 q 398 1022 379 1001 q 417 1072 417 1042 q 398 1122 417 1101 q 350 1142 379 1142 q 301 1122 321 1142 q 282 1072 282 1101 q 301 1022 282 1043 q 349 1001 319 1001 m 606 1001 q 656 1022 638 1001 q 675 1072 675 1042 q 656 1122 675 1101 q 608 1142 638 1142 q 559 1122 579 1142 q 539 1072 539 1101 q 558 1022 539 1043 q 606 1001 576 1001 "},"×":{"ha":828,"x_min":56,"x_max":772,"o":"m 56 669 l 353 365 l 56 61 l 117 0 l 414 304 l 711 0 l 772 61 l 474 365 l 772 669 l 711 731 l 414 426 l 117 731 l 56 669 "},"Ø":{"ha":957,"x_min":50,"x_max":906,"o":"m 156 -60 l 243 60 q 479 -15 346 -15 q 782 114 658 -15 q 906 476 906 243 q 785 821 906 689 l 871 940 l 797 990 l 715 878 q 482 953 615 953 q 172 818 294 953 q 50 464 50 683 q 174 117 50 251 l 88 -4 l 156 -60 m 244 219 l 242 218 q 174 469 174 336 q 254 742 174 628 q 479 856 335 856 q 656 790 579 856 l 244 219 m 713 717 l 717 717 q 782 472 782 608 q 700 194 782 307 q 478 82 618 82 q 303 149 374 82 l 713 717 "},"Ù":{"ha":899,"x_min":104,"x_max":794,"o":"m 104 936 l 104 385 q 195 81 104 178 q 440 -15 286 -15 q 698 84 601 -15 q 794 389 794 183 l 794 936 l 672 936 l 672 381 q 612 157 672 231 q 444 83 551 83 q 286 157 346 83 q 226 381 226 231 l 226 936 l 104 936 m 254 1149 l 432 988 l 531 988 l 401 1149 l 254 1149 "},"Ú":{"ha":899,"x_min":104,"x_max":794,"o":"m 104 936 l 104 385 q 195 81 104 178 q 440 -15 286 -15 q 698 84 601 -15 q 794 389 794 183 l 794 936 l 672 936 l 672 381 q 612 157 672 231 q 444 83 551 83 q 286 157 346 83 q 226 381 226 231 l 226 936 l 104 936 m 510 1149 l 381 986 l 479 986 l 657 1149 l 510 1149 "},"Û":{"ha":899,"x_min":104,"x_max":794,"o":"m 104 936 l 104 385 q 195 81 104 178 q 440 -15 286 -15 q 698 84 601 -15 q 794 389 794 183 l 794 936 l 672 936 l 672 381 q 612 157 672 231 q 444 83 551 83 q 286 157 346 83 q 226 381 226 231 l 226 936 l 104 936 m 410 1144 l 268 986 l 367 986 l 456 1082 l 458 1082 l 546 986 l 649 986 l 503 1144 l 410 1144 "},"Ü":{"ha":899,"x_min":104,"x_max":794,"o":"m 104 936 l 104 385 q 195 81 104 178 q 440 -15 286 -15 q 698 84 601 -15 q 794 389 794 183 l 794 936 l 672 936 l 672 381 q 612 157 672 231 q 444 83 551 83 q 286 157 346 83 q 226 381 226 231 l 226 936 l 104 936 m 322 1001 q 372 1022 353 1001 q 390 1072 390 1042 q 372 1122 390 1101 q 324 1142 353 1142 q 275 1122 294 1142 q 256 1072 256 1101 q 274 1022 256 1043 q 322 1001 293 1001 m 581 1001 q 631 1022 613 1001 q 650 1072 650 1042 q 631 1122 650 1101 q 583 1142 613 1142 q 534 1122 554 1142 q 514 1072 514 1101 q 533 1022 514 1043 q 581 1001 551 1001 "},"Ý":{"ha":751,"x_min":17,"x_max":749,"o":"m 436 0 l 436 399 l 749 936 l 613 936 l 478 678 q 383 485 400 524 l 381 485 q 288 678 364 521 l 156 936 l 17 936 l 314 397 l 314 0 l 436 0 m 444 1142 l 315 979 l 414 979 l 592 1142 l 444 1142 "},"Þ":{"ha":738,"x_min":106,"x_max":682,"o":"m 106 0 l 225 0 l 225 217 q 331 210 274 210 q 585 286 489 210 q 682 507 682 363 q 606 688 682 618 q 358 764 521 764 q 225 754 278 764 l 225 936 l 106 936 l 106 0 m 225 657 q 347 668 269 668 q 503 624 446 668 q 561 493 561 581 q 501 357 561 407 q 329 307 440 307 q 225 315 264 307 l 225 657 "},"ß":{"ha":761,"x_min":101,"x_max":703,"o":"m 224 0 l 224 633 q 265 842 224 778 q 390 906 307 906 q 495 865 456 906 q 535 754 535 825 q 524 694 535 721 q 399 524 399 635 q 426 431 399 471 q 507 339 453 390 q 582 196 582 268 q 546 113 582 146 q 446 79 510 79 q 329 107 385 79 l 307 14 q 454 -15 364 -15 q 635 46 568 -15 q 703 206 703 107 q 684 295 703 253 q 646 360 665 338 q 590 419 626 383 q 551 461 564 447 q 529 497 539 475 q 519 540 519 518 q 618 653 519 611 q 651 767 651 700 q 580 939 651 876 q 404 1001 508 1001 q 201 931 278 1001 q 101 628 101 842 l 101 0 l 224 0 "},"à":{"ha":669,"x_min":49,"x_max":583,"o":"m 574 413 q 516 608 574 531 q 318 686 458 686 q 96 628 189 686 l 124 546 q 300 596 197 596 q 381 581 349 596 q 428 539 414 565 q 448 490 443 513 q 453 442 453 467 l 453 428 q 153 365 258 429 q 49 178 49 300 q 103 42 49 99 q 254 -15 157 -15 q 376 13 322 -15 q 460 85 429 42 l 464 85 l 474 0 l 583 0 q 574 161 574 64 l 574 413 m 456 226 q 450 188 456 206 q 390 108 433 140 q 285 75 347 75 q 203 105 236 75 q 171 192 171 135 q 456 343 171 349 l 456 226 m 132 963 l 301 764 l 388 764 l 265 963 l 132 963 "},"á":{"ha":669,"x_min":49,"x_max":583,"o":"m 574 413 q 516 608 574 531 q 318 686 458 686 q 96 628 189 686 l 124 546 q 300 596 197 596 q 381 581 349 596 q 428 539 414 565 q 448 490 443 513 q 453 442 453 467 l 453 428 q 153 365 258 429 q 49 178 49 300 q 103 42 49 99 q 254 -15 157 -15 q 376 13 322 -15 q 460 85 429 42 l 464 85 l 474 0 l 583 0 q 574 161 574 64 l 574 413 m 456 226 q 450 188 456 206 q 390 108 433 140 q 285 75 347 75 q 203 105 236 75 q 171 192 171 135 q 456 343 171 349 l 456 226 m 382 963 l 261 764 l 347 764 l 517 963 l 382 963 "},"â":{"ha":669,"x_min":49,"x_max":583,"o":"m 574 413 q 516 608 574 531 q 318 686 458 686 q 96 628 189 686 l 124 546 q 300 596 197 596 q 381 581 349 596 q 428 539 414 565 q 448 490 443 513 q 453 442 453 467 l 453 428 q 153 365 258 429 q 49 178 49 300 q 103 42 49 99 q 254 -15 157 -15 q 376 13 322 -15 q 460 85 429 42 l 464 85 l 474 0 l 583 0 q 574 161 574 64 l 574 413 m 456 226 q 450 188 456 206 q 390 108 433 140 q 285 75 347 75 q 203 105 236 75 q 171 192 171 135 q 456 343 171 349 l 456 226 m 285 963 l 154 764 l 246 764 l 326 894 l 329 894 l 410 764 l 503 764 l 369 963 l 285 963 "},"ã":{"ha":669,"x_min":49,"x_max":583,"o":"m 574 413 q 516 608 574 531 q 318 686 458 686 q 96 628 189 686 l 124 546 q 300 596 197 596 q 381 581 349 596 q 428 539 414 565 q 448 490 443 513 q 453 442 453 467 l 453 428 q 153 365 258 429 q 49 178 49 300 q 103 42 49 99 q 254 -15 157 -15 q 376 13 322 -15 q 460 85 429 42 l 464 85 l 474 0 l 583 0 q 574 161 574 64 l 574 413 m 456 226 q 450 188 456 206 q 390 108 433 140 q 285 75 347 75 q 203 105 236 75 q 171 192 171 135 q 456 343 171 349 l 456 226 m 226 788 q 263 850 231 850 q 322 825 281 850 q 408 796 378 796 q 503 936 506 796 l 438 936 q 399 878 433 878 q 340 901 382 878 q 254 932 282 932 q 183 893 208 932 q 160 788 158 854 l 226 788 "},"ä":{"ha":669,"x_min":49,"x_max":583,"o":"m 574 413 q 516 608 574 531 q 318 686 458 686 q 96 628 189 686 l 124 546 q 300 596 197 596 q 381 581 349 596 q 428 539 414 565 q 448 490 443 513 q 453 442 453 467 l 453 428 q 153 365 258 429 q 49 178 49 300 q 103 42 49 99 q 254 -15 157 -15 q 376 13 322 -15 q 460 85 429 42 l 464 85 l 474 0 l 583 0 q 574 161 574 64 l 574 413 m 456 226 q 450 188 456 206 q 390 108 433 140 q 285 75 347 75 q 203 105 236 75 q 171 192 171 135 q 456 343 171 349 l 456 226 m 206 792 q 256 813 236 792 q 275 863 275 833 q 256 913 275 893 q 208 933 236 933 q 158 913 178 933 q 138 863 138 892 q 157 813 138 833 q 206 792 176 792 m 463 792 q 513 813 493 792 q 532 863 532 833 q 513 913 532 893 q 464 933 493 933 q 415 913 435 933 q 394 863 394 892 q 414 813 394 833 q 463 792 433 792 "},"å":{"ha":669,"x_min":49,"x_max":583,"o":"m 574 413 q 516 608 574 531 q 318 686 458 686 q 96 628 189 686 l 124 546 q 300 596 197 596 q 381 581 349 596 q 428 539 414 565 q 448 490 443 513 q 453 442 453 467 l 453 428 q 153 365 258 429 q 49 178 49 300 q 103 42 49 99 q 254 -15 157 -15 q 376 13 322 -15 q 460 85 429 42 l 464 85 l 474 0 l 583 0 q 574 161 574 64 l 574 413 m 456 226 q 450 188 456 206 q 390 108 433 140 q 285 75 347 75 q 203 105 236 75 q 171 192 171 135 q 456 343 171 349 l 456 226 m 333 746 q 433 782 393 746 q 472 872 472 818 q 434 966 472 929 q 335 1003 396 1003 q 232 965 271 1003 q 193 872 193 928 q 233 782 193 818 q 333 746 272 746 m 333 797 q 283 820 303 797 q 264 872 264 843 q 282 928 264 906 q 332 951 300 951 q 384 929 364 951 q 404 874 404 907 q 385 819 404 842 q 333 797 365 797 "},"æ":{"ha":1074,"x_min":50,"x_max":1024,"o":"m 1019 324 q 1024 378 1024 342 q 1010 474 1024 425 q 970 572 997 522 q 888 654 943 622 q 761 686 833 686 q 621 649 682 686 q 526 544 560 611 l 524 544 q 307 686 478 686 q 97 625 192 686 l 126 546 q 299 596 199 596 q 380 578 346 596 q 428 533 414 560 q 449 485 443 507 q 454 447 454 464 l 454 419 q 156 358 261 422 q 50 176 50 294 q 105 41 50 97 q 260 -15 160 -15 q 411 24 346 -15 q 508 133 476 64 l 513 133 q 610 24 542 63 q 768 -15 679 -15 q 989 31 901 -15 l 967 117 q 783 79 886 79 q 625 143 685 79 q 568 324 565 207 l 1019 324 m 457 239 q 450 190 457 215 q 392 107 435 140 q 288 75 350 74 q 204 105 238 75 q 171 186 171 135 q 457 338 171 343 l 457 239 m 568 411 q 619 540 572 481 q 749 600 665 600 q 844 566 806 600 q 895 491 882 532 q 907 411 908 450 l 568 411 "},"ç":{"ha":621,"x_min":53,"x_max":583,"o":"m 560 117 q 410 85 490 85 q 242 153 308 85 q 176 335 176 221 q 240 517 176 444 q 414 589 303 589 q 556 557 494 589 l 583 650 q 414 686 517 686 q 152 585 251 686 q 53 329 53 485 q 129 98 53 190 q 333 -10 206 6 l 275 -117 q 383 -175 382 -128 q 324 -219 383 -219 q 247 -200 279 -219 l 226 -262 q 324 -286 267 -286 q 427 -258 386 -286 q 468 -171 468 -229 q 440 -104 468 -131 q 371 -69 413 -78 l 406 -14 q 581 25 506 -12 l 560 117 "},"è":{"ha":696,"x_min":53,"x_max":646,"o":"m 642 314 q 646 371 646 335 q 633 473 646 422 q 590 574 619 524 q 503 655 561 624 q 368 686 446 686 q 139 583 225 686 q 53 325 53 481 q 142 78 53 171 q 383 -15 231 -15 q 608 28 513 -15 l 586 115 q 400 81 507 81 q 235 138 300 81 q 169 314 171 196 l 642 314 m 171 401 q 226 538 179 478 q 358 599 274 599 q 490 537 450 599 q 528 401 529 475 l 171 401 m 188 963 l 357 764 l 443 764 l 321 963 l 188 963 "},"é":{"ha":696,"x_min":53,"x_max":646,"o":"m 642 314 q 646 371 646 335 q 633 473 646 422 q 590 574 619 524 q 503 655 561 624 q 368 686 446 686 q 139 583 225 686 q 53 325 53 481 q 142 78 53 171 q 383 -15 231 -15 q 608 28 513 -15 l 586 115 q 400 81 507 81 q 235 138 300 81 q 169 314 171 196 l 642 314 m 171 401 q 226 538 179 478 q 358 599 274 599 q 490 537 450 599 q 528 401 529 475 l 171 401 m 422 963 l 300 764 l 386 764 l 556 963 l 422 963 "},"ê":{"ha":696,"x_min":53,"x_max":646,"o":"m 642 314 q 646 371 646 335 q 633 473 646 422 q 590 574 619 524 q 503 655 561 624 q 368 686 446 686 q 139 583 225 686 q 53 325 53 481 q 142 78 53 171 q 383 -15 231 -15 q 608 28 513 -15 l 586 115 q 400 81 507 81 q 235 138 300 81 q 169 314 171 196 l 642 314 m 171 401 q 226 538 179 478 q 358 599 274 599 q 490 537 450 599 q 528 401 529 475 l 171 401 m 321 963 l 190 764 l 282 764 l 363 894 l 365 894 l 446 764 l 539 764 l 406 963 l 321 963 "},"ë":{"ha":696,"x_min":53,"x_max":646,"o":"m 642 314 q 646 371 646 335 q 633 473 646 422 q 590 574 619 524 q 503 655 561 624 q 368 686 446 686 q 139 583 225 686 q 53 325 53 481 q 142 78 53 171 q 383 -15 231 -15 q 608 28 513 -15 l 586 115 q 400 81 507 81 q 235 138 300 81 q 169 314 171 196 l 642 314 m 171 401 q 226 538 179 478 q 358 599 274 599 q 490 537 450 599 q 528 401 529 475 l 171 401 m 243 792 q 293 813 274 792 q 313 863 313 833 q 293 913 313 893 q 246 933 274 933 q 195 913 215 933 q 175 863 175 892 q 194 813 175 833 q 243 792 214 792 m 500 792 q 550 813 531 792 q 569 863 569 833 q 550 913 569 893 q 501 933 531 933 q 452 913 472 933 q 432 863 432 892 q 451 813 432 833 q 500 792 471 792 "},"ì":{"ha":325,"x_min":-37,"x_max":224,"o":"m 224 0 l 224 672 l 101 672 l 101 0 l 224 0 m -37 963 l 132 764 l 218 764 l 96 963 l -37 963 "},"í":{"ha":325,"x_min":94,"x_max":350,"o":"m 224 0 l 224 672 l 101 672 l 101 0 l 224 0 m 217 963 l 94 764 l 181 764 l 350 963 l 217 963 "},"î":{"ha":325,"x_min":-11,"x_max":338,"o":"m 224 0 l 224 672 l 101 672 l 101 0 l 224 0 m 119 963 l -11 764 l 81 764 l 161 894 l 164 894 l 244 764 l 338 764 l 204 963 l 119 963 "},"ï":{"ha":325,"x_min":-35,"x_max":360,"o":"m 224 0 l 224 672 l 101 672 l 101 0 l 224 0 m 33 792 q 83 813 64 792 q 103 863 103 833 q 83 913 103 893 q 36 933 64 933 q -15 913 6 933 q -35 863 -35 892 q -15 813 -35 833 q 33 792 4 792 m 290 792 q 340 813 321 792 q 360 863 360 833 q 340 913 360 893 q 292 933 321 933 q 242 913 263 933 q 222 863 222 892 q 242 813 222 833 q 290 792 261 792 "},"ð":{"ha":751,"x_min":53,"x_max":696,"o":"m 372 76 q 233 149 289 76 q 178 329 178 222 q 228 508 178 428 q 376 589 278 589 q 524 524 467 589 q 571 338 571 465 q 517 149 571 222 q 372 76 463 76 m 161 704 l 358 796 q 522 617 460 718 l 519 613 q 363 672 454 672 q 144 577 236 671 q 53 328 53 483 q 142 78 53 172 q 371 -15 232 -15 q 490 6 433 -15 q 593 70 546 28 q 668 185 640 113 q 696 350 696 257 q 636 621 696 501 q 460 842 575 747 l 607 911 l 576 972 l 400 888 q 206 1000 307 956 l 151 924 q 296 840 239 883 l 135 764 l 161 704 "},"ñ":{"ha":771,"x_min":96,"x_max":674,"o":"m 101 0 l 224 0 l 224 404 q 232 461 224 439 q 294 550 250 514 q 396 586 339 586 q 514 531 476 586 q 551 388 551 476 l 551 0 l 674 0 l 674 400 q 650 541 674 482 q 589 630 626 600 q 513 673 551 660 q 436 686 475 686 q 300 650 358 686 q 214 561 242 614 l 211 561 l 204 672 l 96 672 q 101 490 101 599 l 101 0 m 282 788 q 318 850 286 850 q 378 825 332 850 q 463 796 431 796 q 557 936 560 796 l 492 936 q 454 878 488 878 q 396 901 438 878 q 310 932 338 932 q 239 893 264 932 q 215 788 214 854 l 282 788 "},"ò":{"ha":763,"x_min":53,"x_max":710,"o":"m 386 686 q 148 590 243 686 q 53 331 53 493 q 144 80 53 175 q 375 -15 236 -15 q 610 76 510 -15 q 710 342 710 168 q 620 590 710 494 q 386 686 531 686 m 534 515 q 585 338 585 436 q 526 151 585 225 q 381 76 468 76 q 235 150 292 76 q 178 335 178 224 q 231 517 178 440 q 383 594 283 594 q 509 555 483 594 q 534 515 534 515 m 201 963 l 371 764 l 457 764 l 335 963 l 201 963 "},"ó":{"ha":763,"x_min":53,"x_max":710,"o":"m 386 686 q 148 590 243 686 q 53 331 53 493 q 144 80 53 175 q 375 -15 236 -15 q 610 76 510 -15 q 710 342 710 168 q 620 590 710 494 q 386 686 531 686 m 534 515 q 585 338 585 436 q 526 151 585 225 q 381 76 468 76 q 235 150 292 76 q 178 335 178 224 q 231 517 178 440 q 383 594 283 594 q 509 555 483 594 q 534 515 534 515 m 429 963 l 308 764 l 394 764 l 564 963 l 429 963 "},"ô":{"ha":763,"x_min":53,"x_max":710,"o":"m 386 686 q 148 590 243 686 q 53 331 53 493 q 144 80 53 175 q 375 -15 236 -15 q 610 76 510 -15 q 710 342 710 168 q 620 590 710 494 q 386 686 531 686 m 534 515 q 585 338 585 436 q 526 151 585 225 q 381 76 468 76 q 235 150 292 76 q 178 335 178 224 q 231 517 178 440 q 383 594 283 594 q 509 555 483 594 q 534 515 534 515 m 338 963 l 207 764 l 299 764 l 378 894 l 381 894 l 463 764 l 556 764 l 422 963 l 338 963 "},"õ":{"ha":763,"x_min":53,"x_max":710,"o":"m 386 686 q 148 590 243 686 q 53 331 53 493 q 144 80 53 175 q 375 -15 236 -15 q 610 76 510 -15 q 710 342 710 168 q 620 590 710 494 q 386 686 531 686 m 534 515 q 585 338 585 436 q 526 151 585 225 q 381 76 468 76 q 235 150 292 76 q 178 335 178 224 q 231 517 178 440 q 383 594 283 594 q 509 555 483 594 q 534 515 534 515 m 276 788 q 313 850 281 850 q 372 825 331 850 q 458 796 428 796 q 553 936 556 796 l 488 936 q 450 878 483 878 q 392 901 433 878 q 304 932 331 932 q 233 893 258 932 q 210 788 208 854 l 276 788 "},"ö":{"ha":763,"x_min":53,"x_max":710,"o":"m 386 686 q 148 590 243 686 q 53 331 53 493 q 144 80 53 175 q 375 -15 236 -15 q 610 76 510 -15 q 710 342 710 168 q 620 590 710 494 q 386 686 531 686 m 534 515 q 585 338 585 436 q 526 151 585 225 q 381 76 468 76 q 235 150 292 76 q 178 335 178 224 q 231 517 178 440 q 383 594 283 594 q 509 555 483 594 q 534 515 534 515 m 251 792 q 301 813 282 792 q 321 863 321 833 q 301 913 321 893 q 254 933 282 933 q 203 913 224 933 q 183 863 183 892 q 203 813 183 833 q 251 792 222 792 m 508 792 q 558 813 539 792 q 578 863 578 833 q 558 913 578 893 q 510 933 539 933 q 460 913 481 933 q 440 863 440 892 q 460 813 440 833 q 508 792 479 792 "},"÷":{"ha":828,"x_min":56,"x_max":772,"o":"m 413 538 q 467 559 446 538 q 488 614 488 581 q 467 670 488 649 q 414 692 447 692 q 361 670 382 692 q 340 614 340 649 q 360 559 340 581 q 413 538 381 538 m 772 329 l 772 413 l 56 413 l 56 329 l 772 329 m 413 50 q 467 72 446 50 q 488 126 488 93 q 467 183 488 161 q 414 204 447 204 q 361 183 382 204 q 340 126 340 161 q 360 72 340 93 q 413 50 381 50 "},"ø":{"ha":763,"x_min":53,"x_max":710,"o":"m 385 686 q 147 590 242 686 q 53 332 53 494 q 157 72 53 172 l 99 -11 l 150 -53 l 211 32 q 382 -15 283 -15 q 611 76 513 -15 q 710 340 710 168 q 607 597 710 499 l 667 685 l 613 722 l 554 639 q 385 686 481 686 m 224 165 l 221 167 q 172 335 172 235 q 225 516 172 438 q 381 594 278 594 q 499 554 451 594 l 224 165 m 540 501 l 543 501 q 590 336 590 431 q 531 149 590 222 q 378 76 472 76 q 265 115 313 76 l 540 501 "},"ù":{"ha":765,"x_min":97,"x_max":669,"o":"m 664 672 l 542 672 l 542 261 q 531 199 542 225 q 469 119 513 153 q 369 86 426 86 q 219 301 219 86 l 219 672 l 97 672 l 97 279 q 118 135 97 196 q 174 44 139 75 q 248 -1 210 13 q 329 -15 286 -15 q 467 22 410 -15 q 551 110 524 60 l 554 110 l 561 0 l 669 0 q 664 185 664 71 l 664 672 m 194 963 l 364 764 l 450 764 l 328 963 l 194 963 "},"ú":{"ha":765,"x_min":97,"x_max":669,"o":"m 664 672 l 542 672 l 542 261 q 531 199 542 225 q 469 119 513 153 q 369 86 426 86 q 219 301 219 86 l 219 672 l 97 672 l 97 279 q 118 135 97 196 q 174 44 139 75 q 248 -1 210 13 q 329 -15 286 -15 q 467 22 410 -15 q 551 110 524 60 l 554 110 l 561 0 l 669 0 q 664 185 664 71 l 664 672 m 446 963 l 324 764 l 410 764 l 579 963 l 446 963 "},"û":{"ha":765,"x_min":97,"x_max":669,"o":"m 664 672 l 542 672 l 542 261 q 531 199 542 225 q 469 119 513 153 q 369 86 426 86 q 219 301 219 86 l 219 672 l 97 672 l 97 279 q 118 135 97 196 q 174 44 139 75 q 248 -1 210 13 q 329 -15 286 -15 q 467 22 410 -15 q 551 110 524 60 l 554 110 l 561 0 l 669 0 q 664 185 664 71 l 664 672 m 339 963 l 208 764 l 300 764 l 381 894 l 383 894 l 464 764 l 557 764 l 424 963 l 339 963 "},"ü":{"ha":765,"x_min":97,"x_max":669,"o":"m 664 672 l 542 672 l 542 261 q 531 199 542 225 q 469 119 513 153 q 369 86 426 86 q 219 301 219 86 l 219 672 l 97 672 l 97 279 q 118 135 97 196 q 174 44 139 75 q 248 -1 210 13 q 329 -15 286 -15 q 467 22 410 -15 q 551 110 524 60 l 554 110 l 561 0 l 669 0 q 664 185 664 71 l 664 672 m 257 792 q 307 813 288 792 q 326 863 326 833 q 307 913 326 893 q 260 933 288 933 q 209 913 229 933 q 189 863 189 892 q 208 813 189 833 q 257 792 228 792 m 514 792 q 564 813 544 792 q 583 863 583 833 q 564 913 583 893 q 515 933 544 933 q 466 913 486 933 q 446 863 446 892 q 465 813 446 833 q 514 792 485 792 "},"ý":{"ha":654,"x_min":13,"x_max":644,"o":"m 13 672 l 260 53 q 269 21 269 32 q 260 -8 269 14 q 157 -144 219 -96 q 50 -204 108 -186 l 81 -306 q 231 -228 154 -292 q 342 -79 292 -174 q 461 193 393 15 l 644 672 l 515 672 l 382 278 q 356 195 372 249 q 339 138 340 142 l 336 138 q 292 275 317 210 l 146 672 l 13 672 m 396 963 l 275 764 l 361 764 l 531 963 l 396 963 "},"þ":{"ha":790,"x_min":101,"x_max":739,"o":"m 101 929 l 101 -275 l 222 -275 l 222 90 l 225 90 q 432 -15 293 -15 q 648 78 557 -15 q 739 344 739 171 q 657 592 739 497 q 454 686 575 688 q 225 565 300 686 l 222 565 l 222 929 l 101 929 m 222 389 q 236 457 222 418 q 307 553 257 517 q 417 589 357 589 q 562 517 508 589 q 615 342 615 446 q 560 151 615 222 q 414 81 506 81 q 304 114 353 81 q 235 204 256 147 q 222 265 222 229 l 222 389 "},"ÿ":{"ha":654,"x_min":13,"x_max":644,"o":"m 13 672 l 260 53 q 269 21 269 32 q 260 -8 269 14 q 157 -144 219 -96 q 50 -204 108 -186 l 81 -306 q 231 -228 154 -292 q 342 -79 292 -174 q 461 193 393 15 l 644 672 l 515 672 l 382 278 q 356 195 372 249 q 339 138 340 142 l 336 138 q 292 275 317 210 l 146 672 l 13 672 m 214 792 q 264 813 244 792 q 283 863 283 833 q 264 913 283 893 q 217 933 244 933 q 166 913 186 933 q 146 863 146 892 q 165 813 146 833 q 214 792 185 792 m 471 792 q 521 813 501 792 q 540 863 540 833 q 521 913 540 893 q 472 933 501 933 q 423 913 443 933 q 403 863 403 892 q 422 813 403 833 q 471 792 442 792 "},"Ā":{"ha":850,"x_min":35,"x_max":818,"o":"m 589 294 l 689 0 l 818 0 l 499 936 l 354 936 l 35 0 l 160 0 l 257 294 l 589 294 m 282 389 l 374 660 q 421 829 389 704 l 424 829 q 472 658 453 715 l 565 389 l 282 389 m 257 1094 l 257 1018 l 590 1018 l 590 1094 l 257 1094 "},"ā":{"ha":669,"x_min":49,"x_max":583,"o":"m 574 413 q 516 608 574 531 q 318 686 458 686 q 96 628 189 686 l 124 546 q 300 596 197 596 q 381 581 349 596 q 428 539 414 565 q 448 490 443 513 q 453 442 453 467 l 453 428 q 153 365 258 429 q 49 178 49 300 q 103 42 49 99 q 254 -15 157 -15 q 376 13 322 -15 q 460 85 429 42 l 464 85 l 474 0 l 583 0 q 574 161 574 64 l 574 413 m 456 226 q 450 188 456 206 q 390 108 433 140 q 285 75 347 75 q 203 105 236 75 q 171 192 171 135 q 456 343 171 349 l 456 226 m 179 893 l 179 814 l 492 814 l 492 893 l 179 893 "},"Ă":{"ha":850,"x_min":35,"x_max":818,"o":"m 589 294 l 689 0 l 818 0 l 499 936 l 354 936 l 35 0 l 160 0 l 257 294 l 589 294 m 282 389 l 374 660 q 421 829 389 704 l 424 829 q 472 658 453 715 l 565 389 l 282 389 m 251 1135 q 296 1028 254 1068 q 422 988 338 988 q 550 1028 507 988 q 596 1135 593 1069 l 525 1135 q 424 1067 513 1067 q 324 1135 339 1067 l 251 1135 "},"ă":{"ha":669,"x_min":49,"x_max":583,"o":"m 574 413 q 516 608 574 531 q 318 686 458 686 q 96 628 189 686 l 124 546 q 300 596 197 596 q 381 581 349 596 q 428 539 414 565 q 448 490 443 513 q 453 442 453 467 l 453 428 q 153 365 258 429 q 49 178 49 300 q 103 42 49 99 q 254 -15 157 -15 q 376 13 322 -15 q 460 85 429 42 l 464 85 l 474 0 l 583 0 q 574 161 574 64 l 574 413 m 456 226 q 450 188 456 206 q 390 108 433 140 q 285 75 347 75 q 203 105 236 75 q 171 192 171 135 q 456 343 171 349 l 456 226 m 163 947 q 206 824 163 875 q 335 774 249 774 q 460 822 413 774 q 507 947 507 869 l 435 947 q 406 879 431 907 q 333 851 381 851 q 267 878 293 851 q 235 947 242 904 l 163 947 "},"Ą":{"ha":850,"x_min":35,"x_max":847,"o":"m 499 936 l 354 936 l 35 0 l 161 0 l 257 294 l 589 294 l 688 6 q 606 -165 606 -90 q 641 -255 606 -224 q 736 -286 676 -286 q 847 -253 803 -286 l 828 -190 q 765 -204 800 -204 q 715 -185 735 -204 q 694 -132 694 -165 q 768 -3 694 -76 l 819 0 l 499 936 m 282 389 l 374 660 q 421 829 389 704 l 424 829 q 472 658 453 715 l 565 389 l 282 389 "},"ą":{"ha":669,"x_min":49,"x_max":646,"o":"m 574 413 q 516 608 574 531 q 318 686 458 686 q 96 628 189 686 l 124 546 q 300 596 197 596 q 381 581 349 596 q 428 539 414 565 q 448 490 443 513 q 453 442 453 467 l 453 428 q 153 365 258 429 q 49 178 49 300 q 103 42 49 99 q 254 -15 157 -15 q 376 13 322 -15 q 460 85 429 42 l 464 85 l 474 4 q 407 -168 407 -94 q 442 -255 407 -224 q 531 -286 476 -286 q 646 -253 599 -286 l 626 -189 q 563 -203 596 -203 q 496 -133 496 -203 q 550 0 496 -72 l 585 0 q 574 161 574 60 l 574 413 m 456 226 q 450 188 456 204 q 390 108 433 140 q 285 75 347 75 q 203 105 236 75 q 171 192 171 135 q 456 343 171 349 l 456 226 "},"Ć":{"ha":806,"x_min":50,"x_max":761,"o":"m 735 126 q 536 88 654 88 q 273 189 368 88 q 178 464 178 290 q 277 748 178 646 q 543 850 376 850 q 731 811 653 850 l 761 910 q 539 951 682 951 q 185 816 321 951 q 50 460 50 681 q 178 110 50 235 q 511 -15 307 -15 q 758 29 672 -15 l 735 126 m 556 1151 l 426 989 l 525 989 l 703 1151 l 556 1151 "},"ć":{"ha":622,"x_min":53,"x_max":583,"o":"m 560 115 q 410 83 488 83 q 242 151 308 83 q 176 335 176 219 q 240 516 176 443 q 414 589 303 589 q 556 557 494 589 l 583 650 q 414 686 517 686 q 152 585 251 686 q 53 328 53 485 q 144 79 53 174 q 388 -15 236 -15 q 581 24 499 -15 l 560 115 m 419 963 l 297 764 l 383 764 l 553 963 l 419 963 "},"Ĉ":{"ha":806,"x_min":50,"x_max":761,"o":"m 735 126 q 536 88 654 88 q 273 189 368 88 q 178 464 178 290 q 277 748 178 646 q 543 850 376 850 q 731 811 653 850 l 761 910 q 539 951 682 951 q 185 816 321 951 q 50 460 50 681 q 178 110 50 235 q 511 -15 307 -15 q 758 29 672 -15 l 735 126 m 436 1150 l 294 992 l 393 992 l 482 1088 l 485 1088 l 572 992 l 675 992 l 529 1150 l 436 1150 "},"ĉ":{"ha":622,"x_min":53,"x_max":583,"o":"m 560 115 q 410 83 488 83 q 242 151 308 83 q 176 335 176 219 q 240 516 176 443 q 414 589 303 589 q 556 557 494 589 l 583 650 q 414 686 517 686 q 152 585 251 686 q 53 328 53 485 q 144 79 53 174 q 388 -15 236 -15 q 581 24 499 -15 l 560 115 m 318 963 l 188 764 l 279 764 l 358 894 l 361 894 l 443 764 l 536 764 l 403 963 l 318 963 "},"Ċ":{"ha":806,"x_min":50,"x_max":761,"o":"m 735 126 q 536 88 654 88 q 273 189 368 88 q 178 464 178 290 q 277 748 178 646 q 543 850 376 850 q 731 811 653 850 l 761 910 q 539 951 682 951 q 185 816 321 951 q 50 460 50 681 q 178 110 50 235 q 511 -15 307 -15 q 758 29 672 -15 l 735 126 m 532 1019 q 551 1069 551 1040 q 532 1118 551 1097 q 485 1139 513 1139 q 435 1118 456 1139 q 415 1069 415 1097 q 435 1019 415 1040 q 483 999 454 999 q 522 1009 513 999 q 532 1019 532 1019 "},"ċ":{"ha":622,"x_min":53,"x_max":583,"o":"m 560 115 q 410 83 488 83 q 242 151 308 83 q 176 335 176 219 q 240 516 176 443 q 414 589 303 589 q 556 557 494 589 l 583 650 q 414 686 517 686 q 152 585 251 686 q 53 328 53 485 q 144 79 53 174 q 388 -15 236 -15 q 581 24 499 -15 l 560 115 m 367 792 q 417 813 397 792 q 436 863 436 833 q 417 914 436 893 q 368 935 397 935 q 318 914 339 935 q 297 863 297 893 q 317 813 297 833 q 367 792 338 792 "},"Č":{"ha":806,"x_min":50,"x_max":761,"o":"m 735 126 q 536 88 654 88 q 273 189 368 88 q 178 464 178 290 q 277 748 178 646 q 543 850 376 850 q 731 811 653 850 l 761 910 q 539 951 682 951 q 185 816 321 951 q 50 460 50 681 q 178 110 50 235 q 511 -15 307 -15 q 758 29 672 -15 l 735 126 m 538 990 l 679 1149 l 581 1149 l 493 1053 l 490 1053 l 401 1149 l 299 1149 l 444 990 l 538 990 "},"č":{"ha":622,"x_min":53,"x_max":583,"o":"m 560 115 q 410 83 488 83 q 242 151 308 83 q 176 335 176 219 q 240 516 176 443 q 414 589 303 589 q 556 557 494 589 l 583 650 q 414 686 517 686 q 152 585 251 686 q 53 328 53 485 q 144 79 53 174 q 388 -15 236 -15 q 581 24 499 -15 l 560 115 m 408 764 l 539 963 l 447 963 l 365 831 l 363 831 l 281 963 l 188 963 l 321 764 l 408 764 "},"Ď":{"ha":925,"x_min":106,"x_max":875,"o":"m 106 3 q 325 -8 203 -8 q 740 126 603 -8 q 875 490 875 261 q 742 826 875 706 q 363 943 614 943 q 106 922 228 943 l 106 3 m 226 835 q 368 847 283 847 q 652 751 556 847 q 747 486 749 656 q 644 192 747 296 q 349 89 542 89 q 226 94 267 89 l 226 835 m 475 989 l 617 1147 l 518 1147 l 431 1051 l 428 1051 l 339 1147 l 236 1147 l 382 989 l 475 989 "},"ď":{"ha":797,"x_min":53,"x_max":888,"o":"m 560 986 l 560 585 l 557 585 q 480 657 532 628 q 354 686 428 686 q 140 588 228 686 q 53 326 51 489 q 135 80 53 175 q 342 -15 218 -15 q 481 22 421 -15 q 568 117 540 58 l 572 117 l 578 0 l 686 0 q 681 174 681 92 l 681 986 l 560 986 m 560 282 q 554 229 560 251 q 488 123 538 163 q 375 83 438 83 q 228 154 281 83 q 176 332 176 225 q 231 517 176 444 q 378 590 285 590 q 492 550 444 590 q 554 450 540 510 q 560 399 560 429 l 560 282 m 794 724 q 888 897 888 799 q 872 958 888 931 q 838 999 857 986 l 750 979 q 793 889 793 942 q 743 765 793 822 l 794 724 "},"Đ":{"ha":932,"x_min":-1,"x_max":881,"o":"m -1 426 l 113 426 l 113 0 q 332 -10 219 -10 q 746 125 608 -10 q 881 490 881 263 q 747 831 881 713 q 369 947 624 947 q 113 926 235 947 l 113 524 l -1 524 l -1 426 m 483 524 l 233 524 l 233 839 q 375 851 290 851 q 658 756 563 851 q 753 489 754 661 q 651 191 753 294 q 354 88 549 88 q 233 93 274 88 l 233 426 l 483 426 l 483 524 "},"đ":{"ha":783,"x_min":53,"x_max":789,"o":"m 789 767 l 789 843 l 681 843 l 681 986 l 560 986 l 560 843 l 286 843 l 286 767 l 560 767 l 560 585 l 557 585 q 480 657 532 628 q 354 686 428 686 q 140 588 228 686 q 53 326 51 489 q 135 80 53 175 q 342 -15 218 -15 q 481 22 421 -15 q 568 117 540 58 l 572 117 l 578 0 l 686 0 q 681 174 681 92 l 681 767 l 789 767 m 560 282 q 554 229 560 251 q 488 123 538 163 q 375 83 438 83 q 228 154 281 83 q 176 332 176 225 q 231 517 176 444 q 378 590 285 590 q 492 550 444 590 q 554 450 540 510 q 560 399 560 429 l 560 282 "},"Ē":{"ha":683,"x_min":104,"x_max":632,"o":"m 589 539 l 226 539 l 226 835 l 611 835 l 611 936 l 104 936 l 104 0 l 632 0 l 632 101 l 226 101 l 226 439 l 589 439 l 589 539 m 193 1094 l 193 1018 l 526 1018 l 526 1094 l 193 1094 "},"ē":{"ha":696,"x_min":53,"x_max":646,"o":"m 642 314 q 646 371 646 335 q 633 473 646 422 q 590 574 619 524 q 503 655 561 624 q 368 686 446 686 q 139 583 225 686 q 53 325 53 481 q 142 78 53 171 q 383 -15 231 -15 q 608 28 513 -15 l 586 115 q 400 81 507 81 q 235 138 300 81 q 169 314 171 196 l 642 314 m 171 401 q 226 538 179 478 q 358 599 274 599 q 490 537 450 599 q 528 401 529 475 l 171 401 m 196 893 l 196 814 l 508 814 l 508 893 l 196 893 "},"Ĕ":{"ha":683,"x_min":104,"x_max":632,"o":"m 589 539 l 226 539 l 226 835 l 611 835 l 611 936 l 104 936 l 104 0 l 632 0 l 632 101 l 226 101 l 226 439 l 589 439 l 589 539 m 181 1146 q 225 1039 183 1079 q 351 999 267 999 q 479 1040 436 999 q 525 1146 522 1081 l 454 1146 q 353 1078 442 1078 q 253 1146 268 1078 l 181 1146 "},"ĕ":{"ha":696,"x_min":53,"x_max":646,"o":"m 642 314 q 646 371 646 335 q 633 473 646 422 q 590 574 619 524 q 503 655 561 624 q 368 686 446 686 q 139 583 225 686 q 53 325 53 481 q 142 78 53 171 q 383 -15 231 -15 q 608 28 513 -15 l 586 115 q 400 81 507 81 q 235 138 300 81 q 169 314 171 196 l 642 314 m 171 401 q 226 538 179 478 q 358 599 274 599 q 490 537 450 599 q 528 401 529 475 l 171 401 m 179 947 q 222 824 179 875 q 351 774 265 774 q 476 822 429 774 q 524 947 524 869 l 451 947 q 422 879 447 907 q 350 851 397 851 q 284 878 310 851 q 251 947 258 904 l 179 947 "},"Ė":{"ha":683,"x_min":104,"x_max":632,"o":"m 589 539 l 226 539 l 226 835 l 611 835 l 611 936 l 104 936 l 104 0 l 632 0 l 632 101 l 226 101 l 226 439 l 589 439 l 589 539 m 396 1022 q 415 1072 415 1043 q 396 1121 415 1100 q 349 1142 376 1142 q 299 1121 319 1142 q 279 1072 279 1100 q 299 1022 279 1043 q 347 1001 318 1001 q 386 1012 376 1001 q 396 1022 396 1022 "},"ė":{"ha":696,"x_min":53,"x_max":646,"o":"m 642 314 q 646 371 646 335 q 633 473 646 422 q 590 574 619 524 q 503 655 561 624 q 368 686 446 686 q 139 583 225 686 q 53 325 53 481 q 142 78 53 171 q 383 -15 231 -15 q 608 28 513 -15 l 586 115 q 400 81 507 81 q 235 138 300 81 q 169 314 171 196 l 642 314 m 171 401 q 226 538 179 478 q 358 599 274 599 q 490 537 450 599 q 528 401 529 475 l 171 401 m 353 792 q 403 813 383 792 q 422 863 422 833 q 403 914 422 893 q 354 935 383 935 q 304 914 325 935 q 283 863 283 893 q 303 813 283 833 q 353 792 324 792 "},"Ę":{"ha":683,"x_min":104,"x_max":639,"o":"m 619 -192 q 558 -203 592 -203 q 513 -188 531 -203 q 496 -147 496 -174 q 529 -71 496 -111 q 610 -1 563 -31 q 622 -1 614 -1 q 632 0 629 0 l 632 101 l 226 101 l 226 439 l 589 439 l 589 539 l 226 539 l 226 835 l 611 835 l 611 936 l 104 936 l 104 0 l 511 0 q 433 -76 467 -29 q 399 -174 399 -122 q 433 -257 399 -228 q 526 -286 467 -286 q 639 -257 592 -286 l 619 -192 "},"ę":{"ha":696,"x_min":53,"x_max":646,"o":"m 535 -189 q 469 -203 507 -203 q 429 -187 446 -203 q 413 -144 413 -172 q 456 -60 413 -104 q 544 4 499 -15 q 607 28 606 26 l 586 115 q 400 81 504 81 q 235 138 300 81 q 169 314 171 196 l 642 314 q 646 371 646 333 q 633 473 646 422 q 590 574 619 524 q 503 655 561 624 q 368 686 446 686 q 139 583 225 686 q 53 325 53 481 q 141 79 53 172 q 381 -15 229 -14 q 400 -15 388 -15 q 418 -14 413 -14 l 418 -15 q 349 -85 379 -42 q 318 -176 318 -129 q 351 -256 318 -228 q 442 -285 385 -285 q 554 -251 508 -285 l 535 -189 m 172 401 q 228 538 181 478 q 360 599 275 599 q 443 579 408 599 q 496 528 478 560 q 521 465 514 497 q 528 401 528 433 l 172 401 "},"Ě":{"ha":683,"x_min":104,"x_max":632,"o":"m 589 539 l 226 539 l 226 835 l 611 835 l 611 936 l 104 936 l 104 0 l 632 0 l 632 101 l 226 101 l 226 439 l 589 439 l 589 539 m 404 986 l 546 1144 l 447 1144 l 360 1049 l 357 1049 l 268 1144 l 165 1144 l 311 986 l 404 986 "},"ě":{"ha":696,"x_min":53,"x_max":646,"o":"m 642 314 q 646 371 646 335 q 633 473 646 422 q 590 574 619 524 q 503 655 561 624 q 368 686 446 686 q 139 583 225 686 q 53 325 53 481 q 142 78 53 171 q 383 -15 231 -15 q 608 28 513 -15 l 586 115 q 400 81 507 81 q 235 138 300 81 q 169 314 171 196 l 642 314 m 171 401 q 226 538 179 478 q 358 599 274 599 q 490 537 450 599 q 528 401 529 475 l 171 401 m 396 764 l 526 963 l 435 963 l 353 831 l 350 831 l 268 963 l 175 963 l 308 764 l 396 764 "},"Ĝ":{"ha":897,"x_min":50,"x_max":819,"o":"m 819 492 l 511 492 l 511 394 l 700 394 l 700 115 q 539 90 650 90 q 276 191 374 90 q 178 468 178 292 q 280 744 178 643 q 554 844 382 844 q 761 804 676 844 l 792 903 q 557 946 703 946 q 188 810 325 946 q 50 463 50 675 q 181 114 50 240 q 531 -10 310 -10 q 819 42 686 -10 l 819 492 m 453 1149 l 311 990 l 410 990 l 499 1086 l 501 1086 l 589 990 l 692 990 l 546 1149 l 453 1149 "},"ĝ":{"ha":776,"x_min":53,"x_max":682,"o":"m 676 489 q 682 672 676 610 l 574 672 l 569 571 l 567 571 q 357 686 503 686 q 143 590 233 686 q 53 331 53 493 q 134 97 53 190 q 339 3 215 3 q 469 34 414 3 q 553 115 524 65 l 556 115 l 556 42 q 497 -137 556 -81 q 339 -194 439 -194 q 142 -140 224 -194 l 111 -235 q 335 -290 194 -290 q 581 -210 490 -290 q 676 99 676 -119 l 676 489 m 554 286 q 544 221 554 250 q 480 129 526 163 q 375 96 433 96 q 228 165 281 96 q 176 338 176 233 q 232 522 176 453 q 376 592 288 592 q 485 555 442 592 q 547 461 529 518 q 554 407 554 442 l 554 286 m 344 967 l 214 768 l 306 768 l 386 899 l 389 899 l 469 768 l 563 768 l 429 967 l 344 967 "},"Ğ":{"ha":897,"x_min":50,"x_max":819,"o":"m 819 492 l 511 492 l 511 394 l 700 394 l 700 115 q 539 90 650 90 q 276 191 374 90 q 178 468 178 292 q 280 744 178 643 q 554 844 382 844 q 761 804 676 844 l 792 903 q 557 946 703 946 q 188 810 325 946 q 50 463 50 675 q 181 114 50 240 q 531 -10 310 -10 q 819 42 686 -10 l 819 492 m 321 1149 q 365 1042 324 1082 q 490 1001 407 1001 q 618 1042 575 1001 q 664 1149 661 1083 l 593 1149 q 493 1081 581 1081 q 393 1149 408 1081 l 321 1149 "},"ğ":{"ha":776,"x_min":53,"x_max":682,"o":"m 676 489 q 682 672 676 610 l 574 672 l 569 571 l 567 571 q 357 686 503 686 q 143 590 233 686 q 53 331 53 493 q 134 97 53 190 q 339 3 215 3 q 469 34 414 3 q 553 115 524 65 l 556 115 l 556 42 q 497 -137 556 -81 q 339 -194 439 -194 q 142 -140 224 -194 l 111 -235 q 335 -290 194 -290 q 581 -210 490 -290 q 676 99 676 -119 l 676 489 m 554 286 q 544 221 554 250 q 480 129 526 163 q 375 96 433 96 q 228 165 281 96 q 176 338 176 233 q 232 522 176 453 q 376 592 288 592 q 485 555 442 592 q 547 461 529 518 q 554 407 554 442 l 554 286 m 206 947 q 249 824 206 875 q 378 774 292 774 q 503 822 456 774 q 550 947 550 869 l 478 947 q 449 879 474 907 q 376 851 424 851 q 310 878 336 851 q 278 947 285 904 l 206 947 "},"Ġ":{"ha":897,"x_min":50,"x_max":819,"o":"m 819 492 l 511 492 l 511 394 l 700 394 l 700 115 q 539 90 650 90 q 276 191 374 90 q 178 468 178 292 q 280 744 178 643 q 554 844 382 844 q 761 804 676 844 l 792 903 q 557 946 703 946 q 188 810 325 946 q 50 463 50 675 q 181 114 50 240 q 531 -10 310 -10 q 819 42 686 -10 l 819 492 m 550 1019 q 569 1069 569 1040 q 550 1118 569 1097 q 503 1139 531 1139 q 453 1118 474 1139 q 433 1069 433 1097 q 453 1019 433 1040 q 501 999 472 999 q 540 1009 531 999 q 550 1019 550 1019 "},"ġ":{"ha":776,"x_min":53,"x_max":682,"o":"m 676 489 q 682 672 676 610 l 574 672 l 569 571 l 567 571 q 357 686 503 686 q 143 590 233 686 q 53 331 53 493 q 134 97 53 190 q 339 3 215 3 q 469 34 414 3 q 553 115 524 65 l 556 115 l 556 42 q 497 -137 556 -81 q 339 -194 439 -194 q 142 -140 224 -194 l 111 -235 q 335 -290 194 -290 q 581 -210 490 -290 q 676 99 676 -119 l 676 489 m 554 286 q 544 221 554 250 q 480 129 526 163 q 375 96 433 96 q 228 165 281 96 q 176 338 176 233 q 232 522 176 453 q 376 592 288 592 q 485 555 442 592 q 547 461 529 518 q 554 407 554 442 l 554 286 m 386 796 q 436 817 417 796 q 456 868 456 838 q 436 918 456 897 q 388 939 417 939 q 338 918 358 939 q 317 868 317 897 q 337 817 317 839 q 386 796 357 796 "},"Ģ":{"ha":897,"x_min":50,"x_max":819,"o":"m 819 492 l 511 492 l 511 394 l 700 394 l 700 115 q 539 90 650 90 q 276 191 374 90 q 178 468 178 292 q 280 744 178 643 q 554 844 382 844 q 761 804 676 844 l 792 903 q 557 946 703 946 q 188 810 325 946 q 50 463 50 675 q 181 114 50 240 q 531 -10 310 -10 q 819 42 686 -10 l 819 492 m 414 -308 q 540 -267 488 -304 q 593 -160 593 -231 q 538 -57 593 -93 l 447 -76 q 494 -161 494 -115 q 390 -251 494 -235 l 414 -308 "},"ģ":{"ha":776,"x_min":53,"x_max":682,"o":"m 676 489 q 682 672 676 610 l 574 672 l 569 571 l 567 571 q 357 686 503 686 q 143 590 233 686 q 53 331 53 493 q 134 97 53 190 q 339 3 215 3 q 469 34 414 3 q 553 115 524 65 l 556 115 l 556 42 q 497 -137 556 -81 q 339 -194 439 -194 q 142 -140 224 -194 l 111 -235 q 335 -290 194 -290 q 581 -210 490 -290 q 676 99 676 -119 l 676 489 m 554 286 q 544 221 554 250 q 480 129 526 163 q 375 96 433 96 q 228 165 281 96 q 176 338 176 233 q 232 522 176 453 q 376 592 288 592 q 485 555 442 592 q 547 461 529 518 q 554 407 554 442 l 554 286 m 471 985 q 343 945 396 981 q 290 842 290 910 q 306 783 290 810 q 344 743 322 757 l 433 761 q 385 843 385 797 q 493 933 385 918 l 471 985 "},"Ĥ":{"ha":906,"x_min":104,"x_max":801,"o":"m 104 936 l 104 0 l 226 0 l 226 439 l 679 439 l 679 0 l 801 0 l 801 936 l 679 936 l 679 544 l 226 544 l 226 936 l 104 936 m 406 1144 l 264 986 l 363 986 l 451 1082 l 454 1082 l 542 986 l 644 986 l 499 1144 l 406 1144 "},"ĥ":{"ha":771,"x_min":-22,"x_max":674,"o":"m 101 0 l 224 0 l 224 406 q 232 464 224 442 q 294 550 250 515 q 396 585 339 585 q 514 530 476 585 q 551 386 551 475 l 551 0 l 674 0 l 674 400 q 658 518 674 467 q 617 601 642 569 q 560 651 593 632 q 498 678 528 671 q 439 686 468 686 q 314 653 372 686 q 226 565 258 622 l 224 565 l 224 986 l 101 986 l 101 0 m 119 1171 l -22 1013 l 76 1013 l 165 1108 l 168 1108 l 256 1013 l 358 1013 l 213 1171 l 119 1171 "},"Ħ":{"ha":913,"x_min":29,"x_max":883,"o":"m 883 665 l 883 746 l 804 746 l 804 936 l 682 936 l 682 746 l 231 746 l 231 936 l 108 936 l 108 746 l 29 746 l 29 665 l 108 665 l 108 0 l 231 0 l 231 418 l 682 418 l 682 0 l 804 0 l 804 665 l 883 665 m 682 524 l 231 524 l 231 665 l 682 665 l 682 524 "},"ħ":{"ha":771,"x_min":-6,"x_max":674,"o":"m 674 0 l 674 400 q 658 518 674 467 q 617 601 642 569 q 560 651 593 632 q 498 678 528 671 q 439 686 468 686 q 314 653 372 686 q 226 565 258 622 l 224 565 l 224 767 l 493 767 l 493 843 l 224 843 l 224 986 l 101 986 l 101 843 l -6 843 l -6 767 l 101 767 l 101 0 l 224 0 l 224 406 q 232 464 224 442 q 294 550 250 515 q 396 585 339 585 q 514 530 476 585 q 551 386 551 475 l 551 0 l 674 0 "},"Ĩ":{"ha":332,"x_min":-6,"x_max":339,"o":"m 104 936 l 104 0 l 226 0 l 226 936 l 104 936 m 60 993 q 96 1054 67 1054 q 161 1028 111 1054 q 246 1001 214 1001 q 339 1136 342 1001 l 275 1136 q 263 1093 272 1104 q 238 1082 254 1082 q 171 1107 215 1082 q 89 1135 118 1135 q 19 1096 44 1135 q -6 993 -7 1057 l 60 993 "},"ĩ":{"ha":325,"x_min":-8,"x_max":335,"o":"m 224 0 l 224 672 l 101 672 l 101 0 l 224 0 m 58 788 q 94 850 63 850 q 154 826 111 850 q 240 796 208 796 q 335 936 338 796 l 269 936 q 232 878 265 878 q 172 901 214 878 q 86 932 114 932 q 15 893 40 932 q -8 788 -10 854 l 58 788 "},"Ī":{"ha":332,"x_min":0,"x_max":333,"o":"m 104 936 l 104 0 l 226 0 l 226 936 l 104 936 m 0 1094 l 0 1018 l 333 1018 l 333 1094 l 0 1094 "},"ī":{"ha":325,"x_min":7,"x_max":319,"o":"m 224 0 l 224 672 l 101 672 l 101 0 l 224 0 m 7 893 l 7 814 l 319 814 l 319 893 l 7 893 "},"Ĭ":{"ha":332,"x_min":-6,"x_max":338,"o":"m 104 936 l 104 0 l 226 0 l 226 936 l 104 936 m -6 1143 q 39 1036 -3 1076 q 164 996 81 996 q 292 1037 249 996 q 338 1143 335 1078 l 267 1143 q 167 1075 254 1075 q 67 1143 82 1075 l -6 1143 "},"ĭ":{"ha":325,"x_min":-6,"x_max":339,"o":"m 224 0 l 224 672 l 101 672 l 101 0 l 224 0 m -6 947 q 38 824 -6 875 q 167 774 81 774 q 292 822 244 774 q 339 947 339 869 l 267 947 q 238 879 263 907 q 165 851 213 851 q 99 878 125 851 q 67 947 74 904 l -6 947 "},"Į":{"ha":332,"x_min":39,"x_max":281,"o":"m 226 936 l 104 936 l 104 0 q 39 -171 39 -104 q 74 -260 39 -229 q 168 -292 110 -292 q 281 -260 236 -292 l 261 -196 q 199 -208 233 -208 q 147 -190 167 -208 q 128 -136 128 -171 q 185 0 128 -79 l 226 0 l 226 936 "},"į":{"ha":325,"x_min":35,"x_max":276,"o":"m 160 793 q 217 815 196 793 q 239 869 239 838 q 217 925 239 903 q 163 947 196 947 q 107 925 129 947 q 85 869 85 903 q 106 815 85 838 q 160 793 126 793 m 224 672 l 101 672 l 101 0 q 35 -171 35 -100 q 70 -260 35 -229 q 164 -292 106 -292 q 276 -260 232 -292 l 257 -196 q 194 -208 229 -208 q 143 -190 163 -208 q 124 -136 124 -171 q 181 0 124 -79 l 224 0 l 224 672 "},"İ":{"ha":332,"x_min":99,"x_max":235,"o":"m 104 936 l 104 0 l 226 0 l 226 936 l 104 936 m 215 1022 q 235 1072 235 1043 q 215 1121 235 1100 q 168 1142 196 1142 q 119 1121 139 1142 q 99 1072 99 1100 q 118 1022 99 1043 q 167 1001 138 1001 q 206 1012 196 1001 q 215 1022 215 1022 "},"ı":{"ha":325,"x_min":101,"x_max":224,"o":"m 224 0 l 224 672 l 101 672 l 101 0 l 224 0 "},"Ĳ":{"ha":846,"x_min":104,"x_max":751,"o":"m 104 936 l 104 0 l 226 0 l 226 936 l 104 936 m 629 321 q 588 138 629 189 q 458 88 546 88 q 356 106 401 88 l 338 7 q 468 -15 392 -15 q 751 310 751 -15 l 751 936 l 629 936 l 629 321 "},"ĳ":{"ha":663,"x_min":86,"x_max":578,"o":"m 224 0 l 224 672 l 101 672 l 101 0 l 224 0 m 108 915 q 86 861 86 893 q 106 808 86 829 q 160 786 126 786 q 217 808 196 786 q 238 861 238 829 q 217 916 238 894 q 163 938 196 938 q 118 926 129 938 q 108 915 108 915 m 274 -293 q 388 -274 329 -293 q 483 -217 446 -254 q 564 60 564 -135 l 564 672 l 442 672 l 442 107 q 431 -62 442 -10 q 394 -146 421 -115 q 261 -197 354 -190 l 274 -293 m 448 915 q 426 861 426 893 q 447 808 426 831 q 500 786 468 786 q 557 808 536 786 q 578 861 578 829 q 557 915 578 893 q 503 938 536 938 q 459 926 469 938 q 448 915 448 915 "},"Ĵ":{"ha":514,"x_min":6,"x_max":543,"o":"m 296 319 q 253 138 296 189 q 125 88 211 88 q 22 106 68 88 l 6 7 q 135 -15 57 -15 q 418 310 418 -15 l 418 936 l 296 936 l 296 319 m 304 1144 l 163 986 l 261 986 l 350 1082 l 353 1082 l 440 986 l 543 986 l 397 1144 l 304 1144 "},"ĵ":{"ha":338,"x_min":-64,"x_max":343,"o":"m -50 -293 q 63 -274 4 -293 q 158 -217 121 -254 q 239 60 239 -135 l 239 672 l 117 672 l 117 107 q 106 -62 117 -10 q 69 -144 96 -115 q -64 -197 29 -190 l -50 -293 m 125 953 l -6 754 l 86 754 l 167 885 l 169 885 l 250 754 l 343 754 l 210 953 l 125 953 "},"Ķ":{"ha":753,"x_min":106,"x_max":767,"o":"m 106 0 l 226 0 l 226 357 l 317 460 l 624 0 l 767 0 l 401 539 l 740 936 l 590 936 l 304 585 q 231 485 263 531 l 226 485 l 226 936 l 106 936 l 106 0 m 299 -306 q 425 -265 372 -301 q 478 -157 478 -228 q 422 -54 478 -90 l 332 -74 q 379 -158 379 -112 q 275 -249 379 -232 l 299 -306 "},"ķ":{"ha":651,"x_min":101,"x_max":665,"o":"m 222 986 l 101 986 l 101 0 l 222 0 l 222 253 l 285 322 l 515 0 l 665 0 l 369 396 l 628 672 l 482 672 l 283 440 q 225 364 253 403 l 222 364 l 222 986 m 246 -308 q 372 -267 319 -304 q 425 -160 425 -231 q 369 -57 425 -93 l 279 -76 q 326 -161 326 -112 q 222 -251 326 -235 l 246 -308 "},"ĸ":{"ha":651,"x_min":101,"x_max":665,"o":"m 222 672 l 101 672 l 101 0 l 222 0 l 222 253 l 285 322 l 515 0 l 665 0 l 369 396 l 628 672 l 482 672 l 283 440 q 225 364 253 403 l 222 364 l 222 672 "},"Ĺ":{"ha":656,"x_min":104,"x_max":626,"o":"m 104 0 l 626 0 l 626 101 l 226 101 l 226 936 l 104 936 l 104 0 m 249 1149 l 119 986 l 218 986 l 396 1149 l 249 1149 "},"ĺ":{"ha":328,"x_min":85,"x_max":361,"o":"m 101 0 l 224 0 l 224 986 l 101 986 l 101 0 m 214 1189 l 85 1026 l 183 1026 l 361 1189 l 214 1189 "},"Ļ":{"ha":656,"x_min":104,"x_max":626,"o":"m 104 0 l 626 0 l 626 101 l 226 101 l 226 936 l 104 936 l 104 0 m 260 -308 q 386 -267 333 -304 q 439 -160 439 -231 q 383 -57 439 -93 l 293 -76 q 340 -161 340 -115 q 236 -251 340 -235 l 260 -308 "},"ļ":{"ha":328,"x_min":49,"x_max":251,"o":"m 101 0 l 224 0 l 224 986 l 101 986 l 101 0 m 72 -308 q 199 -267 146 -304 q 251 -160 251 -231 q 196 -57 251 -93 l 106 -76 q 153 -161 153 -112 q 49 -251 153 -235 l 72 -308 "},"Ľ":{"ha":656,"x_min":104,"x_max":626,"o":"m 104 0 l 626 0 l 626 101 l 226 101 l 226 936 l 104 936 l 104 0 m 361 700 q 488 741 435 704 q 540 849 540 778 q 485 951 540 915 l 394 932 q 442 847 442 893 q 338 757 442 774 l 361 700 "},"ľ":{"ha":339,"x_min":101,"x_max":422,"o":"m 101 0 l 224 0 l 224 986 l 101 986 l 101 0 m 332 725 l 340 732 q 352 742 349 739 q 365 754 356 746 q 378 769 374 763 q 391 788 383 776 q 403 810 399 799 q 413 834 408 821 q 420 863 418 847 q 422 894 422 878 q 408 958 422 929 q 372 999 393 986 l 286 979 q 328 889 328 940 q 279 765 328 826 l 332 725 "},"Ŀ":{"ha":656,"x_min":104,"x_max":626,"o":"m 104 0 l 626 0 l 626 101 l 226 101 l 226 936 l 104 936 l 104 0 m 521 467 q 540 517 540 488 q 521 565 540 544 q 474 586 501 586 q 424 565 444 586 q 404 517 404 544 q 424 467 404 488 q 472 446 443 446 q 511 456 501 446 q 521 467 521 467 "},"ŀ":{"ha":378,"x_min":101,"x_max":415,"o":"m 101 0 l 224 0 l 224 986 l 101 986 l 101 0 m 350 474 q 397 494 379 474 q 415 543 415 514 q 397 592 415 572 q 351 613 378 613 q 304 592 324 613 q 285 543 285 571 q 303 494 285 514 q 350 474 322 474 "},"Ł":{"ha":661,"x_min":-7,"x_max":632,"o":"m 632 0 l 632 101 l 232 101 l 232 456 l 418 590 l 418 685 l 232 550 l 232 936 l 110 936 l 110 467 l -7 382 l -7 289 l 110 374 l 110 0 l 632 0 "},"ł":{"ha":336,"x_min":13,"x_max":328,"o":"m 229 0 l 229 493 l 328 578 l 328 675 l 229 590 l 229 986 l 107 986 l 107 496 l 13 415 l 13 319 l 107 400 l 107 0 l 229 0 "},"Ń":{"ha":914,"x_min":106,"x_max":808,"o":"m 219 0 l 219 400 q 211 786 219 644 l 215 788 q 389 475 272 660 l 686 0 l 808 0 l 808 936 l 694 936 l 694 544 q 708 160 694 317 l 704 158 q 538 463 646 288 l 239 936 l 106 936 l 106 0 l 219 0 m 514 1149 l 386 986 l 485 986 l 663 1149 l 514 1149 "},"ń":{"ha":771,"x_min":96,"x_max":674,"o":"m 101 0 l 224 0 l 224 404 q 232 461 224 439 q 294 550 250 514 q 396 586 339 586 q 514 531 476 586 q 551 388 551 476 l 551 0 l 674 0 l 674 400 q 650 541 674 482 q 589 630 626 600 q 513 673 551 660 q 436 686 475 686 q 300 650 358 686 q 214 561 242 614 l 211 561 l 204 672 l 96 672 q 101 490 101 599 l 101 0 m 442 963 l 319 764 l 406 764 l 575 963 l 442 963 "},"Ņ":{"ha":914,"x_min":106,"x_max":808,"o":"m 219 0 l 219 400 q 211 786 219 644 l 215 788 q 389 475 272 660 l 686 0 l 808 0 l 808 936 l 694 936 l 694 544 q 708 160 694 317 l 704 158 q 538 463 646 288 l 239 936 l 106 936 l 106 0 l 219 0 m 375 -307 q 501 -266 449 -303 q 554 -158 554 -229 q 499 -56 554 -92 l 408 -75 q 456 -160 456 -114 q 351 -250 456 -233 l 375 -307 "},"ņ":{"ha":771,"x_min":96,"x_max":674,"o":"m 101 0 l 224 0 l 224 404 q 232 461 224 439 q 294 550 250 514 q 396 586 339 586 q 514 531 476 586 q 551 388 551 476 l 551 0 l 674 0 l 674 400 q 650 541 674 482 q 589 630 626 600 q 513 673 551 660 q 436 686 475 686 q 300 650 358 686 q 214 561 242 614 l 211 561 l 204 672 l 96 672 q 101 490 101 599 l 101 0 m 307 -306 q 433 -265 381 -301 q 486 -157 486 -228 q 431 -54 486 -90 l 340 -74 q 388 -158 388 -110 q 283 -249 388 -232 l 307 -306 "},"Ň":{"ha":914,"x_min":106,"x_max":808,"o":"m 219 0 l 219 400 q 211 786 219 644 l 215 788 q 389 475 272 660 l 686 0 l 808 0 l 808 936 l 694 936 l 694 544 q 708 160 694 317 l 704 158 q 538 463 646 288 l 239 936 l 106 936 l 106 0 l 219 0 m 506 979 l 649 1138 l 550 1138 l 463 1042 l 460 1042 l 371 1138 l 268 1138 l 414 979 l 506 979 "},"ň":{"ha":771,"x_min":96,"x_max":674,"o":"m 101 0 l 224 0 l 224 404 q 232 461 224 439 q 294 550 250 514 q 396 586 339 586 q 514 531 476 586 q 551 388 551 476 l 551 0 l 674 0 l 674 400 q 650 541 674 482 q 589 630 626 600 q 513 673 551 660 q 436 686 475 686 q 300 650 358 686 q 214 561 242 614 l 211 561 l 204 672 l 96 672 q 101 490 101 599 l 101 0 m 431 764 l 561 963 l 469 963 l 388 831 l 385 831 l 303 963 l 210 963 l 343 764 l 431 764 "},"ŉ":{"ha":771,"x_min":25,"x_max":674,"o":"m 101 0 l 224 0 l 224 404 q 232 461 224 439 q 294 550 250 514 q 396 586 339 586 q 514 531 476 586 q 551 388 551 476 l 551 0 l 674 0 l 674 400 q 650 541 674 482 q 589 630 626 600 q 513 673 551 660 q 436 686 475 686 q 300 650 358 686 q 214 561 242 614 l 211 561 l 204 672 l 96 672 q 101 490 101 599 l 101 0 m 78 744 q 171 904 171 814 q 156 965 171 938 q 122 1004 142 992 l 33 981 q 76 899 76 944 q 25 785 76 842 l 78 744 "},"Ŋ":{"ha":914,"x_min":106,"x_max":808,"o":"m 219 0 l 219 400 q 211 786 219 644 l 215 788 q 389 475 272 660 l 692 -8 q 642 -124 685 -82 q 515 -182 599 -165 l 540 -276 q 808 53 808 -236 l 808 936 l 694 936 l 694 544 q 708 160 694 317 l 704 158 q 538 463 646 288 l 239 936 l 106 936 l 106 0 l 219 0 "},"ŋ":{"ha":771,"x_min":96,"x_max":674,"o":"m 101 0 l 224 0 l 224 404 q 232 461 224 439 q 294 550 250 514 q 396 586 339 586 q 514 531 476 586 q 551 388 551 476 l 551 71 q 386 -151 551 -118 l 410 -249 q 601 -151 529 -232 q 674 82 674 -69 l 674 400 q 650 541 674 482 q 589 630 626 600 q 513 673 551 660 q 436 686 475 686 q 300 650 358 686 q 214 561 242 614 l 211 561 l 204 672 l 96 672 q 101 490 101 599 l 101 0 "},"Ō":{"ha":957,"x_min":50,"x_max":906,"o":"m 483 953 q 172 817 293 953 q 50 461 50 682 q 167 117 50 249 q 471 -15 285 -15 q 782 115 658 -15 q 906 478 906 246 q 790 821 906 689 q 483 953 675 953 m 479 854 q 699 740 621 854 q 778 472 778 626 q 697 194 778 306 q 478 83 617 83 q 259 194 340 83 q 178 464 178 306 q 257 741 178 628 q 479 854 336 854 m 313 1103 l 313 1026 l 646 1026 l 646 1103 l 313 1103 "},"ō":{"ha":763,"x_min":53,"x_max":710,"o":"m 386 686 q 148 590 243 686 q 53 331 53 493 q 144 80 53 175 q 375 -15 236 -15 q 610 76 510 -15 q 710 342 710 168 q 620 590 710 494 q 386 686 531 686 m 534 515 q 585 338 585 436 q 526 151 585 225 q 381 76 468 76 q 235 150 292 76 q 178 335 178 224 q 231 517 178 440 q 383 594 283 594 q 509 555 483 594 q 534 515 534 515 m 225 893 l 225 814 l 538 814 l 538 893 l 225 893 "},"Ŏ":{"ha":957,"x_min":50,"x_max":906,"o":"m 483 953 q 172 817 293 953 q 50 461 50 682 q 167 117 50 249 q 471 -15 285 -15 q 782 115 658 -15 q 906 478 906 246 q 790 821 906 689 q 483 953 675 953 m 479 854 q 699 740 621 854 q 778 472 778 626 q 697 194 778 306 q 478 83 617 83 q 259 194 340 83 q 178 464 178 306 q 257 741 178 628 q 479 854 336 854 m 306 1153 q 350 1046 308 1086 q 475 1006 392 1006 q 603 1047 560 1006 q 649 1153 646 1088 l 578 1153 q 478 1085 565 1085 q 378 1153 393 1085 l 306 1153 "},"ŏ":{"ha":763,"x_min":53,"x_max":710,"o":"m 386 686 q 148 590 243 686 q 53 331 53 493 q 144 80 53 175 q 375 -15 236 -15 q 610 76 510 -15 q 710 342 710 168 q 620 590 710 494 q 386 686 531 686 m 534 515 q 585 338 585 436 q 526 151 585 225 q 381 76 468 76 q 235 150 292 76 q 178 335 178 224 q 231 517 178 440 q 383 594 283 594 q 509 555 483 594 q 534 515 534 515 m 208 947 q 251 824 208 875 q 381 774 294 774 q 506 822 458 774 q 553 947 553 869 l 481 947 q 451 879 476 907 q 379 851 426 851 q 313 878 339 851 q 281 947 288 904 l 208 947 "},"Ő":{"ha":957,"x_min":50,"x_max":906,"o":"m 483 953 q 172 817 293 953 q 50 461 50 682 q 167 117 50 249 q 471 -15 285 -15 q 782 115 658 -15 q 906 478 906 246 q 790 821 906 689 q 483 953 675 953 m 479 854 q 699 740 621 854 q 778 472 778 626 q 697 194 778 306 q 478 83 617 83 q 259 194 340 83 q 178 464 178 306 q 257 741 178 628 q 479 854 336 854 m 443 1153 l 332 997 l 421 997 l 575 1153 l 443 1153 m 647 1153 l 536 997 l 625 997 l 779 1153 l 647 1153 "},"ő":{"ha":763,"x_min":53,"x_max":710,"o":"m 386 686 q 148 590 243 686 q 53 331 53 493 q 144 80 53 175 q 375 -15 236 -15 q 610 76 510 -15 q 710 342 710 168 q 620 590 710 494 q 386 686 531 686 m 534 515 q 585 338 585 436 q 526 151 585 225 q 381 76 468 76 q 235 150 292 76 q 178 335 178 224 q 231 517 178 440 q 383 594 283 594 q 509 555 483 594 q 534 515 534 515 m 331 963 l 221 774 l 297 774 l 450 963 l 331 963 m 531 963 l 421 774 l 497 774 l 650 963 l 531 963 "},"Œ":{"ha":1242,"x_min":50,"x_max":1190,"o":"m 1190 101 l 785 101 l 785 438 l 1147 438 l 1147 538 l 785 538 l 785 835 l 1169 835 l 1169 936 l 722 936 q 633 944 703 936 q 511 953 564 953 q 178 821 306 953 q 50 461 50 689 q 171 119 50 253 q 504 -15 292 -15 q 619 -8 533 -15 q 711 0 686 0 l 1190 0 l 1190 101 m 663 101 q 526 83 613 83 q 271 188 364 83 q 178 467 178 293 q 269 747 178 640 q 514 854 360 854 q 663 833 603 854 l 663 101 "},"œ":{"ha":1199,"x_min":53,"x_max":1147,"o":"m 1144 315 q 1147 372 1147 340 q 1140 451 1147 411 q 1114 533 1133 490 q 1065 610 1094 576 q 987 665 1036 643 q 876 686 938 686 q 731 645 796 686 q 631 526 667 604 l 628 526 q 529 644 597 601 q 375 686 461 686 q 144 589 236 686 q 53 332 53 492 q 142 80 53 175 q 367 -15 231 -15 q 519 25 449 -15 q 626 143 590 65 l 629 143 q 896 -15 706 -15 q 1114 31 1033 -15 l 1090 118 q 911 81 1004 81 q 749 142 811 81 q 688 315 688 204 l 1144 315 m 375 594 q 524 519 474 594 q 574 336 574 443 q 519 149 574 221 q 376 76 465 76 q 234 151 290 76 q 178 335 178 225 q 226 515 178 436 q 375 594 275 594 m 686 403 q 739 538 693 478 q 867 599 785 599 q 949 579 914 599 q 1000 528 983 560 q 1024 466 1017 497 q 1031 403 1031 435 l 686 403 "},"Ŕ":{"ha":747,"x_min":106,"x_max":715,"o":"m 106 0 l 226 0 l 226 406 l 340 406 q 465 362 422 403 q 529 224 508 321 q 590 0 568 39 l 715 0 q 643 257 694 40 q 507 446 608 410 l 507 450 q 633 538 585 476 q 682 688 682 600 q 608 867 682 800 q 338 943 524 943 q 106 924 213 943 l 106 0 m 226 839 q 346 849 263 849 q 503 806 446 849 q 561 675 561 763 q 503 546 561 594 q 350 497 446 497 l 226 497 l 226 839 m 419 1151 l 290 989 l 389 989 l 567 1151 l 419 1151 "},"ŕ":{"ha":454,"x_min":96,"x_max":435,"o":"m 101 0 l 224 0 l 224 358 q 228 415 224 390 q 284 528 240 485 q 392 571 328 571 q 433 568 421 571 l 433 683 q 400 686 411 686 q 286 646 338 686 q 213 539 235 606 l 208 539 l 203 672 l 96 672 q 101 463 101 589 l 101 0 m 301 963 l 179 764 l 265 764 l 435 963 l 301 963 "},"Ŗ":{"ha":747,"x_min":106,"x_max":715,"o":"m 106 0 l 226 0 l 226 406 l 340 406 q 465 362 422 403 q 529 224 508 321 q 590 0 568 39 l 715 0 q 643 257 694 40 q 507 446 608 410 l 507 450 q 633 538 585 476 q 682 688 682 600 q 608 867 682 800 q 338 943 524 943 q 106 924 213 943 l 106 0 m 226 839 q 346 849 263 849 q 503 806 446 849 q 561 675 561 763 q 503 546 561 594 q 350 497 446 497 l 226 497 l 226 839 m 294 -299 q 421 -258 368 -294 q 474 -150 474 -221 q 418 -47 474 -83 l 328 -67 q 375 -151 375 -106 q 271 -242 375 -225 l 294 -299 "},"ŗ":{"ha":454,"x_min":60,"x_max":433,"o":"m 101 0 l 224 0 l 224 358 q 228 415 224 390 q 284 528 240 485 q 392 571 328 571 q 433 568 421 571 l 433 683 q 400 686 411 686 q 286 646 338 686 q 213 539 235 606 l 208 539 l 203 672 l 96 672 q 101 463 101 589 l 101 0 m 83 -308 q 210 -267 157 -304 q 263 -160 263 -231 q 207 -57 263 -93 l 117 -76 q 164 -161 164 -112 q 60 -251 164 -235 l 83 -308 "},"Ř":{"ha":747,"x_min":106,"x_max":715,"o":"m 106 0 l 226 0 l 226 406 l 340 406 q 465 362 422 403 q 529 224 508 321 q 590 0 568 39 l 715 0 q 643 257 694 40 q 507 446 608 410 l 507 450 q 633 538 585 476 q 682 688 682 600 q 608 867 682 800 q 338 943 524 943 q 106 924 213 943 l 106 0 m 226 839 q 346 849 263 849 q 503 806 446 849 q 561 675 561 763 q 503 546 561 594 q 350 497 446 497 l 226 497 l 226 839 m 414 990 l 556 1149 l 457 1149 l 369 1053 l 367 1053 l 278 1149 l 175 1149 l 321 990 l 414 990 "},"ř":{"ha":454,"x_min":76,"x_max":433,"o":"m 101 0 l 224 0 l 224 358 q 228 415 224 390 q 284 528 240 485 q 392 571 328 571 q 433 568 421 571 l 433 683 q 400 686 411 686 q 286 646 338 686 q 213 539 235 606 l 208 539 l 203 672 l 96 672 q 101 463 101 589 l 101 0 m 297 764 l 428 963 l 336 963 l 254 831 l 251 831 l 169 963 l 76 963 l 210 764 l 297 764 "},"Ś":{"ha":685,"x_min":58,"x_max":624,"o":"m 58 46 q 164 2 97 19 q 297 -15 231 -15 q 540 63 456 -15 q 624 256 624 140 q 566 419 624 356 q 386 531 508 483 q 242 608 285 569 q 200 711 200 647 q 244 809 200 767 q 376 851 289 851 q 553 807 481 851 l 586 906 q 381 951 508 951 q 162 880 246 951 q 78 697 78 808 q 325 431 78 521 q 460 352 419 394 q 501 246 501 310 q 449 130 501 174 q 306 86 397 86 q 90 147 186 86 l 58 46 m 414 1151 l 286 989 l 385 989 l 563 1151 l 414 1151 "},"ś":{"ha":550,"x_min":56,"x_max":494,"o":"m 56 32 q 244 -15 136 -15 q 428 40 361 -15 q 494 188 494 96 q 451 308 494 260 q 318 389 407 356 q 220 440 249 417 q 192 504 192 464 q 221 569 192 543 q 303 596 250 596 q 440 556 376 596 l 469 644 q 306 686 406 686 q 138 629 201 686 q 74 489 74 572 q 253 299 74 364 q 349 247 321 274 q 376 176 376 219 q 343 104 376 132 q 247 76 310 76 q 85 124 164 76 l 56 32 m 339 963 l 218 764 l 304 764 l 474 963 l 339 963 "},"Ŝ":{"ha":685,"x_min":58,"x_max":624,"o":"m 58 46 q 164 2 97 19 q 297 -15 231 -15 q 540 63 456 -15 q 624 256 624 140 q 566 419 624 356 q 386 531 508 483 q 242 608 285 569 q 200 711 200 647 q 244 809 200 767 q 376 851 289 851 q 553 807 481 851 l 586 906 q 381 951 508 951 q 162 880 246 951 q 78 697 78 808 q 325 431 78 521 q 460 352 419 394 q 501 246 501 310 q 449 130 501 174 q 306 86 397 86 q 90 147 186 86 l 58 46 m 297 1149 l 154 990 l 253 990 l 342 1086 l 344 1086 l 432 990 l 535 990 l 389 1149 l 297 1149 "},"ŝ":{"ha":550,"x_min":56,"x_max":494,"o":"m 56 32 q 244 -15 136 -15 q 428 40 361 -15 q 494 188 494 96 q 451 308 494 260 q 318 389 407 356 q 220 440 249 417 q 192 504 192 464 q 221 569 192 543 q 303 596 250 596 q 440 556 376 596 l 469 644 q 306 686 406 686 q 138 629 201 686 q 74 489 74 572 q 253 299 74 364 q 349 247 321 274 q 376 176 376 219 q 343 104 376 132 q 247 76 310 76 q 85 124 164 76 l 56 32 m 235 963 l 104 764 l 196 764 l 275 894 l 278 894 l 360 764 l 453 764 l 319 963 l 235 963 "},"Ş":{"ha":685,"x_min":58,"x_max":624,"o":"m 58 46 q 165 2 97 19 q 293 -15 232 -15 l 303 -15 l 247 -112 q 354 -171 354 -124 q 297 -214 354 -214 q 221 -194 260 -214 l 201 -254 q 297 -278 239 -278 q 399 -250 358 -278 q 440 -167 440 -222 q 413 -103 440 -129 q 343 -69 385 -76 l 382 -8 q 562 85 500 13 q 624 256 624 158 q 566 419 624 356 q 386 531 508 483 q 242 608 285 569 q 200 711 200 647 q 244 809 200 767 q 376 851 289 851 q 553 807 481 851 l 586 906 q 381 951 508 951 q 162 880 246 951 q 78 697 78 808 q 325 431 78 521 q 460 352 419 394 q 501 246 501 310 q 449 130 501 174 q 306 86 397 86 q 90 147 186 86 l 58 46 "},"ş":{"ha":550,"x_min":56,"x_max":494,"o":"m 56 32 q 233 -14 136 -14 l 238 -14 l 182 -112 q 290 -171 290 -122 q 274 -203 292 -193 q 231 -214 257 -214 q 156 -194 192 -214 l 135 -254 q 229 -278 175 -278 q 334 -251 293 -278 q 375 -165 375 -224 q 347 -101 375 -126 q 278 -69 318 -75 l 315 -7 q 447 60 400 8 q 494 188 494 113 q 451 308 494 260 q 318 389 407 356 q 220 440 249 417 q 192 504 192 464 q 221 569 192 543 q 303 596 250 596 q 440 557 374 596 l 469 644 q 306 686 406 686 q 138 629 201 686 q 74 489 74 572 q 253 299 74 364 q 349 247 321 274 q 376 176 376 219 q 343 104 376 132 q 247 76 310 76 q 85 124 164 76 l 56 32 "},"Š":{"ha":685,"x_min":58,"x_max":624,"o":"m 58 46 q 164 2 97 19 q 297 -15 231 -15 q 540 63 456 -15 q 624 256 624 140 q 566 419 624 356 q 386 531 508 483 q 242 608 285 569 q 200 711 200 647 q 244 809 200 767 q 376 851 289 851 q 553 807 481 851 l 586 906 q 381 951 508 951 q 162 880 246 951 q 78 697 78 808 q 325 431 78 521 q 460 352 419 394 q 501 246 501 310 q 449 130 501 174 q 306 86 397 86 q 90 147 186 86 l 58 46 m 406 990 l 547 1149 l 449 1149 l 361 1053 l 358 1053 l 269 1149 l 167 1149 l 313 990 l 406 990 "},"š":{"ha":550,"x_min":56,"x_max":494,"o":"m 56 32 q 244 -15 136 -15 q 428 40 361 -15 q 494 188 494 96 q 451 308 494 260 q 318 389 407 356 q 220 440 249 417 q 192 504 192 464 q 221 569 192 543 q 303 596 250 596 q 440 556 376 596 l 469 644 q 306 686 406 686 q 138 629 201 686 q 74 489 74 572 q 253 299 74 364 q 349 247 321 274 q 376 176 376 219 q 343 104 376 132 q 247 76 310 76 q 85 124 164 76 l 56 32 m 326 764 l 457 963 l 365 963 l 283 831 l 281 831 l 199 963 l 106 963 l 239 764 l 326 764 "},"Ţ":{"ha":690,"x_min":-1,"x_max":692,"o":"m 283 0 l 406 0 l 406 833 l 692 833 l 692 936 l -1 936 l -1 833 l 283 833 l 283 0 m 250 -308 q 376 -267 324 -304 q 429 -160 429 -231 q 374 -57 429 -93 l 283 -76 q 331 -161 331 -115 q 226 -251 331 -235 l 250 -308 "},"ţ":{"ha":460,"x_min":25,"x_max":424,"o":"m 129 797 l 129 672 l 25 672 l 25 579 l 129 579 l 129 213 q 176 36 129 89 q 308 -15 224 -15 q 417 1 369 -15 l 411 94 q 340 86 383 86 q 249 217 249 86 l 249 579 l 424 579 l 424 672 l 249 672 l 249 833 l 129 797 m 169 -315 q 296 -274 243 -311 q 349 -167 349 -237 q 293 -64 349 -100 l 203 -83 q 250 -168 250 -119 q 146 -258 250 -242 l 169 -315 "},"Ť":{"ha":690,"x_min":-1,"x_max":692,"o":"m 283 0 l 406 0 l 406 833 l 692 833 l 692 936 l -1 936 l -1 833 l 283 833 l 283 0 m 393 986 l 535 1144 l 436 1144 l 349 1049 l 346 1049 l 257 1144 l 154 1144 l 300 986 l 393 986 "},"ť":{"ha":471,"x_min":25,"x_max":497,"o":"m 129 796 l 129 672 l 25 672 l 25 579 l 129 579 l 129 213 q 176 36 129 89 q 308 -15 224 -15 q 418 1 371 -15 l 413 94 q 342 86 383 86 q 270 119 292 86 q 249 217 249 151 l 249 579 l 425 579 l 425 672 l 249 672 l 249 833 l 129 796 m 385 751 q 460 806 424 767 q 497 907 497 844 q 449 1003 497 971 l 360 985 q 401 904 401 950 q 349 800 401 838 l 385 751 "},"Ŧ":{"ha":690,"x_min":-1,"x_max":692,"o":"m 692 833 l 692 936 l -1 936 l -1 833 l 283 833 l 283 525 l 110 525 l 110 444 l 283 444 l 283 0 l 406 0 l 406 444 l 578 444 l 578 525 l 406 525 l 406 833 l 692 833 "},"ŧ":{"ha":460,"x_min":25,"x_max":424,"o":"m 424 579 l 424 672 l 249 672 l 249 833 l 129 797 l 129 672 l 25 672 l 25 579 l 129 579 l 129 419 l 38 419 l 38 344 l 129 344 l 129 213 q 176 36 129 89 q 308 -15 224 -15 q 417 1 369 -15 l 411 94 q 340 86 383 86 q 249 211 249 86 l 249 344 l 385 344 l 385 419 l 249 419 l 249 579 l 424 579 "},"Ũ":{"ha":899,"x_min":104,"x_max":794,"o":"m 104 936 l 104 385 q 195 81 104 178 q 440 -15 286 -15 q 698 84 601 -15 q 794 389 794 183 l 794 936 l 672 936 l 672 381 q 612 157 672 231 q 444 83 551 83 q 286 157 346 83 q 226 381 226 231 l 226 936 l 104 936 m 342 993 q 378 1054 349 1054 q 443 1028 393 1054 q 529 1001 499 1001 q 622 1136 625 1001 l 558 1136 q 547 1093 556 1104 q 521 1082 538 1082 q 454 1107 499 1082 q 371 1135 399 1135 q 301 1096 326 1135 q 276 993 275 1057 l 342 993 "},"ũ":{"ha":765,"x_min":97,"x_max":669,"o":"m 664 672 l 542 672 l 542 261 q 531 199 542 225 q 469 119 513 153 q 369 86 426 86 q 219 301 219 86 l 219 672 l 97 672 l 97 279 q 118 135 97 196 q 174 44 139 75 q 248 -1 210 13 q 329 -15 286 -15 q 467 22 410 -15 q 551 110 524 60 l 554 110 l 561 0 l 669 0 q 664 185 664 71 l 664 672 m 278 788 q 314 850 282 850 q 374 826 331 850 q 460 796 428 796 q 554 936 557 796 l 489 936 q 451 878 485 878 q 393 901 435 878 q 306 932 332 932 q 235 893 260 932 q 211 788 210 854 l 278 788 "},"Ū":{"ha":899,"x_min":104,"x_max":794,"o":"m 104 936 l 104 385 q 195 81 104 178 q 440 -15 286 -15 q 698 84 601 -15 q 794 389 794 183 l 794 936 l 672 936 l 672 381 q 612 157 672 231 q 444 83 551 83 q 286 157 346 83 q 226 381 226 231 l 226 936 l 104 936 m 282 1094 l 282 1018 l 615 1018 l 615 1094 l 282 1094 "},"ū":{"ha":765,"x_min":97,"x_max":669,"o":"m 664 672 l 542 672 l 542 261 q 531 199 542 225 q 469 119 513 153 q 369 86 426 86 q 219 301 219 86 l 219 672 l 97 672 l 97 279 q 118 135 97 196 q 174 44 139 75 q 248 -1 210 13 q 329 -15 286 -15 q 467 22 410 -15 q 551 110 524 60 l 554 110 l 561 0 l 669 0 q 664 185 664 71 l 664 672 m 226 893 l 226 814 l 539 814 l 539 893 l 226 893 "},"Ŭ":{"ha":899,"x_min":104,"x_max":794,"o":"m 104 936 l 104 385 q 195 81 104 178 q 440 -15 286 -15 q 698 84 601 -15 q 794 389 794 183 l 794 936 l 672 936 l 672 381 q 612 157 672 231 q 444 83 551 83 q 286 157 346 83 q 226 381 226 231 l 226 936 l 104 936 m 276 1149 q 321 1042 279 1082 q 447 1001 363 1001 q 575 1042 532 1001 q 621 1149 618 1083 l 550 1149 q 449 1081 538 1081 q 349 1149 364 1081 l 276 1149 "},"ŭ":{"ha":765,"x_min":97,"x_max":669,"o":"m 664 672 l 542 672 l 542 261 q 531 199 542 225 q 469 119 513 153 q 369 86 426 86 q 219 301 219 86 l 219 672 l 97 672 l 97 279 q 118 135 97 196 q 174 44 139 75 q 248 -1 210 13 q 329 -15 286 -15 q 467 22 410 -15 q 551 110 524 60 l 554 110 l 561 0 l 669 0 q 664 185 664 71 l 664 672 m 210 947 q 253 824 210 875 q 382 774 296 774 q 507 822 460 774 q 554 947 554 869 l 482 947 q 453 879 478 907 q 381 851 428 851 q 315 878 340 851 q 282 947 289 904 l 210 947 "},"Ů":{"ha":899,"x_min":104,"x_max":794,"o":"m 104 936 l 104 385 q 195 81 104 178 q 440 -15 286 -15 q 698 84 601 -15 q 794 389 794 183 l 794 936 l 672 936 l 672 381 q 612 157 672 231 q 444 83 551 83 q 286 157 346 83 q 226 381 226 231 l 226 936 l 104 936 m 451 1211 q 349 1175 388 1211 q 311 1085 311 1139 q 350 998 311 1033 q 450 963 389 963 q 549 997 510 963 q 588 1085 588 1032 q 550 1175 588 1139 q 451 1211 513 1211 m 497 1140 q 515 1088 515 1118 q 497 1035 515 1056 q 449 1014 478 1014 q 401 1035 419 1014 q 382 1085 382 1057 q 399 1139 382 1117 q 447 1161 417 1161 q 487 1150 478 1161 q 497 1140 497 1140 "},"ů":{"ha":765,"x_min":97,"x_max":669,"o":"m 664 672 l 542 672 l 542 261 q 531 199 542 225 q 469 119 513 153 q 369 86 426 86 q 219 301 219 86 l 219 672 l 97 672 l 97 279 q 118 135 97 196 q 174 44 139 75 q 248 -1 210 13 q 329 -15 286 -15 q 467 22 410 -15 q 551 110 524 60 l 554 110 l 561 0 l 669 0 q 664 185 664 71 l 664 672 m 383 746 q 483 782 443 746 q 522 872 522 818 q 484 966 522 929 q 385 1003 446 1003 q 281 966 321 1003 q 242 872 242 929 q 281 782 242 818 q 383 746 321 746 m 382 797 q 332 820 351 797 q 313 872 313 843 q 331 928 313 906 q 381 951 350 951 q 434 929 414 951 q 454 874 454 907 q 434 819 454 842 q 382 797 414 797 "},"Ű":{"ha":899,"x_min":104,"x_max":794,"o":"m 104 936 l 104 385 q 195 81 104 178 q 440 -15 286 -15 q 698 84 601 -15 q 794 389 794 183 l 794 936 l 672 936 l 672 381 q 612 157 672 231 q 444 83 551 83 q 286 157 346 83 q 226 381 226 231 l 226 936 l 104 936 m 393 1149 l 282 993 l 371 993 l 525 1149 l 393 1149 m 597 1149 l 486 993 l 575 993 l 729 1149 l 597 1149 "},"ű":{"ha":765,"x_min":97,"x_max":669,"o":"m 664 672 l 542 672 l 542 261 q 531 199 542 225 q 469 119 513 153 q 369 86 426 86 q 219 301 219 86 l 219 672 l 97 672 l 97 279 q 118 135 97 196 q 174 44 139 75 q 248 -1 210 13 q 329 -15 286 -15 q 467 22 410 -15 q 551 110 524 60 l 554 110 l 561 0 l 669 0 q 664 185 664 71 l 664 672 m 342 963 l 232 774 l 308 774 l 461 963 l 342 963 m 542 963 l 432 774 l 508 774 l 661 963 l 542 963 "},"Ų":{"ha":899,"x_min":104,"x_max":794,"o":"m 576 -187 q 514 -201 546 -201 q 451 -142 451 -201 q 536 -3 451 -78 q 725 120 656 22 q 794 389 794 218 l 794 936 l 672 936 l 672 381 q 613 157 672 231 q 444 83 553 83 q 286 157 346 83 q 226 381 226 231 l 226 936 l 104 936 l 104 385 q 192 85 104 181 q 428 -15 279 -11 l 436 -15 q 357 -172 357 -100 q 391 -253 357 -224 q 482 -283 425 -283 q 596 -250 549 -283 l 576 -187 "},"ų":{"ha":765,"x_min":97,"x_max":736,"o":"m 664 672 l 542 672 l 542 261 q 531 199 542 225 q 469 119 513 153 q 369 86 426 86 q 219 301 219 86 l 219 672 l 97 672 l 97 279 q 118 135 97 196 q 174 44 139 75 q 248 -1 210 13 q 329 -15 286 -15 q 467 22 410 -15 q 551 110 524 60 l 554 110 l 561 4 q 494 -167 494 -96 q 530 -256 494 -225 q 624 -287 565 -287 q 736 -256 692 -287 l 717 -192 q 654 -204 689 -204 q 603 -185 622 -204 q 583 -132 583 -167 q 640 4 583 -75 l 669 0 q 664 185 664 68 l 664 672 "},"Ŵ":{"ha":1175,"x_min":21,"x_max":1164,"o":"m 385 0 l 518 488 q 590 793 569 667 l 593 793 q 654 488 610 672 l 772 0 l 899 0 l 1164 936 l 1040 936 l 917 464 q 842 140 860 238 l 839 140 q 774 461 824 253 l 660 936 l 533 936 l 408 464 q 332 139 347 233 l 329 139 q 260 463 303 281 l 149 936 l 21 936 l 258 0 l 385 0 m 542 1144 l 400 986 l 499 986 l 588 1082 l 590 1082 l 678 986 l 781 986 l 635 1144 l 542 1144 "},"ŵ":{"ha":1022,"x_min":25,"x_max":1001,"o":"m 25 672 l 228 0 l 339 0 l 447 319 q 508 542 489 446 l 511 542 q 571 321 531 447 l 674 0 l 785 0 l 1001 672 l 881 672 l 785 335 q 733 117 747 200 l 729 117 q 669 336 707 214 l 565 672 l 463 672 l 353 329 q 293 117 308 185 l 289 117 q 240 331 281 164 l 150 672 l 25 672 m 468 963 l 336 764 l 428 764 l 508 894 l 511 894 l 592 764 l 685 764 l 551 963 l 468 963 "},"Ŷ":{"ha":751,"x_min":17,"x_max":749,"o":"m 436 0 l 436 399 l 749 936 l 613 936 l 478 678 q 383 485 400 524 l 381 485 q 288 678 364 521 l 156 936 l 17 936 l 314 397 l 314 0 l 436 0 m 328 1144 l 186 986 l 285 986 l 374 1082 l 376 1082 l 464 986 l 567 986 l 421 1144 l 328 1144 "},"ŷ":{"ha":654,"x_min":13,"x_max":644,"o":"m 13 672 l 260 53 q 269 21 269 32 q 260 -8 269 14 q 157 -144 219 -96 q 50 -204 108 -186 l 81 -306 q 231 -228 154 -292 q 342 -79 292 -174 q 461 193 393 15 l 644 672 l 515 672 l 382 278 q 356 195 372 249 q 339 138 340 142 l 336 138 q 292 275 317 210 l 146 672 l 13 672 m 286 963 l 156 764 l 247 764 l 328 894 l 331 894 l 411 764 l 504 764 l 371 963 l 286 963 "},"Ÿ":{"ha":751,"x_min":17,"x_max":749,"o":"m 436 0 l 436 399 l 749 936 l 613 936 l 478 678 q 383 485 400 524 l 381 485 q 288 678 364 521 l 156 936 l 17 936 l 314 397 l 314 0 l 436 0 m 258 992 q 308 1012 289 992 q 326 1063 326 1032 q 308 1112 326 1092 q 260 1132 289 1132 q 211 1112 231 1132 q 192 1063 192 1092 q 210 1013 192 1033 q 258 992 229 992 m 515 992 q 566 1012 547 992 q 585 1063 585 1032 q 566 1112 585 1092 q 518 1132 547 1132 q 469 1112 489 1132 q 449 1063 449 1092 q 467 1013 449 1033 q 515 992 486 992 "},"Ź":{"ha":768,"x_min":42,"x_max":725,"o":"m 42 0 l 725 0 l 725 101 l 201 101 l 201 106 l 718 863 l 718 936 l 86 936 l 86 835 l 560 835 l 560 831 l 42 71 l 42 0 m 451 1149 l 322 986 l 421 986 l 599 1149 l 451 1149 "},"ź":{"ha":594,"x_min":25,"x_max":569,"o":"m 25 0 l 569 0 l 569 97 l 178 97 l 178 100 q 264 206 204 129 l 564 596 l 564 672 l 53 672 l 53 575 l 417 575 l 417 572 l 328 467 l 25 71 l 25 0 m 361 963 l 240 764 l 326 764 l 496 963 l 361 963 "},"Ż":{"ha":768,"x_min":42,"x_max":725,"o":"m 42 0 l 725 0 l 725 101 l 201 101 l 201 106 l 718 863 l 718 936 l 86 936 l 86 835 l 560 835 l 560 831 l 42 71 l 42 0 m 438 1021 q 457 1071 457 1042 q 438 1119 457 1099 q 390 1140 418 1140 q 341 1119 361 1140 q 321 1071 321 1099 q 340 1021 321 1042 q 389 1000 360 1000 q 428 1010 418 1000 q 438 1021 438 1021 "},"ż":{"ha":594,"x_min":25,"x_max":569,"o":"m 25 0 l 569 0 l 569 97 l 178 97 l 178 100 q 264 206 204 129 l 564 596 l 564 672 l 53 672 l 53 575 l 417 575 l 417 572 l 328 467 l 25 71 l 25 0 m 300 792 q 350 813 331 792 q 369 863 369 833 q 350 914 369 893 q 301 935 331 935 q 251 914 272 935 q 231 863 231 893 q 251 813 231 833 q 300 792 271 792 "},"Ž":{"ha":768,"x_min":42,"x_max":725,"o":"m 42 0 l 725 0 l 725 101 l 201 101 l 201 106 l 718 863 l 718 936 l 86 936 l 86 835 l 560 835 l 560 831 l 42 71 l 42 0 m 444 986 l 588 1144 l 489 1144 l 401 1049 l 399 1049 l 310 1144 l 207 1144 l 353 986 l 444 986 "},"ž":{"ha":594,"x_min":25,"x_max":569,"o":"m 25 0 l 569 0 l 569 97 l 178 97 l 178 100 q 264 206 204 129 l 564 596 l 564 672 l 53 672 l 53 575 l 417 575 l 417 572 l 328 467 l 25 71 l 25 0 m 360 764 l 490 963 l 399 963 l 317 831 l 314 831 l 232 963 l 139 963 l 272 764 l 360 764 "},"ƒ":{"ha":713,"x_min":15,"x_max":660,"o":"m 154 469 l 282 469 l 250 196 q 206 31 236 83 q 115 -22 176 -22 q 38 -7 69 -22 l 15 -93 q 124 -117 56 -117 q 293 -39 239 -117 q 365 186 347 39 l 399 469 l 576 469 l 576 558 l 410 558 l 418 629 q 463 768 428 714 q 565 822 499 822 q 638 808 603 822 l 660 897 q 565 918 626 917 q 448 892 499 918 q 368 820 397 865 q 323 727 339 775 q 300 622 307 679 l 292 558 l 154 558 l 154 469 "},"Ơ":{"ha":957,"x_min":50,"x_max":943,"o":"m 478 83 q 259 195 340 83 q 178 464 178 307 q 257 740 178 626 q 479 854 336 854 q 699 740 621 854 q 778 472 778 626 q 697 194 778 306 q 478 83 617 83 m 822 1029 q 846 940 846 986 q 783 878 846 878 q 736 887 764 878 q 676 910 708 896 q 629 928 643 924 q 483 953 564 953 q 172 817 293 953 q 50 461 50 682 q 167 117 50 249 q 471 -15 285 -15 q 782 115 658 -15 q 906 478 906 246 q 797 808 906 686 q 906 838 869 803 q 943 933 943 872 q 917 1047 943 989 l 822 1029 "},"ơ":{"ha":768,"x_min":53,"x_max":769,"o":"m 383 594 q 476 572 436 594 q 540 510 517 549 q 574 427 563 471 q 586 339 586 383 q 526 151 585 225 q 381 76 468 76 q 235 150 292 76 q 178 335 178 224 q 231 517 178 440 q 383 594 283 594 m 653 768 q 676 688 676 728 q 619 632 674 632 q 579 638 600 632 q 535 655 558 644 q 501 668 513 665 q 386 686 440 686 q 148 590 243 686 q 53 331 53 493 q 144 80 53 175 q 375 -15 236 -15 q 610 76 510 -15 q 710 342 710 168 q 640 564 710 475 q 736 594 703 561 q 769 683 769 626 q 746 785 769 738 l 653 768 "},"Ư":{"ha":940,"x_min":104,"x_max":940,"o":"m 824 1069 q 846 989 846 1029 q 831 949 846 961 q 782 936 817 936 l 672 936 l 672 381 q 612 157 672 231 q 444 83 551 83 q 286 157 346 83 q 226 381 226 231 l 226 936 l 104 936 l 104 385 q 195 81 104 178 q 440 -15 286 -15 q 698 84 601 -15 q 794 389 794 183 l 794 863 l 815 864 q 908 897 876 865 q 940 982 940 929 q 917 1086 940 1035 l 824 1069 "},"ư":{"ha":765,"x_min":97,"x_max":797,"o":"m 679 807 q 704 728 704 767 q 639 672 704 672 l 542 672 l 542 261 q 531 199 542 225 q 469 119 513 153 q 369 86 426 86 q 219 300 219 86 l 219 672 l 97 672 l 97 279 q 118 135 97 196 q 174 44 139 75 q 248 -1 210 13 q 329 -15 286 -15 q 467 22 410 -15 q 551 110 524 60 l 554 110 l 561 0 l 669 0 q 664 183 664 71 l 664 606 l 679 606 q 764 640 731 608 q 797 724 797 672 q 772 824 797 776 l 679 807 "},"Ǻ":{"ha":850,"x_min":35,"x_max":819,"o":"m 433 961 q 524 991 490 961 q 558 1068 558 1021 q 525 1147 558 1115 q 435 1178 492 1178 q 342 1146 376 1178 q 307 1068 307 1114 q 341 992 307 1022 q 433 961 375 961 m 432 1013 q 388 1028 406 1013 q 371 1068 371 1044 q 387 1110 371 1093 q 431 1128 403 1128 q 477 1111 460 1128 q 494 1069 494 1094 q 477 1028 494 1043 q 432 1013 460 1013 m 508 1322 l 360 1203 l 468 1203 l 667 1322 l 508 1322 m 590 294 l 690 0 l 819 0 l 500 936 l 353 936 l 35 0 l 160 0 l 257 294 l 590 294 m 282 389 l 374 660 q 421 829 389 704 l 424 829 q 472 658 453 715 l 565 389 l 282 389 "},"ǻ":{"ha":669,"x_min":49,"x_max":583,"o":"m 413 1158 l 264 1011 l 350 1011 l 547 1158 l 413 1158 m 574 413 q 516 608 574 531 q 318 686 458 686 q 97 628 190 686 l 125 546 q 300 596 199 596 q 381 581 349 596 q 428 539 414 565 q 448 490 443 513 q 453 442 453 467 l 453 428 q 153 365 258 429 q 49 178 49 300 q 103 42 49 99 q 254 -15 157 -15 q 376 13 322 -15 q 458 85 429 42 l 463 85 l 474 0 l 583 0 q 574 161 574 64 l 574 413 m 456 226 q 450 188 456 204 q 390 108 433 140 q 286 75 347 75 q 203 105 236 75 q 171 192 171 135 q 454 343 171 349 l 456 226 m 335 722 q 433 758 393 722 q 474 849 474 794 q 435 942 474 906 q 336 979 397 979 q 233 942 272 979 q 194 849 194 906 q 234 758 194 794 q 335 722 274 722 m 333 774 q 285 797 304 774 q 265 849 265 819 q 283 905 265 882 q 332 928 301 928 q 385 906 365 928 q 406 850 406 883 q 385 796 406 818 q 333 774 365 774 "},"Ǽ":{"ha":1094,"x_min":-1,"x_max":1050,"o":"m 124 0 l 274 329 l 561 329 l 603 0 l 1049 0 l 1050 101 l 707 101 l 665 436 l 999 436 l 999 536 l 650 536 l 614 835 l 1011 835 l 1013 936 l 426 936 l -1 0 l 124 0 m 314 428 l 435 701 q 494 849 481 810 l 500 849 q 517 697 503 808 l 547 428 l 314 428 m 678 1149 l 550 986 l 649 986 l 826 1149 l 678 1149 "},"ǽ":{"ha":1074,"x_min":50,"x_max":1024,"o":"m 1019 324 q 1024 378 1024 342 q 1010 474 1024 425 q 970 572 997 522 q 888 654 943 622 q 761 686 833 686 q 621 649 682 686 q 526 544 560 611 l 524 544 q 307 686 478 686 q 97 625 192 686 l 126 546 q 299 596 199 596 q 380 578 346 596 q 428 533 414 560 q 449 485 443 507 q 454 447 454 464 l 454 419 q 156 358 261 422 q 50 176 50 294 q 105 41 50 97 q 260 -15 160 -15 q 411 24 346 -15 q 508 133 476 64 l 513 133 q 610 24 542 63 q 768 -15 679 -15 q 989 31 901 -15 l 967 117 q 783 79 886 79 q 625 143 685 79 q 568 324 565 207 l 1019 324 m 457 239 q 450 190 457 215 q 392 107 435 140 q 288 75 350 74 q 204 105 238 75 q 171 186 171 135 q 457 338 171 343 l 457 239 m 568 411 q 619 540 572 481 q 749 600 665 600 q 844 566 806 600 q 895 491 882 532 q 907 411 908 450 l 568 411 m 594 963 l 474 764 l 560 764 l 729 963 l 594 963 "},"Ǿ":{"ha":957,"x_min":50,"x_max":906,"o":"m 156 -60 l 243 60 q 479 -15 346 -15 q 782 114 658 -15 q 906 476 906 243 q 785 821 906 689 l 871 940 l 797 990 l 715 878 q 482 953 615 953 q 172 818 294 953 q 50 464 50 683 q 174 117 50 251 l 88 -4 l 156 -60 m 244 219 l 242 218 q 174 469 174 336 q 254 742 174 628 q 479 856 335 856 q 656 790 579 856 l 244 219 m 713 717 l 717 717 q 782 472 782 608 q 700 194 782 307 q 478 82 618 82 q 303 149 374 82 l 713 717 m 544 1160 l 415 997 l 514 997 l 692 1160 l 544 1160 "},"ǿ":{"ha":763,"x_min":53,"x_max":710,"o":"m 385 686 q 147 590 242 686 q 53 332 53 494 q 157 72 53 172 l 99 -11 l 150 -53 l 211 32 q 382 -15 283 -15 q 611 76 513 -15 q 710 340 710 168 q 607 597 710 499 l 667 685 l 613 722 l 554 639 q 385 686 481 686 m 224 165 l 221 167 q 172 335 172 235 q 225 516 172 438 q 381 594 278 594 q 499 554 451 594 l 224 165 m 540 501 l 543 501 q 590 336 590 431 q 531 149 590 222 q 378 76 472 76 q 265 115 313 76 l 540 501 m 438 963 l 315 764 l 401 764 l 571 963 l 438 963 "},"Ș":{"ha":685,"x_min":58,"x_max":624,"o":"m 58 46 q 164 2 97 19 q 297 -15 231 -15 q 540 63 456 -15 q 624 256 624 140 q 566 419 624 356 q 386 531 508 483 q 242 608 285 569 q 200 711 200 647 q 244 809 200 767 q 376 851 289 851 q 553 807 481 851 l 586 906 q 381 951 508 951 q 162 880 246 951 q 78 697 78 808 q 325 431 78 521 q 460 352 419 394 q 501 246 501 310 q 449 130 501 174 q 306 86 397 86 q 90 147 186 86 l 58 46 m 258 -308 q 383 -267 331 -304 q 436 -160 436 -229 q 381 -57 436 -93 l 290 -76 q 338 -161 338 -115 q 233 -251 338 -235 l 258 -308 "},"ș":{"ha":550,"x_min":56,"x_max":494,"o":"m 56 32 q 244 -15 136 -15 q 428 40 361 -15 q 494 188 494 96 q 451 308 494 260 q 318 389 407 356 q 220 440 249 417 q 192 504 192 464 q 221 569 192 543 q 303 596 250 596 q 440 556 376 596 l 469 644 q 306 686 406 686 q 138 629 201 686 q 74 489 74 572 q 253 299 74 364 q 349 247 321 274 q 376 176 376 219 q 343 104 376 132 q 247 76 310 76 q 85 124 164 76 l 56 32 m 189 -308 q 315 -267 263 -304 q 368 -160 368 -231 q 313 -57 368 -93 l 222 -76 q 269 -161 269 -112 q 165 -251 269 -235 l 189 -308 "},"Ț":{"ha":690,"x_min":-1,"x_max":692,"o":"m 283 0 l 406 0 l 406 833 l 692 833 l 692 936 l -1 936 l -1 833 l 283 833 l 283 0 m 250 -308 q 376 -267 324 -304 q 429 -160 429 -231 q 374 -57 429 -93 l 283 -76 q 331 -161 331 -115 q 226 -251 331 -235 l 250 -308 "},"ț":{"ha":460,"x_min":25,"x_max":424,"o":"m 129 797 l 129 672 l 25 672 l 25 579 l 129 579 l 129 213 q 176 36 129 89 q 308 -15 224 -15 q 417 1 369 -15 l 411 94 q 340 86 383 86 q 249 217 249 86 l 249 579 l 424 579 l 424 672 l 249 672 l 249 833 l 129 797 m 169 -315 q 296 -274 243 -311 q 349 -167 349 -237 q 293 -64 349 -100 l 203 -83 q 250 -168 250 -119 q 146 -258 250 -242 l 169 -315 "},"Ȝ":{"ha":667,"x_min":43,"x_max":613,"o":"m 88 -160 q 469 -16 326 -132 q 613 260 613 100 q 542 438 613 369 q 364 515 472 506 l 364 519 q 487 613 439 554 q 535 747 535 672 q 465 896 535 839 q 282 953 394 953 q 149 933 217 953 q 43 888 82 913 l 68 806 q 258 856 164 856 q 369 819 326 854 q 413 728 413 785 q 334 586 413 649 q 133 497 256 524 l 150 411 q 281 435 224 435 q 430 384 375 436 q 485 253 485 332 q 365 48 485 135 q 72 -64 246 -39 l 88 -160 "},"ȝ":{"ha":593,"x_min":26,"x_max":556,"o":"m 60 -290 q 424 -167 293 -271 q 556 79 556 -62 q 497 228 556 169 q 340 297 438 286 l 340 300 q 448 378 408 328 q 488 496 488 429 q 423 634 488 582 q 253 686 358 686 q 26 618 132 686 l 53 538 q 224 590 150 590 q 329 560 290 590 q 368 474 368 529 q 113 282 368 342 l 129 196 q 251 217 203 217 q 385 174 339 217 q 431 65 431 131 q 395 -44 431 4 q 313 -119 360 -92 q 205 -164 265 -146 q 110 -188 144 -182 q 49 -196 75 -194 l 60 -290 "},"Ȳ":{"ha":751,"x_min":17,"x_max":749,"o":"m 436 0 l 436 399 l 749 936 l 613 936 l 478 678 q 383 485 400 524 l 381 485 q 288 678 364 521 l 156 936 l 17 936 l 314 397 l 314 0 l 436 0 m 210 1094 l 210 1018 l 543 1018 l 543 1094 l 210 1094 "},"ȳ":{"ha":654,"x_min":13,"x_max":644,"o":"m 13 672 l 260 53 q 269 21 269 32 q 260 -8 269 14 q 157 -144 219 -96 q 50 -204 108 -186 l 81 -306 q 231 -228 154 -292 q 342 -79 292 -174 q 461 193 393 15 l 644 672 l 515 672 l 382 278 q 356 195 372 249 q 339 138 340 142 l 336 138 q 292 275 317 210 l 146 672 l 13 672 m 172 893 l 172 814 l 485 814 l 485 893 l 172 893 "},"ˆ":{"ha":417,"x_min":35,"x_max":383,"o":"m 165 963 l 35 764 l 126 764 l 207 894 l 210 894 l 290 764 l 383 764 l 250 963 l 165 963 "},"ˇ":{"ha":417,"x_min":33,"x_max":385,"o":"m 254 764 l 385 963 l 293 963 l 211 831 l 208 831 l 126 963 l 33 963 l 167 764 l 254 764 "},"ˉ":{"ha":417,"x_min":53,"x_max":365,"o":"m 53 893 l 53 814 l 365 814 l 365 893 l 53 893 "},"˘":{"ha":417,"x_min":36,"x_max":381,"o":"m 36 947 q 79 824 36 875 q 208 774 122 774 q 333 822 286 774 q 381 947 381 869 l 308 947 q 279 879 304 907 q 207 851 254 851 q 141 878 167 851 q 108 947 115 904 l 36 947 "},"˙":{"ha":417,"x_min":124,"x_max":263,"o":"m 193 792 q 243 813 224 792 q 263 863 263 833 q 243 914 263 893 q 194 935 224 935 q 144 914 165 935 q 124 863 124 893 q 144 813 124 833 q 193 792 164 792 "},"˚":{"ha":417,"x_min":57,"x_max":336,"o":"m 197 746 q 297 782 257 746 q 336 872 336 818 q 298 966 336 929 q 199 1003 260 1003 q 96 965 135 1003 q 57 872 57 928 q 97 782 57 818 q 197 746 136 746 m 197 797 q 147 820 167 797 q 128 872 128 843 q 146 928 128 906 q 196 951 164 951 q 248 929 228 951 q 268 874 268 907 q 249 819 268 842 q 197 797 229 797 "},"˛":{"ha":417,"x_min":88,"x_max":329,"o":"m 171 6 q 88 -165 88 -85 q 123 -253 88 -222 q 218 -285 158 -285 q 329 -253 285 -285 l 310 -189 q 246 -203 282 -203 q 195 -184 214 -203 q 176 -133 176 -165 q 250 6 176 -87 l 171 6 "},"˜":{"ha":417,"x_min":38,"x_max":381,"o":"m 104 788 q 140 850 108 850 q 200 825 158 850 q 286 796 256 796 q 381 936 383 796 l 315 936 q 278 878 311 878 q 218 901 260 878 q 132 932 160 932 q 61 893 86 932 q 38 788 36 854 l 104 788 "},"˝":{"ha":417,"x_min":61,"x_max":490,"o":"m 171 963 l 61 774 l 138 774 l 290 963 l 171 963 m 371 963 l 261 774 l 338 774 l 490 963 l 371 963 "},";":{"ha":301,"x_min":42,"x_max":253,"o":"m 128 -161 q 189 -9 154 -107 q 240 165 224 89 l 106 158 q 42 -171 93 11 l 128 -161 m 164 449 q 228 475 204 449 q 253 540 253 501 q 229 606 253 581 q 167 632 206 632 q 103 606 128 632 q 79 540 79 581 q 103 475 79 501 q 164 449 126 449 "},"΄":{"ha":418,"x_min":117,"x_max":314,"o":"m 190 964 l 117 765 l 199 765 l 314 964 l 190 964 "},"΅":{"ha":481,"x_min":6,"x_max":471,"o":"m 211 986 l 182 768 l 249 768 l 317 986 l 211 986 m 116 815 q 135 861 135 835 q 117 908 135 889 q 72 928 99 928 q 25 908 44 928 q 6 861 6 889 q 24 815 6 835 q 69 796 42 796 q 107 806 97 796 q 116 815 116 815 m 404 796 q 452 815 433 796 q 471 861 471 835 q 452 908 471 889 q 407 928 433 928 q 360 908 379 928 q 342 861 342 889 q 360 815 342 835 q 404 796 378 796 "},"Ά":{"ha":854,"x_min":40,"x_max":824,"o":"m 593 294 l 694 0 l 824 0 l 504 936 l 358 936 l 40 0 l 165 0 l 263 294 l 593 294 m 286 389 l 379 660 q 425 829 392 699 l 428 829 q 476 658 451 736 l 569 389 l 286 389 m 97 936 l 88 721 l 160 721 l 207 936 l 97 936 "},"·":{"ha":301,"x_min":61,"x_max":239,"o":"m 149 349 q 214 375 189 349 q 239 442 239 401 q 215 511 239 485 q 150 538 190 538 q 86 510 111 538 q 61 442 61 483 q 86 376 61 403 q 149 349 111 349 "},"Έ":{"ha":779,"x_min":0,"x_max":729,"o":"m 686 539 l 324 539 l 324 835 l 708 835 l 708 936 l 201 936 l 201 0 l 729 0 l 729 101 l 324 101 l 324 439 l 686 439 l 686 539 m 10 936 l 0 721 l 72 721 l 121 936 l 10 936 "},"Ή":{"ha":1003,"x_min":0,"x_max":897,"o":"m 201 936 l 201 0 l 322 0 l 322 439 l 775 439 l 775 0 l 897 0 l 897 936 l 775 936 l 775 544 l 322 544 l 322 936 l 201 936 m 10 936 l 0 721 l 72 721 l 119 936 l 10 936 "},"Ί":{"ha":429,"x_min":0,"x_max":324,"o":"m 201 936 l 201 0 l 324 0 l 324 936 l 201 936 m 10 936 l 0 721 l 72 721 l 121 936 l 10 936 "},"Ό":{"ha":1011,"x_min":0,"x_max":961,"o":"m 526 -15 q 838 115 714 -15 q 961 478 961 246 q 846 821 961 689 q 539 953 731 953 q 227 817 349 953 q 106 461 106 682 q 223 117 106 249 q 526 -15 340 -15 m 533 83 q 315 195 396 83 q 233 464 233 307 q 313 740 233 626 q 535 854 392 854 q 755 740 676 854 q 833 472 833 626 q 753 194 833 306 q 533 83 672 83 m 10 936 l 0 721 l 72 721 l 121 936 l 10 936 "},"Ύ":{"ha":982,"x_min":0,"x_max":974,"o":"m 178 846 q 362 717 276 824 q 486 431 447 610 q 506 242 506 342 l 506 0 l 628 0 l 628 240 q 653 432 628 332 q 789 704 696 597 q 974 846 882 811 l 953 944 q 847 902 906 938 q 740 815 789 867 q 578 475 607 671 l 572 475 q 428 818 546 686 q 317 906 382 871 q 199 944 251 940 l 178 846 m 10 936 l 0 721 l 72 721 l 119 936 l 10 936 "},"Ώ":{"ha":1031,"x_min":0,"x_max":988,"o":"m 785 100 q 917 269 864 164 q 969 508 969 374 q 853 826 969 699 q 547 953 738 953 q 235 824 360 953 q 111 496 111 696 q 163 267 111 369 q 294 100 215 165 l 294 96 l 92 96 l 92 0 l 444 0 l 444 76 q 298 243 358 131 q 238 486 238 356 q 321 744 238 635 q 544 854 404 854 q 764 742 683 854 q 844 488 844 629 q 786 244 844 350 q 636 76 728 138 l 636 0 l 988 0 l 988 96 l 785 96 l 785 100 m 10 936 l 0 721 l 72 721 l 121 936 l 10 936 "},"ΐ":{"ha":328,"x_min":-57,"x_max":406,"o":"m 224 672 l 103 672 l 103 150 q 135 21 103 57 q 228 -15 168 -15 q 281 -8 260 -15 l 289 81 q 237 97 250 79 q 224 163 224 115 l 224 672 m 149 967 l 119 750 l 185 750 l 253 967 l 149 967 m 6 778 q 51 797 33 778 q 69 843 69 817 q 52 889 69 871 q 8 907 35 907 q -37 888 -18 907 q -57 843 -57 869 q -39 797 -57 817 q 6 778 -21 778 m 340 778 q 388 797 369 778 q 406 843 406 817 q 388 889 406 871 q 343 907 369 907 q 298 888 317 907 q 279 843 279 869 q 297 797 279 817 q 340 778 315 778 "},"Α":{"ha":850,"x_min":35,"x_max":818,"o":"m 589 294 l 689 0 l 818 0 l 499 936 l 354 936 l 35 0 l 160 0 l 257 294 l 589 294 m 282 389 l 374 660 q 421 829 389 704 l 424 829 q 472 658 453 715 l 565 389 l 282 389 "},"Β":{"ha":753,"x_min":106,"x_max":696,"o":"m 106 3 q 293 -8 186 -8 q 615 79 522 -8 q 696 267 696 153 q 638 422 696 363 q 503 500 581 482 l 503 504 q 619 586 576 531 q 661 710 661 642 q 582 875 661 817 q 326 943 500 943 q 106 922 193 943 l 106 3 m 226 842 q 333 850 265 850 q 538 697 538 850 q 483 583 538 628 q 336 539 429 539 l 226 539 l 226 842 m 226 449 l 326 449 q 500 403 432 449 q 568 268 568 358 q 500 130 568 174 q 328 86 432 86 q 226 92 260 86 l 226 449 "},"Γ":{"ha":626,"x_min":104,"x_max":607,"o":"m 104 936 l 104 0 l 226 0 l 226 835 l 607 835 l 607 936 l 104 936 "},"Δ":{"ha":861,"x_min":36,"x_max":821,"o":"m 36 0 l 821 0 l 821 69 l 499 936 l 361 936 l 36 69 l 36 0 m 165 101 l 361 635 q 422 825 410 776 l 426 825 q 496 617 446 754 l 686 101 l 165 101 "},"Ε":{"ha":683,"x_min":104,"x_max":632,"o":"m 589 539 l 226 539 l 226 835 l 611 835 l 611 936 l 104 936 l 104 0 l 632 0 l 632 101 l 226 101 l 226 439 l 589 439 l 589 539 "},"Ζ":{"ha":768,"x_min":42,"x_max":725,"o":"m 42 0 l 725 0 l 725 101 l 201 101 l 201 106 l 718 863 l 718 936 l 86 936 l 86 835 l 560 835 l 560 831 l 42 71 l 42 0 "},"Η":{"ha":906,"x_min":104,"x_max":801,"o":"m 104 936 l 104 0 l 226 0 l 226 439 l 679 439 l 679 0 l 801 0 l 801 936 l 679 936 l 679 544 l 226 544 l 226 936 l 104 936 "},"Θ":{"ha":957,"x_min":50,"x_max":907,"o":"m 783 115 q 907 476 907 246 q 791 821 907 689 q 485 953 675 953 q 172 817 294 953 q 50 460 50 681 q 167 116 50 247 q 472 -15 285 -15 q 722 50 660 -15 q 783 115 783 115 m 479 83 q 260 195 342 83 q 178 463 178 307 q 257 740 178 626 q 481 854 336 854 q 701 740 622 854 q 779 472 779 626 q 699 194 779 306 q 479 83 618 83 m 290 532 l 290 432 l 667 432 l 667 532 l 290 532 "},"Ι":{"ha":332,"x_min":104,"x_max":226,"o":"m 104 936 l 104 0 l 226 0 l 226 936 l 104 936 "},"Κ":{"ha":753,"x_min":106,"x_max":767,"o":"m 106 0 l 226 0 l 226 357 l 317 460 l 624 0 l 767 0 l 401 539 l 740 936 l 590 936 l 304 585 q 231 485 263 531 l 226 485 l 226 936 l 106 936 l 106 0 "},"Λ":{"ha":846,"x_min":35,"x_max":819,"o":"m 819 0 l 497 936 l 354 936 l 35 0 l 161 0 l 374 646 q 419 822 403 744 l 424 822 q 472 644 450 714 l 689 0 l 819 0 "},"Μ":{"ha":1117,"x_min":81,"x_max":1036,"o":"m 917 0 l 1036 0 l 978 936 l 824 936 l 657 483 q 557 168 590 296 l 554 168 q 460 483 515 317 l 300 936 l 146 936 l 81 0 l 196 0 l 221 401 q 239 815 235 636 l 242 815 q 349 451 278 665 l 501 6 l 593 6 l 758 460 q 876 815 813 610 l 879 815 q 894 411 879 699 l 917 0 "},"Ν":{"ha":914,"x_min":106,"x_max":808,"o":"m 219 0 l 219 400 q 211 786 219 644 l 215 788 q 389 475 272 660 l 686 0 l 808 0 l 808 936 l 694 936 l 694 544 q 708 160 694 317 l 704 158 q 538 463 646 288 l 239 936 l 106 936 l 106 0 l 219 0 "},"Ξ":{"ha":750,"x_min":60,"x_max":701,"o":"m 75 936 l 75 836 l 686 836 l 686 936 l 75 936 m 121 535 l 121 435 l 640 435 l 640 535 l 121 535 m 60 101 l 60 0 l 701 0 l 701 101 l 60 101 "},"Ο":{"ha":957,"x_min":50,"x_max":906,"o":"m 471 -15 q 782 115 658 -15 q 906 478 906 246 q 790 821 906 689 q 483 953 675 953 q 172 817 293 953 q 50 461 50 682 q 167 117 50 249 q 471 -15 285 -15 m 478 83 q 259 195 340 83 q 178 464 178 307 q 257 740 178 626 q 479 854 336 854 q 699 740 621 854 q 778 472 778 626 q 697 194 778 306 q 478 83 617 83 "},"Π":{"ha":881,"x_min":104,"x_max":775,"o":"m 775 936 l 104 936 l 104 0 l 226 0 l 226 833 l 653 833 l 653 0 l 775 0 l 775 936 "},"Ρ":{"ha":739,"x_min":106,"x_max":682,"o":"m 106 0 l 226 0 l 226 375 q 324 367 260 367 q 610 469 511 367 q 682 669 682 544 q 600 865 682 793 q 338 943 514 943 q 106 925 214 943 l 106 0 m 226 838 q 340 847 263 847 q 502 801 443 847 q 561 663 561 754 q 499 516 561 568 q 326 464 436 464 q 226 474 264 464 l 226 838 "},"Σ":{"ha":767,"x_min":36,"x_max":728,"o":"m 194 106 l 496 469 l 210 831 l 210 836 l 683 836 l 683 936 l 53 936 l 53 856 l 361 465 l 36 72 l 36 0 l 728 0 l 728 101 l 194 101 l 194 106 "},"Τ":{"ha":690,"x_min":-1,"x_max":692,"o":"m 283 0 l 406 0 l 406 833 l 692 833 l 692 936 l -1 936 l -1 833 l 283 833 l 283 0 "},"Υ":{"ha":817,"x_min":15,"x_max":811,"o":"m 15 846 q 199 717 114 824 q 324 431 285 610 q 343 242 343 342 l 343 0 l 465 0 l 465 240 q 490 432 465 332 q 626 704 533 597 q 811 846 719 811 l 790 944 q 685 902 743 938 q 578 815 626 867 q 415 475 444 671 l 410 475 q 265 818 383 686 q 154 906 219 871 q 36 944 89 940 l 15 846 "},"Φ":{"ha":997,"x_min":50,"x_max":947,"o":"m 556 36 q 699 72 631 42 q 824 153 768 101 q 914 288 881 206 q 947 469 947 369 q 832 778 947 664 q 558 903 717 892 l 558 972 l 442 972 l 442 903 q 305 868 372 897 q 179 787 238 839 q 85 650 121 735 q 50 463 50 565 q 165 159 50 268 q 439 36 279 50 l 439 -36 l 556 -36 l 556 36 m 440 124 q 253 228 331 138 q 175 465 175 319 q 257 715 175 622 q 440 817 339 808 l 440 124 m 557 817 q 744 715 665 807 q 822 467 822 624 q 744 224 822 315 q 557 124 665 133 l 557 817 "},"Χ":{"ha":793,"x_min":35,"x_max":758,"o":"m 758 0 l 467 481 l 751 936 l 611 936 l 485 717 q 400 558 433 628 l 396 558 q 310 717 368 615 l 186 936 l 46 936 l 321 474 l 35 0 l 174 0 l 286 206 q 388 392 346 307 l 390 392 q 497 207 436 306 l 618 0 l 758 0 "},"Ψ":{"ha":951,"x_min":65,"x_max":886,"o":"m 886 936 l 768 936 l 768 678 q 702 457 768 528 q 533 381 636 386 l 533 936 l 418 936 l 418 382 q 183 651 183 394 l 183 936 l 65 936 l 65 631 q 94 475 65 542 q 174 369 124 408 q 286 309 225 329 q 418 286 347 289 l 418 0 l 533 0 l 533 286 q 790 392 694 294 q 886 665 886 489 l 886 936 "},"Ω":{"ha":979,"x_min":42,"x_max":938,"o":"m 733 100 q 865 272 813 168 q 918 510 918 376 q 802 826 918 700 q 496 953 686 953 q 184 825 308 953 q 60 497 60 697 q 114 269 61 372 q 244 100 167 165 l 244 96 l 42 96 l 42 0 l 394 0 l 394 76 q 247 246 308 131 q 186 488 186 361 q 269 744 186 635 q 493 854 353 854 q 713 743 632 854 q 793 490 793 632 q 735 247 793 356 q 586 76 676 138 l 586 0 l 938 0 l 938 96 l 733 96 l 733 100 "},"Ϊ":{"ha":332,"x_min":-31,"x_max":361,"o":"m 38 988 q 87 1008 68 988 q 106 1057 106 1028 q 86 1106 106 1086 q 39 1126 67 1126 q -10 1106 10 1126 q -31 1057 -31 1085 q -11 1008 -31 1028 q 38 988 8 988 m 292 988 q 342 1008 324 988 q 361 1057 361 1028 q 342 1106 361 1086 q 294 1126 322 1126 q 245 1106 265 1126 q 225 1057 225 1086 q 244 1008 225 1028 q 292 988 263 988 m 104 936 l 104 0 l 226 0 l 226 936 l 104 936 "},"Ϋ":{"ha":817,"x_min":15,"x_max":811,"o":"m 286 968 q 335 988 317 968 q 354 1038 354 1008 q 335 1087 354 1067 q 288 1107 315 1107 q 238 1086 258 1107 q 218 1038 218 1065 q 238 988 218 1008 q 286 968 257 968 m 540 968 q 591 988 572 968 q 610 1038 610 1008 q 590 1087 610 1067 q 543 1107 571 1107 q 494 1087 514 1107 q 474 1038 474 1067 q 492 988 474 1008 q 540 968 511 968 m 15 846 q 199 717 114 824 q 324 431 285 610 q 343 242 343 342 l 343 0 l 465 0 l 465 240 q 490 432 465 332 q 626 704 533 597 q 811 846 719 811 l 790 944 q 685 902 743 938 q 578 815 626 867 q 415 475 444 671 l 410 475 q 265 818 383 686 q 154 906 219 871 q 36 944 89 940 l 15 846 "},"ά":{"ha":765,"x_min":53,"x_max":728,"o":"m 397 953 l 322 754 l 404 754 l 519 953 l 397 953 m 578 672 q 565 554 569 621 l 560 554 q 353 686 501 686 q 142 584 232 686 q 53 322 53 482 q 130 78 53 171 q 328 -15 207 -15 q 557 126 481 -15 l 561 126 q 676 -15 571 -15 q 718 -10 706 -15 l 728 78 q 676 105 692 79 q 661 190 661 131 q 679 672 661 488 l 578 672 m 176 326 q 231 515 176 440 q 368 590 285 590 q 480 540 432 590 q 540 419 528 490 q 546 346 546 396 q 538 251 546 288 q 470 133 521 183 q 358 82 419 82 q 226 153 275 82 q 176 324 176 225 l 176 326 "},"έ":{"ha":611,"x_min":54,"x_max":583,"o":"m 357 953 l 282 754 l 364 754 l 479 953 l 357 953 m 221 357 q 101 297 147 344 q 54 189 54 250 q 138 35 54 85 q 338 -15 221 -15 q 476 2 407 -15 q 583 46 544 19 l 561 128 q 472 93 528 108 q 364 78 415 78 q 234 110 286 78 q 182 199 182 142 q 240 285 182 257 q 393 314 297 314 l 479 314 l 479 400 l 397 400 q 261 424 313 400 q 210 497 210 449 q 252 569 210 542 q 365 597 294 597 q 461 584 413 597 q 533 554 510 571 l 560 635 q 356 686 483 686 q 158 632 229 686 q 88 506 88 578 q 221 363 90 392 l 221 357 "},"ή":{"ha":771,"x_min":82,"x_max":689,"o":"m 418 953 l 344 754 l 425 754 l 542 953 l 418 953 m 211 561 q 192 672 211 633 l 82 672 q 101 490 101 614 l 101 0 l 224 0 l 224 406 q 232 461 224 440 q 294 550 250 514 q 396 586 339 586 q 514 531 476 586 q 551 388 551 476 l 551 -29 q 572 -275 551 -224 l 689 -275 q 674 -25 674 -214 l 674 400 q 650 541 674 482 q 589 630 626 600 q 513 673 551 660 q 436 686 475 686 q 300 650 358 686 q 214 561 242 614 l 211 561 "},"ί":{"ha":328,"x_min":101,"x_max":310,"o":"m 185 953 l 111 754 l 193 754 l 310 953 l 185 953 m 224 672 l 101 672 l 101 150 q 135 21 101 57 q 228 -15 168 -15 q 282 -8 261 -15 l 289 81 q 237 97 250 79 q 224 163 224 115 l 224 672 "},"ΰ":{"ha":728,"x_min":78,"x_max":664,"o":"m 499 672 q 529 562 514 640 q 544 399 544 483 q 499 169 544 251 q 367 86 453 86 q 259 133 304 86 q 214 274 214 179 l 214 547 q 194 672 214 650 l 78 672 q 93 446 93 626 l 93 257 q 167 54 93 124 q 357 -15 240 -15 q 507 22 444 -15 q 602 124 569 60 q 649 259 635 189 q 664 410 664 329 q 649 562 664 488 q 614 672 633 636 l 499 672 m 336 965 l 307 749 l 372 749 l 440 965 l 336 965 m 193 778 q 239 797 221 778 q 257 842 257 815 q 240 888 257 869 q 196 906 222 906 q 149 887 168 906 q 131 842 131 868 q 149 797 131 815 q 193 778 167 778 m 529 778 q 576 797 558 778 q 594 842 594 815 q 576 888 594 869 q 532 906 558 906 q 487 888 506 906 q 468 842 468 869 q 485 797 468 815 q 529 778 503 778 "},"α":{"ha":765,"x_min":53,"x_max":728,"o":"m 578 672 q 565 554 569 621 l 560 554 q 353 686 501 686 q 142 584 232 686 q 53 322 53 482 q 130 78 53 171 q 328 -15 207 -15 q 557 126 481 -15 l 561 126 q 676 -15 571 -15 q 718 -10 706 -15 l 728 78 q 676 105 692 79 q 661 190 661 131 q 679 672 661 488 l 578 672 m 176 326 q 231 515 176 440 q 368 590 285 590 q 480 540 432 590 q 540 419 528 490 q 546 346 546 396 q 538 251 546 288 q 470 133 521 183 q 358 82 419 82 q 226 153 275 82 q 176 324 176 225 l 176 326 "},"β":{"ha":778,"x_min":99,"x_max":725,"o":"m 219 69 q 436 -15 301 -15 q 640 62 554 -15 q 725 272 725 139 q 665 450 725 381 q 519 536 606 519 l 519 543 q 608 626 571 568 q 644 760 644 683 q 575 934 644 867 q 400 1001 506 1001 q 203 928 279 1001 q 99 600 99 826 l 99 -39 q 119 -275 99 -219 l 233 -275 q 217 -24 217 -207 l 217 69 l 219 69 m 217 614 q 389 904 217 904 q 491 859 451 904 q 531 740 531 814 q 489 619 531 671 q 372 563 447 568 q 349 561 365 561 l 349 478 l 386 478 q 543 422 483 475 q 603 271 603 368 q 549 133 603 188 q 413 79 496 79 q 294 113 346 79 q 217 190 243 146 l 217 614 "},"γ":{"ha":644,"x_min":-7,"x_max":615,"o":"m 375 -275 q 371 3 371 -1 q 378 36 371 25 q 615 626 615 396 q 613 672 615 661 l 497 672 l 497 626 q 339 150 497 438 l 335 150 q 244 444 306 293 q 131 672 182 594 l -7 672 q 126 424 56 578 q 231 119 196 271 q 254 -275 263 -19 l 375 -275 "},"δ":{"ha":758,"x_min":53,"x_max":706,"o":"m 647 935 q 554 981 615 961 q 425 1001 493 1001 q 252 953 314 1001 q 190 844 190 906 q 276 706 190 776 l 307 681 l 307 674 q 124 532 194 621 q 53 324 53 443 q 148 76 53 167 q 379 -15 243 -15 q 612 80 518 -15 q 706 328 706 175 q 528 644 706 507 l 414 735 q 358 778 374 765 q 328 810 342 792 q 314 847 314 829 q 344 892 314 874 q 428 910 374 910 q 532 891 479 910 q 611 853 585 872 l 647 935 m 454 558 q 583 319 583 458 q 526 142 583 208 q 386 76 469 76 q 239 144 301 76 q 176 324 176 211 q 379 617 176 510 l 454 558 "},"ε":{"ha":611,"x_min":54,"x_max":583,"o":"m 221 357 q 101 299 147 346 q 54 189 54 251 q 138 35 54 85 q 338 -15 221 -15 q 476 2 407 -15 q 583 46 544 19 l 561 129 q 473 93 529 108 q 364 78 417 78 q 234 110 286 78 q 182 199 182 142 q 240 285 182 257 q 393 314 297 314 l 479 314 l 479 400 l 397 400 q 261 424 313 400 q 210 497 210 449 q 252 569 210 542 q 365 597 294 597 q 461 584 413 597 q 533 554 510 571 l 560 636 q 356 686 483 686 q 158 632 229 686 q 88 506 88 578 q 123 415 89 454 q 221 363 157 376 l 221 357 "},"ζ":{"ha":568,"x_min":54,"x_max":565,"o":"m 474 -199 q 531 -86 504 -160 q 557 44 557 -12 q 544 60 557 57 q 350 101 418 76 q 222 186 265 132 q 178 346 178 240 q 288 656 178 499 q 565 899 399 814 l 547 983 l 315 983 q 146 989 190 983 l 133 908 q 296 893 185 893 l 394 893 l 394 889 q 145 626 236 781 q 54 324 54 471 q 275 15 54 88 q 439 -22 343 -8 q 422 -101 438 -50 q 393 -175 407 -151 l 474 -199 "},"η":{"ha":771,"x_min":82,"x_max":689,"o":"m 211 561 q 192 672 211 633 l 82 672 q 101 490 101 614 l 101 0 l 224 0 l 224 406 q 232 461 224 440 q 294 550 250 514 q 396 586 339 586 q 514 531 476 586 q 551 388 551 476 l 551 -29 q 572 -275 551 -224 l 689 -275 q 674 -25 674 -214 l 674 400 q 650 541 674 482 q 589 630 626 600 q 513 673 551 660 q 436 686 475 686 q 300 650 358 686 q 214 561 242 614 l 211 561 "},"θ":{"ha":742,"x_min":53,"x_max":689,"o":"m 372 -15 q 610 122 531 -15 q 689 501 689 260 q 611 867 689 733 q 378 1001 533 1001 q 138 862 224 1001 q 53 501 53 722 q 137 117 53 249 q 372 -15 221 -15 m 174 554 q 228 807 174 703 q 371 911 282 911 q 518 811 468 911 q 568 554 568 711 l 174 554 m 569 464 q 520 181 569 286 q 376 75 471 75 q 229 178 285 75 q 174 464 174 282 l 569 464 "},"ι":{"ha":328,"x_min":101,"x_max":289,"o":"m 224 672 l 101 672 l 101 150 q 135 21 101 57 q 228 -15 168 -15 q 282 -8 261 -15 l 289 81 q 237 97 250 79 q 224 163 224 115 l 224 672 "},"κ":{"ha":685,"x_min":88,"x_max":676,"o":"m 347 364 l 667 667 l 667 672 l 524 672 q 406 551 511 660 q 229 374 300 442 l 224 374 l 224 558 q 204 672 224 649 l 88 672 q 103 526 103 635 l 103 0 l 224 0 l 224 299 l 236 299 q 429 143 311 297 l 535 0 l 676 0 l 554 168 q 347 360 422 343 l 347 364 "},"λ":{"ha":656,"x_min":10,"x_max":635,"o":"m 506 0 l 635 0 l 378 683 q 258 924 314 849 q 111 1000 201 1000 q 64 994 79 1000 l 53 900 q 76 901 61 901 q 174 847 133 901 q 251 690 214 792 q 260 654 260 671 q 253 622 260 642 l 10 0 l 136 0 l 275 389 q 318 531 310 494 l 324 531 q 369 385 349 442 l 506 0 "},"μ":{"ha":768,"x_min":101,"x_max":732,"o":"m 560 104 q 679 -15 575 -15 q 722 -10 701 -15 l 732 79 q 682 104 696 81 q 668 185 668 128 l 668 672 l 546 672 l 546 261 q 535 197 546 226 q 474 118 517 151 q 375 85 432 85 q 261 138 299 85 q 224 275 224 190 l 224 672 l 101 672 l 101 -26 q 121 -275 101 -217 l 231 -275 q 215 -21 215 -207 l 215 61 q 363 -12 257 -12 q 481 22 431 -12 q 556 104 531 57 l 560 104 "},"ν":{"ha":651,"x_min":6,"x_max":617,"o":"m 6 672 l 251 0 l 367 0 q 551 345 485 196 q 617 624 617 494 q 613 672 617 651 l 499 672 q 500 610 500 653 q 326 119 500 458 l 321 119 q 264 296 279 253 l 135 672 l 6 672 "},"ξ":{"ha":601,"x_min":54,"x_max":592,"o":"m 501 603 q 467 603 489 603 q 435 604 444 604 q 294 648 349 607 q 239 760 239 689 q 285 867 239 822 q 414 911 331 911 q 550 879 494 911 l 576 964 q 407 1001 511 1001 q 193 931 269 1001 q 117 767 117 861 q 271 571 117 621 l 271 564 q 116 465 178 539 q 54 294 54 392 q 81 174 54 226 q 147 89 108 121 q 247 33 186 57 q 358 -1 308 10 q 474 -22 408 -12 q 458 -100 472 -49 q 429 -175 443 -151 l 508 -199 q 565 -85 539 -161 q 592 44 592 -8 q 578 60 592 60 q 394 93 475 72 q 234 173 288 122 q 181 306 181 224 q 253 456 181 397 q 464 515 325 514 l 501 515 l 501 603 "},"ο":{"ha":763,"x_min":53,"x_max":710,"o":"m 375 -15 q 610 76 510 -15 q 710 342 710 168 q 620 590 710 494 q 386 686 531 686 q 148 590 243 686 q 53 331 53 493 q 144 80 53 175 q 375 -15 236 -15 m 381 76 q 235 150 292 76 q 178 335 178 224 q 231 517 178 440 q 383 594 283 594 q 534 515 483 594 q 585 338 585 436 q 526 151 585 225 q 381 76 468 76 "},"π":{"ha":771,"x_min":19,"x_max":735,"o":"m 722 578 l 735 672 l 213 672 q 19 638 71 672 l 36 565 q 172 578 89 578 q 142 267 169 438 q 79 0 115 96 l 194 0 q 257 257 229 79 q 289 578 285 435 l 508 578 l 508 188 q 531 0 508 38 l 647 0 q 629 200 629 64 l 629 578 l 722 578 "},"ρ":{"ha":782,"x_min":94,"x_max":731,"o":"m 218 83 q 422 -15 282 -15 q 640 81 550 -15 q 731 346 731 176 q 647 592 731 497 q 422 686 563 686 q 192 588 283 686 q 94 281 94 485 l 94 -31 q 110 -275 94 -218 l 226 -275 q 215 -25 215 -211 l 215 83 l 218 83 m 215 319 q 274 518 215 450 q 413 586 332 586 q 555 516 503 586 q 607 342 607 446 q 552 153 607 226 q 403 81 497 81 q 288 119 339 81 q 221 215 238 157 q 215 264 215 236 l 215 319 "},"ς":{"ha":579,"x_min":53,"x_max":567,"o":"m 567 656 q 415 686 510 686 q 151 578 249 686 q 53 325 53 469 q 122 117 53 197 q 306 6 192 38 q 443 -24 372 -12 q 426 -101 440 -50 q 397 -175 411 -153 l 479 -200 q 533 -89 507 -164 q 558 40 558 -14 q 546 60 558 58 q 365 97 438 76 q 176 335 176 154 q 242 517 176 442 q 415 592 308 592 q 539 567 482 592 l 567 656 "},"σ":{"ha":769,"x_min":53,"x_max":753,"o":"m 572 599 q 749 594 671 594 l 753 688 q 601 686 740 686 l 528 686 l 399 686 q 149 590 244 686 q 53 329 53 494 q 144 79 53 174 q 375 -15 236 -15 q 600 76 503 -15 q 697 340 697 168 q 664 485 697 417 q 572 594 631 553 l 572 599 m 379 76 q 235 150 292 76 q 178 335 178 224 q 230 517 178 439 q 379 594 282 594 q 526 516 475 594 q 576 340 576 438 q 519 151 576 226 q 379 76 463 76 "},"τ":{"ha":574,"x_min":-7,"x_max":563,"o":"m 446 83 q 417 82 439 82 q 340 196 340 82 l 340 578 l 547 578 l 563 672 l 175 672 q -7 638 39 672 l 8 567 q 144 578 67 578 l 218 578 l 218 193 q 256 35 218 86 q 374 -15 293 -15 q 440 -3 422 -15 l 446 83 "},"υ":{"ha":728,"x_min":78,"x_max":664,"o":"m 499 672 q 529 562 514 640 q 544 399 544 483 q 499 169 544 251 q 367 86 453 86 q 259 133 304 86 q 214 274 214 179 l 214 547 q 194 672 214 650 l 78 672 q 93 446 93 626 l 93 257 q 167 54 93 124 q 357 -15 240 -15 q 507 22 444 -15 q 602 124 569 60 q 649 259 635 189 q 664 410 664 329 q 649 562 664 488 q 614 672 633 636 l 499 672 "},"φ":{"ha":892,"x_min":53,"x_max":838,"o":"m 283 692 q 125 564 197 656 q 53 340 53 472 q 152 85 53 174 q 392 -14 251 -3 l 392 -275 l 504 -275 l 504 -14 q 740 95 643 0 q 838 353 838 190 q 753 591 838 499 q 564 685 669 683 q 440 635 489 686 q 392 482 392 585 l 392 75 q 230 165 286 92 q 174 343 174 238 q 331 624 174 524 l 283 692 m 504 501 q 563 596 504 596 q 672 524 622 596 q 721 351 721 451 q 663 161 721 235 q 504 74 604 88 l 504 501 "},"χ":{"ha":635,"x_min":15,"x_max":629,"o":"m 25 672 l 256 217 l 15 -264 l 119 -296 l 246 -28 l 310 115 l 315 117 l 515 -296 l 629 -265 l 385 218 l 621 672 l 503 672 l 401 458 q 332 310 347 344 l 326 310 l 156 672 l 25 672 "},"ψ":{"ha":910,"x_min":82,"x_max":846,"o":"m 410 -275 l 522 -275 l 522 -15 q 673 27 608 -11 q 774 126 738 65 q 828 258 811 188 q 846 407 846 328 q 792 672 846 589 l 679 672 q 713 569 696 646 q 729 397 729 492 q 672 166 729 254 q 522 74 614 78 l 522 849 l 410 849 l 410 74 q 266 143 321 79 q 211 344 211 207 l 211 547 q 193 672 211 647 l 82 672 q 93 517 93 628 l 93 335 q 178 74 93 153 q 410 -15 264 -6 l 410 -275 "},"ω":{"ha":964,"x_min":53,"x_max":911,"o":"m 539 504 l 424 504 l 426 238 q 395 131 428 175 q 315 86 363 86 q 216 151 260 86 q 172 346 172 217 q 203 536 172 449 q 283 678 235 624 l 283 681 l 169 681 q 88 542 122 633 q 53 343 53 450 q 126 75 53 165 q 299 -15 200 -15 q 476 103 424 -15 l 482 103 q 549 17 503 49 q 657 -15 596 -15 q 836 81 761 -15 q 911 354 911 176 q 878 552 911 464 q 796 681 844 640 l 681 681 l 681 678 q 760 542 729 631 q 792 357 792 454 q 750 157 792 228 q 651 86 708 86 q 568 130 601 86 q 536 239 535 174 l 539 504 "},"ϊ":{"ha":328,"x_min":-29,"x_max":363,"o":"m 39 774 q 88 794 69 774 q 107 844 107 815 q 88 894 107 874 q 40 914 68 914 q -9 893 11 914 q -29 844 -29 872 q -10 794 -29 815 q 39 774 10 774 m 293 774 q 343 794 324 774 q 363 844 363 815 q 343 894 363 874 q 296 914 324 914 q 247 894 267 914 q 226 844 226 874 q 245 794 226 815 q 293 774 264 774 m 224 672 l 101 672 l 101 151 q 134 21 101 57 q 228 -15 167 -15 q 282 -8 261 -15 l 289 81 q 237 97 250 79 q 224 163 224 115 l 224 672 "},"ϋ":{"ha":728,"x_min":78,"x_max":664,"o":"m 229 774 q 278 794 260 774 q 297 844 297 815 q 278 894 297 874 q 231 914 258 914 q 181 893 201 914 q 161 844 161 872 q 181 794 161 815 q 229 774 200 774 m 483 774 q 533 794 514 774 q 553 844 553 815 q 533 894 553 874 q 486 914 514 914 q 437 894 457 914 q 417 844 417 874 q 435 794 417 815 q 483 774 454 774 m 500 672 q 530 560 515 639 q 544 399 544 482 q 499 169 544 251 q 367 86 453 86 q 259 133 304 86 q 214 274 214 179 l 214 547 q 194 672 214 650 l 78 672 q 93 446 93 626 l 93 257 q 167 54 93 124 q 357 -15 240 -15 q 507 22 444 -15 q 602 124 569 60 q 649 259 635 189 q 664 410 664 329 q 649 562 664 488 q 614 672 633 636 l 500 672 "},"ό":{"ha":763,"x_min":53,"x_max":710,"o":"m 401 953 l 328 754 l 408 754 l 524 953 l 401 953 m 375 -15 q 610 76 510 -15 q 710 342 710 168 q 620 590 710 494 q 386 686 531 686 q 148 590 243 686 q 53 331 53 493 q 144 80 53 175 q 375 -15 236 -15 m 381 76 q 235 150 292 76 q 178 335 178 224 q 231 517 178 440 q 383 594 283 594 q 534 515 483 594 q 585 338 585 436 q 526 151 585 225 q 381 76 468 76 "},"ύ":{"ha":728,"x_min":78,"x_max":664,"o":"m 378 953 l 303 754 l 386 754 l 501 953 l 378 953 m 499 672 q 529 562 514 640 q 544 399 544 483 q 499 169 544 251 q 367 86 453 86 q 259 133 304 86 q 214 274 214 179 l 214 547 q 194 672 214 650 l 78 672 q 93 446 93 626 l 93 257 q 167 54 93 124 q 357 -15 240 -15 q 507 22 444 -15 q 602 124 569 60 q 649 259 635 189 q 664 410 664 329 q 649 562 664 488 q 614 672 633 636 l 499 672 "},"ώ":{"ha":964,"x_min":53,"x_max":911,"o":"m 500 953 l 426 754 l 507 754 l 624 953 l 500 953 m 539 504 l 424 504 l 426 238 q 395 131 428 175 q 315 86 363 86 q 216 151 260 86 q 172 346 172 217 q 203 536 172 449 q 283 678 235 624 l 283 681 l 169 681 q 88 542 122 633 q 53 343 53 450 q 126 75 53 165 q 299 -15 200 -15 q 476 103 424 -15 l 482 103 q 549 17 503 49 q 657 -15 596 -15 q 836 81 761 -15 q 911 354 911 176 q 878 552 911 464 q 796 681 844 640 l 681 681 l 681 678 q 760 542 729 631 q 792 357 792 454 q 750 157 792 228 q 651 86 708 86 q 568 130 601 86 q 536 239 535 174 l 539 504 "},"Ё":{"ha":683,"x_min":104,"x_max":632,"o":"m 589 539 l 226 539 l 226 835 l 611 835 l 611 936 l 104 936 l 104 0 l 632 0 l 632 101 l 226 101 l 226 439 l 589 439 l 589 539 m 225 1001 q 274 1022 256 1001 q 293 1072 293 1042 q 274 1122 293 1101 q 226 1142 256 1142 q 178 1122 197 1142 q 158 1072 158 1101 q 177 1022 158 1043 q 225 1001 196 1001 m 482 1001 q 533 1022 514 1001 q 551 1072 551 1042 q 533 1122 551 1101 q 485 1142 514 1142 q 435 1122 456 1142 q 415 1072 415 1101 q 434 1022 415 1043 q 482 1001 453 1001 "},"Ђ":{"ha":924,"x_min":-1,"x_max":868,"o":"m -1 936 l -1 835 l 257 835 l 257 0 l 379 0 l 379 469 q 538 524 453 524 q 693 439 639 524 q 742 236 742 368 q 676 -1 742 85 q 524 -99 624 -74 l 544 -193 q 739 -87 661 -175 q 868 247 868 22 q 796 508 868 410 q 571 625 715 625 q 383 568 469 625 l 379 568 l 379 835 l 718 835 l 718 936 l -1 936 "},"Ѓ":{"ha":601,"x_min":104,"x_max":603,"o":"m 104 936 l 104 0 l 226 0 l 226 835 l 603 835 l 603 936 l 104 936 m 393 1149 l 264 986 l 363 986 l 540 1149 l 393 1149 "},"Є":{"ha":800,"x_min":51,"x_max":756,"o":"m 756 907 q 538 951 674 951 q 184 812 317 951 q 51 467 51 672 q 181 115 51 244 q 515 -15 311 -15 q 754 31 665 -15 l 733 124 q 538 86 644 86 q 283 185 381 86 q 182 431 186 283 l 661 431 l 661 526 l 181 526 q 292 760 196 668 q 542 851 388 851 q 726 813 649 851 l 756 907 "},"Ѕ":{"ha":685,"x_min":58,"x_max":624,"o":"m 58 46 q 164 2 97 19 q 297 -15 231 -15 q 540 63 456 -15 q 624 256 624 140 q 566 419 624 356 q 386 531 508 483 q 242 608 285 569 q 200 711 200 647 q 244 809 200 767 q 376 851 289 851 q 553 807 481 851 l 586 906 q 381 951 508 951 q 162 880 246 951 q 78 697 78 808 q 325 431 78 521 q 460 352 419 394 q 501 246 501 310 q 449 130 501 174 q 306 86 397 86 q 90 147 186 86 l 58 46 "},"І":{"ha":332,"x_min":104,"x_max":226,"o":"m 104 936 l 104 0 l 226 0 l 226 936 l 104 936 "},"Ї":{"ha":332,"x_min":-29,"x_max":364,"o":"m 104 936 l 104 0 l 226 0 l 226 936 l 104 936 m 38 1001 q 87 1022 68 1001 q 106 1072 106 1042 q 87 1122 106 1101 q 39 1142 68 1142 q -10 1122 10 1142 q -29 1072 -29 1101 q -10 1022 -29 1043 q 38 1001 8 1001 m 294 1001 q 345 1022 326 1001 q 364 1072 364 1042 q 345 1122 364 1101 q 297 1142 326 1142 q 248 1122 268 1142 q 228 1072 228 1101 q 247 1022 228 1043 q 294 1001 265 1001 "},"Ј":{"ha":514,"x_min":6,"x_max":418,"o":"m 296 319 q 253 138 296 189 q 125 88 211 88 q 22 106 68 88 l 6 7 q 135 -15 57 -15 q 418 310 418 -15 l 418 936 l 296 936 l 296 319 "},"Љ":{"ha":1224,"x_min":-8,"x_max":1169,"o":"m 172 936 l 172 543 q 92 138 172 217 q -8 86 51 97 l 10 -11 q 150 33 81 -11 q 227 120 197 65 q 269 252 257 175 q 286 394 282 329 q 290 551 290 460 l 290 835 l 575 835 l 575 1 q 763 -8 669 -8 q 1092 96 986 -8 q 1169 300 1169 176 q 1067 517 1169 444 q 810 590 964 590 q 696 583 744 590 l 696 936 l 172 936 m 696 490 q 792 496 757 496 q 972 447 901 496 q 1043 296 1043 399 q 972 140 1043 194 q 793 86 900 86 q 696 92 725 86 l 696 490 "},"Њ":{"ha":1246,"x_min":104,"x_max":1192,"o":"m 104 936 l 104 0 l 226 0 l 226 460 l 597 460 l 597 3 q 788 -8 678 -8 q 1114 94 1010 -8 q 1192 297 1192 172 q 1142 457 1192 392 q 1017 550 1093 522 q 847 578 942 578 q 718 571 767 578 l 718 936 l 597 936 l 597 563 l 226 563 l 226 936 l 104 936 m 718 478 q 822 483 771 483 q 997 437 928 483 q 1065 293 1065 390 q 994 138 1065 190 q 817 86 924 86 q 718 93 754 86 l 718 478 "},"Ћ":{"ha":938,"x_min":-1,"x_max":838,"o":"m -1 936 l -1 835 l 254 835 l 254 0 l 376 0 l 376 471 q 553 531 456 531 q 672 485 626 531 q 717 332 717 435 l 717 0 l 838 0 l 838 347 q 764 565 838 490 q 592 631 701 631 q 379 567 485 631 l 376 567 l 376 835 l 703 835 l 703 936 l -1 936 "},"Ќ":{"ha":753,"x_min":106,"x_max":740,"o":"m 106 936 l 106 0 l 226 0 l 226 429 l 265 429 q 432 377 375 429 q 525 221 489 325 q 611 0 590 38 l 740 0 q 706 78 722 38 q 669 178 690 119 q 638 265 647 238 q 540 433 597 374 q 375 507 483 493 l 729 936 l 585 936 l 264 521 l 226 521 l 226 936 l 106 936 m 443 1142 l 314 979 l 413 979 l 590 1142 l 443 1142 "},"Ў":{"ha":724,"x_min":3,"x_max":729,"o":"m 3 936 l 314 303 q 318 246 329 271 q 135 86 244 86 q 89 90 106 86 l 78 -8 q 146 -17 100 -17 q 357 99 267 -17 q 532 453 426 188 l 729 936 l 601 936 l 454 539 l 397 371 l 393 371 q 326 535 365 444 l 140 936 l 3 936 m 185 1135 q 360 985 196 985 q 540 1135 529 985 l 447 1135 q 424 1072 442 1094 q 363 1049 407 1049 q 301 1072 318 1049 q 278 1135 283 1094 l 185 1135 "},"Џ":{"ha":882,"x_min":104,"x_max":779,"o":"m 104 936 l 104 0 l 382 0 l 392 -243 l 493 -243 l 503 0 l 779 0 l 779 936 l 657 936 l 657 101 l 226 101 l 226 936 l 104 936 "},"А":{"ha":850,"x_min":35,"x_max":818,"o":"m 589 294 l 689 0 l 818 0 l 499 936 l 354 936 l 35 0 l 160 0 l 257 294 l 589 294 m 282 389 l 374 660 q 421 829 389 704 l 424 829 q 472 658 453 715 l 565 389 l 282 389 "},"Б":{"ha":758,"x_min":106,"x_max":703,"o":"m 106 936 l 106 3 q 294 -8 186 -8 q 625 96 519 -8 q 703 300 703 176 q 583 528 703 450 q 342 590 489 590 q 226 583 275 590 l 226 835 l 631 835 l 631 936 l 106 936 m 226 490 q 322 496 288 496 q 500 449 433 496 q 576 296 576 396 q 525 158 576 213 q 328 86 457 86 q 226 93 261 86 l 226 490 "},"В":{"ha":753,"x_min":106,"x_max":696,"o":"m 106 3 q 293 -8 186 -8 q 615 79 522 -8 q 696 267 696 153 q 638 422 696 363 q 503 500 581 482 l 503 504 q 619 586 576 531 q 661 710 661 642 q 582 875 661 817 q 326 943 500 943 q 106 922 193 943 l 106 3 m 226 842 q 333 850 265 850 q 538 697 538 850 q 483 583 538 628 q 336 539 429 539 l 226 539 l 226 842 m 226 449 l 326 449 q 500 403 432 449 q 568 268 568 358 q 500 130 568 174 q 328 86 432 86 q 226 92 260 86 l 226 449 "},"Г":{"ha":601,"x_min":104,"x_max":603,"o":"m 104 936 l 104 0 l 226 0 l 226 835 l 603 835 l 603 936 l 104 936 "},"Д":{"ha":875,"x_min":17,"x_max":828,"o":"m 222 936 l 222 699 q 178 304 222 456 q 86 99 153 221 l 17 96 l 24 -225 l 118 -225 l 126 0 l 717 0 l 725 -225 l 819 -225 l 828 96 l 746 99 l 746 936 l 222 936 m 335 836 l 625 836 l 625 100 l 211 100 q 288 278 265 201 q 335 660 335 428 l 335 836 "},"Е":{"ha":683,"x_min":104,"x_max":632,"o":"m 589 539 l 226 539 l 226 835 l 611 835 l 611 936 l 104 936 l 104 0 l 632 0 l 632 101 l 226 101 l 226 439 l 589 439 l 589 539 "},"Ж":{"ha":1113,"x_min":15,"x_max":1097,"o":"m 31 936 l 361 506 q 204 434 260 493 q 110 264 149 375 q 82 181 100 238 q 49 82 64 125 q 15 0 33 39 l 139 0 q 185 126 157 38 q 215 219 214 215 q 302 379 253 329 q 456 429 351 429 l 499 429 l 499 0 l 615 0 l 615 429 l 657 429 q 810 379 761 429 q 897 219 860 329 q 918 151 903 201 q 947 65 933 101 q 974 0 960 28 l 1097 0 q 1065 83 1081 39 q 1033 181 1050 126 q 1006 265 1015 236 q 910 437 965 378 q 751 506 854 496 l 1083 936 l 943 936 l 653 521 l 615 521 l 615 936 l 499 936 l 499 521 l 461 521 l 171 936 l 31 936 "},"З":{"ha":683,"x_min":43,"x_max":628,"o":"m 101 793 q 297 854 200 854 q 419 815 374 854 q 465 706 465 776 q 401 583 465 633 q 244 533 338 533 l 190 533 l 190 442 l 246 442 q 426 399 351 442 q 500 261 500 357 q 443 133 500 182 q 286 83 386 83 q 75 140 175 83 l 43 46 q 288 -15 146 -15 q 528 53 429 -15 q 628 257 628 121 q 563 418 626 356 q 399 492 499 481 l 399 494 q 537 576 482 514 q 592 724 592 639 q 516 892 592 831 q 317 953 440 953 q 69 882 178 953 l 101 793 "},"И":{"ha":914,"x_min":106,"x_max":808,"o":"m 106 936 l 106 0 l 235 0 l 528 467 q 701 781 647 658 l 706 779 q 694 399 694 644 l 694 0 l 808 0 l 808 936 l 688 936 l 385 454 q 213 144 271 268 l 208 146 q 219 542 219 313 l 219 936 l 106 936 "},"Й":{"ha":914,"x_min":106,"x_max":808,"o":"m 106 936 l 106 0 l 235 0 l 528 467 q 701 781 647 658 l 706 779 q 694 399 694 644 l 694 0 l 808 0 l 808 936 l 688 936 l 385 454 q 213 144 271 268 l 208 146 q 219 542 219 313 l 219 936 l 106 936 m 279 1132 q 454 982 290 982 q 635 1132 624 982 l 542 1132 q 519 1069 536 1092 q 457 1046 501 1046 q 395 1069 413 1046 q 372 1132 378 1092 l 279 1132 "},"К":{"ha":753,"x_min":106,"x_max":740,"o":"m 106 936 l 106 0 l 226 0 l 226 429 l 265 429 q 432 377 375 429 q 525 221 489 325 q 611 0 590 38 l 740 0 q 706 78 722 38 q 669 178 690 119 q 638 265 647 238 q 540 433 597 374 q 375 507 483 493 l 729 936 l 585 936 l 264 521 l 226 521 l 226 936 l 106 936 "},"Л":{"ha":825,"x_min":-10,"x_max":721,"o":"m 171 936 l 171 542 q 89 136 171 215 q -10 86 47 94 l 6 -11 q 150 33 81 -11 q 227 120 197 65 q 269 252 257 175 q 286 394 282 329 q 290 551 290 460 l 290 835 l 599 835 l 599 0 l 721 0 l 721 936 l 171 936 "},"М":{"ha":1117,"x_min":81,"x_max":1036,"o":"m 917 0 l 1036 0 l 978 936 l 824 936 l 657 483 q 557 168 590 296 l 554 168 q 460 483 515 317 l 300 936 l 146 936 l 81 0 l 196 0 l 221 401 q 239 815 235 636 l 242 815 q 349 451 278 665 l 501 6 l 593 6 l 758 460 q 876 815 813 610 l 879 815 q 894 411 879 699 l 917 0 "},"Н":{"ha":906,"x_min":104,"x_max":801,"o":"m 104 936 l 104 0 l 226 0 l 226 439 l 679 439 l 679 0 l 801 0 l 801 936 l 679 936 l 679 544 l 226 544 l 226 936 l 104 936 "},"О":{"ha":957,"x_min":50,"x_max":906,"o":"m 483 953 q 172 817 293 953 q 50 461 50 682 q 167 117 50 249 q 471 -15 285 -15 q 782 115 658 -15 q 906 478 906 246 q 790 821 906 689 q 483 953 675 953 m 479 854 q 699 740 621 854 q 778 472 778 626 q 697 194 778 306 q 478 83 617 83 q 259 194 340 83 q 178 464 178 306 q 257 741 178 628 q 479 854 336 854 "},"П":{"ha":888,"x_min":104,"x_max":783,"o":"m 104 936 l 104 0 l 226 0 l 226 835 l 661 835 l 661 0 l 783 0 l 783 936 l 104 936 "},"Р":{"ha":739,"x_min":106,"x_max":682,"o":"m 106 0 l 226 0 l 226 375 q 324 367 260 367 q 610 469 511 367 q 682 669 682 544 q 600 865 682 793 q 338 943 514 943 q 106 925 214 943 l 106 0 m 226 838 q 340 847 263 847 q 502 801 443 847 q 561 663 561 754 q 499 516 561 568 q 326 464 436 464 q 226 474 264 464 l 226 838 "},"С":{"ha":806,"x_min":50,"x_max":761,"o":"m 735 126 q 536 88 654 88 q 273 189 368 88 q 178 464 178 290 q 277 748 178 646 q 543 850 376 850 q 731 811 653 850 l 761 910 q 539 951 682 951 q 185 816 321 951 q 50 460 50 681 q 178 110 50 235 q 511 -15 307 -15 q 758 29 672 -15 l 735 126 "},"Т":{"ha":690,"x_min":-1,"x_max":692,"o":"m 283 0 l 406 0 l 406 833 l 692 833 l 692 936 l -1 936 l -1 833 l 283 833 l 283 0 "},"У":{"ha":724,"x_min":3,"x_max":729,"o":"m 3 936 l 314 303 q 318 246 329 271 q 135 86 244 86 q 89 90 106 86 l 78 -8 q 146 -17 100 -17 q 357 99 267 -17 q 532 453 426 188 l 729 936 l 601 936 l 454 539 l 397 371 l 393 371 q 326 535 365 444 l 140 936 l 3 936 "},"Ф":{"ha":1007,"x_min":50,"x_max":956,"o":"m 446 974 l 446 889 q 335 871 389 886 q 229 823 282 856 q 138 743 176 790 q 74 624 99 696 q 50 463 50 551 q 83 276 50 356 q 174 149 117 196 q 299 78 232 103 q 443 49 365 54 l 443 -37 l 560 -37 l 560 49 q 706 79 639 54 q 831 151 774 104 q 922 280 889 199 q 956 468 956 361 q 922 656 956 574 q 832 786 889 738 q 707 860 775 835 q 563 889 639 886 l 563 974 l 446 974 m 444 136 q 252 229 329 147 q 175 467 175 311 q 256 715 175 633 q 444 803 336 797 l 444 136 m 561 803 q 753 715 675 796 q 831 468 831 635 q 753 226 831 307 q 561 136 675 144 l 561 803 "},"Х":{"ha":793,"x_min":35,"x_max":758,"o":"m 758 0 l 467 481 l 751 936 l 611 936 l 485 717 q 400 558 433 628 l 396 558 q 310 717 368 615 l 186 936 l 46 936 l 321 474 l 35 0 l 174 0 l 286 206 q 388 392 356 326 l 390 392 q 497 207 436 306 l 618 0 l 758 0 "},"Ц":{"ha":906,"x_min":104,"x_max":860,"o":"m 104 936 l 104 0 l 749 0 l 757 -226 l 851 -226 l 860 96 l 778 99 l 778 936 l 656 936 l 656 101 l 226 101 l 226 936 l 104 936 "},"Ч":{"ha":829,"x_min":99,"x_max":724,"o":"m 99 936 l 99 617 q 124 478 99 536 q 191 390 149 419 q 278 349 233 361 q 375 336 324 336 q 600 394 499 336 l 603 394 l 603 -6 l 724 -6 l 724 936 l 603 936 l 603 489 q 417 435 521 435 q 269 487 319 435 q 219 636 219 539 l 219 936 l 99 936 "},"Ш":{"ha":1176,"x_min":106,"x_max":1072,"o":"m 106 936 l 106 0 l 1072 0 l 1072 936 l 953 936 l 953 101 l 649 101 l 649 936 l 529 936 l 529 101 l 225 101 l 225 936 l 106 936 "},"Щ":{"ha":1200,"x_min":106,"x_max":1154,"o":"m 106 936 l 106 0 l 1043 0 l 1051 -226 l 1146 -226 l 1154 96 l 1072 99 l 1072 936 l 953 936 l 953 101 l 649 101 l 649 936 l 529 936 l 529 101 l 225 101 l 225 936 l 106 936 "},"Ъ":{"ha":876,"x_min":-3,"x_max":822,"o":"m -3 936 l -3 836 l 238 836 l 238 3 q 424 -8 318 -8 q 750 101 647 -8 q 822 300 822 178 q 720 519 822 444 q 471 593 618 593 q 358 586 404 593 l 358 936 l -3 936 m 358 490 q 456 496 417 496 q 626 447 557 496 q 696 296 696 397 q 628 140 696 193 q 454 86 561 86 q 358 93 392 86 l 358 490 "},"Ы":{"ha":1036,"x_min":106,"x_max":925,"o":"m 106 936 l 106 3 q 293 -8 186 -8 q 626 101 522 -8 q 699 300 699 178 q 597 520 699 447 q 339 593 494 593 q 226 585 268 593 l 226 936 l 106 936 m 226 490 q 322 496 288 496 q 500 447 428 496 q 572 296 572 397 q 501 140 572 194 q 324 86 431 86 q 226 93 258 86 l 226 490 m 803 936 l 803 0 l 925 0 l 925 936 l 803 936 "},"Ь":{"ha":757,"x_min":106,"x_max":703,"o":"m 106 936 l 106 3 q 294 -8 186 -8 q 631 101 526 -8 q 703 301 703 178 q 601 520 703 447 q 342 593 499 593 q 226 586 272 593 l 226 936 l 106 936 m 226 490 q 325 496 288 496 q 506 447 435 496 q 576 294 576 397 q 506 139 576 192 q 326 86 435 86 q 226 93 261 86 l 226 490 "},"Э":{"ha":789,"x_min":42,"x_max":738,"o":"m 172 431 l 608 431 q 511 183 601 281 q 271 86 421 86 q 68 129 161 86 l 42 32 q 286 -15 150 -15 q 609 115 481 -15 q 738 468 738 244 q 622 816 738 681 q 294 951 507 951 q 57 897 175 951 l 86 806 q 288 851 196 851 q 511 761 428 851 q 607 528 594 671 l 172 528 l 172 431 "},"Ю":{"ha":1204,"x_min":106,"x_max":1154,"o":"m 106 936 l 106 0 l 226 0 l 226 431 l 363 431 q 475 106 369 226 q 751 -15 581 -15 q 1040 114 926 -15 q 1154 478 1154 243 q 1049 822 1154 690 q 764 953 944 953 q 490 841 597 953 q 365 533 383 729 l 226 533 l 226 936 l 106 936 m 556 194 q 482 464 482 306 q 554 741 482 626 q 758 856 626 856 q 960 741 889 856 q 1031 472 1031 626 q 958 194 1031 306 q 757 82 885 82 q 592 138 629 82 q 556 194 556 194 "},"Я":{"ha":754,"x_min":19,"x_max":649,"o":"m 150 0 q 181 68 164 29 q 210 161 189 89 q 253 282 232 233 q 304 360 275 331 q 438 406 350 406 l 528 406 l 528 0 l 649 0 l 649 924 q 425 943 554 943 q 157 871 246 943 q 71 681 71 800 q 129 526 71 588 q 278 450 188 465 l 278 447 q 199 399 232 432 q 150 331 172 372 q 115 255 128 289 q 85 167 103 221 q 58 85 68 113 q 19 0 39 33 l 150 0 m 528 500 q 425 497 504 497 q 258 545 322 497 q 193 675 193 593 q 254 807 193 765 q 413 849 315 849 q 528 838 486 849 l 528 500 "},"а":{"ha":669,"x_min":49,"x_max":583,"o":"m 574 413 q 516 608 574 531 q 318 686 458 686 q 96 628 189 686 l 124 546 q 300 596 197 596 q 381 581 349 596 q 428 539 414 565 q 448 490 443 513 q 453 442 453 467 l 453 428 q 153 365 258 429 q 49 178 49 300 q 103 42 49 99 q 254 -15 157 -15 q 376 13 322 -15 q 460 85 429 42 l 464 85 l 474 0 l 583 0 q 574 161 574 64 l 574 413 m 456 226 q 450 188 456 206 q 390 108 433 140 q 285 75 347 75 q 203 105 236 75 q 171 192 171 135 q 456 343 171 349 l 456 226 "},"б":{"ha":733,"x_min":56,"x_max":681,"o":"m 615 1001 q 449 965 571 986 q 275 911 344 947 q 160 807 206 875 q 56 435 56 672 q 72 269 56 346 q 124 126 89 192 q 222 22 158 60 q 369 -17 285 -17 q 599 79 517 -17 q 681 340 681 175 q 601 585 681 497 q 394 672 522 672 q 256 633 321 672 q 160 521 192 593 l 156 521 q 229 743 169 660 q 469 869 299 843 q 610 900 571 885 l 615 1001 m 557 332 q 512 150 557 225 q 372 75 467 75 q 265 122 310 75 q 201 227 219 168 q 183 347 183 286 q 217 490 183 431 q 369 582 267 582 q 482 540 438 582 q 542 446 526 499 q 557 332 557 393 "},"в":{"ha":694,"x_min":97,"x_max":642,"o":"m 97 0 q 288 -8 206 -8 q 642 190 642 -8 q 595 303 642 261 q 471 356 549 344 l 471 358 q 572 412 532 372 q 611 511 611 451 q 311 679 611 679 q 97 664 186 679 l 97 0 m 215 589 q 310 594 271 594 q 490 496 490 594 q 438 415 490 440 q 307 389 385 389 l 215 389 l 215 589 m 214 310 l 303 310 q 460 284 403 310 q 517 192 517 258 q 455 101 517 126 q 311 75 393 75 q 214 79 267 75 l 214 310 "},"г":{"ha":535,"x_min":99,"x_max":511,"o":"m 99 672 l 99 0 l 219 0 l 219 575 l 511 575 l 511 672 l 99 672 "},"д":{"ha":736,"x_min":11,"x_max":692,"o":"m 174 672 l 174 497 q 135 229 174 351 q 68 92 111 156 l 11 89 l 17 -212 l 111 -212 l 118 0 l 583 0 l 589 -212 l 685 -212 l 692 90 l 622 92 l 622 672 l 174 672 m 281 579 l 503 579 l 503 93 l 193 93 q 246 218 226 151 q 281 469 281 328 l 281 579 "},"е":{"ha":696,"x_min":53,"x_max":646,"o":"m 642 314 q 646 371 646 335 q 633 473 646 422 q 590 574 619 524 q 503 655 561 624 q 368 686 446 686 q 139 583 225 686 q 53 325 53 481 q 142 78 53 171 q 383 -15 231 -15 q 608 28 513 -15 l 586 115 q 400 81 507 81 q 235 138 300 81 q 169 314 171 196 l 642 314 m 171 401 q 226 538 179 478 q 358 599 274 599 q 490 537 450 599 q 528 401 529 475 l 171 401 "},"ж":{"ha":926,"x_min":8,"x_max":918,"o":"m 19 672 l 285 367 q 163 315 211 358 q 83 188 115 271 q 8 0 22 26 l 128 0 q 190 153 143 28 q 266 265 221 233 q 385 297 311 297 l 406 297 l 406 0 l 522 0 l 522 297 l 543 297 q 658 265 613 297 q 735 154 704 233 q 796 0 771 44 l 918 0 q 844 189 901 32 q 643 367 783 351 l 908 672 l 768 672 l 546 379 l 522 379 l 522 672 l 406 672 l 406 379 l 382 379 l 158 672 l 19 672 "},"з":{"ha":599,"x_min":39,"x_max":547,"o":"m 158 307 l 218 307 q 414 192 414 307 q 369 108 414 140 q 249 76 324 76 q 71 124 153 76 l 39 40 q 257 -14 136 -14 q 462 36 376 -14 q 547 186 547 86 q 495 301 547 257 q 364 354 443 346 l 364 357 q 470 410 425 369 q 515 510 515 451 q 478 613 515 571 q 392 670 442 654 q 288 686 343 686 q 64 625 164 686 l 94 550 q 257 599 174 599 q 351 572 315 599 q 388 500 388 544 q 340 422 388 453 q 215 390 292 390 l 157 390 l 158 307 "},"и":{"ha":769,"x_min":97,"x_max":672,"o":"m 97 672 l 97 0 l 239 0 l 449 351 q 561 561 490 422 l 564 561 q 556 285 556 397 l 556 0 l 672 0 l 672 672 l 529 672 l 319 325 q 210 118 286 269 l 206 119 q 214 389 214 264 l 214 672 l 97 672 "},"й":{"ha":769,"x_min":97,"x_max":672,"o":"m 97 672 l 97 0 l 239 0 l 449 351 q 561 561 490 422 l 564 561 q 556 285 556 397 l 556 0 l 672 0 l 672 672 l 529 672 l 319 325 q 210 118 286 269 l 206 119 q 214 389 214 264 l 214 672 l 97 672 m 204 946 q 251 821 208 868 q 379 774 293 774 q 510 818 461 774 q 564 946 558 863 l 476 946 q 382 840 464 840 q 319 869 342 840 q 293 946 296 899 l 204 946 "},"к":{"ha":665,"x_min":101,"x_max":657,"o":"m 101 672 l 101 0 l 222 0 l 222 296 l 246 296 q 381 258 329 296 q 467 138 432 221 q 529 0 508 35 l 657 0 q 586 164 642 26 q 491 309 544 258 q 360 369 438 360 l 651 672 l 503 672 l 251 381 l 222 381 l 222 672 l 101 672 "},"л":{"ha":704,"x_min":3,"x_max":607,"o":"m 139 672 l 139 404 q 126 211 139 276 q 69 114 113 146 q 3 86 44 93 l 15 -10 q 149 32 96 -10 q 232 160 210 72 q 254 404 254 249 l 254 576 l 485 576 l 485 0 l 607 0 l 607 672 l 139 672 "},"м":{"ha":888,"x_min":58,"x_max":831,"o":"m 58 0 l 171 0 l 189 318 q 199 560 192 376 l 204 560 q 272 338 238 436 l 392 4 l 479 4 l 608 343 q 683 561 667 507 l 688 561 q 693 435 689 517 q 699 321 697 354 l 714 0 l 831 0 l 783 672 l 632 672 l 525 379 q 444 149 468 229 l 442 149 q 381 333 419 226 l 260 672 l 110 672 l 58 0 "},"н":{"ha":758,"x_min":97,"x_max":660,"o":"m 97 672 l 97 0 l 219 0 l 219 304 l 538 304 l 538 0 l 660 0 l 660 672 l 538 672 l 538 401 l 219 401 l 219 672 l 97 672 "},"о":{"ha":763,"x_min":53,"x_max":710,"o":"m 386 686 q 148 590 243 686 q 53 331 53 493 q 144 80 53 175 q 375 -15 236 -15 q 610 76 510 -15 q 710 342 710 168 q 620 590 710 494 q 386 686 531 686 m 534 515 q 585 338 585 436 q 526 151 585 225 q 381 76 468 76 q 235 150 292 76 q 178 335 178 224 q 231 517 178 440 q 383 594 283 594 q 509 555 483 594 q 534 515 534 515 "},"п":{"ha":751,"x_min":97,"x_max":654,"o":"m 97 672 l 97 0 l 219 0 l 219 576 l 532 576 l 532 0 l 654 0 l 654 672 l 97 672 "},"р":{"ha":790,"x_min":96,"x_max":739,"o":"m 101 -275 l 222 -275 l 222 90 l 225 90 q 310 13 256 40 q 432 -15 365 -15 q 649 79 560 -15 q 739 346 739 174 q 658 592 739 497 q 453 686 576 686 q 214 557 290 686 l 211 557 l 204 672 l 96 672 q 101 453 101 544 l 101 -275 m 222 390 q 231 439 222 408 q 299 548 247 507 q 415 589 351 589 q 562 517 508 589 q 615 340 615 446 q 561 151 615 222 q 411 81 507 81 q 295 120 346 81 q 228 224 244 160 q 222 274 222 244 l 222 390 "},"с":{"ha":622,"x_min":53,"x_max":583,"o":"m 560 115 q 410 83 488 83 q 242 151 308 83 q 176 335 176 219 q 240 516 176 443 q 414 589 303 589 q 556 557 494 589 l 583 650 q 414 686 517 686 q 152 585 251 686 q 53 328 53 485 q 144 79 53 174 q 388 -15 236 -15 q 581 24 499 -15 l 560 115 "},"т":{"ha":571,"x_min":14,"x_max":556,"o":"m 14 672 l 14 576 l 224 576 l 224 0 l 346 0 l 346 576 l 556 576 l 556 672 l 14 672 "},"у":{"ha":654,"x_min":13,"x_max":644,"o":"m 13 672 l 260 53 q 269 21 269 32 q 260 -8 269 14 q 157 -144 219 -96 q 50 -204 108 -186 l 81 -306 q 231 -228 154 -292 q 342 -79 292 -174 q 461 193 393 15 l 644 672 l 515 672 l 382 278 q 356 195 372 249 q 339 138 340 142 l 336 138 q 292 275 317 210 l 146 672 l 13 672 "},"ф":{"ha":890,"x_min":53,"x_max":839,"o":"m 389 983 l 390 683 q 147 580 242 671 q 53 331 53 489 q 147 87 53 178 q 390 -14 240 -4 l 389 -275 l 503 -275 l 501 -12 q 744 88 650 -3 q 839 338 839 178 q 746 582 839 490 q 501 685 653 674 l 503 983 l 389 983 m 390 71 q 233 156 292 83 q 174 333 174 229 q 232 513 174 439 q 390 600 290 588 l 390 71 m 501 600 q 660 515 601 586 q 718 338 718 443 q 660 158 718 232 q 501 69 601 83 l 501 600 "},"х":{"ha":643,"x_min":11,"x_max":626,"o":"m 22 672 l 250 343 l 11 0 l 146 0 l 243 151 q 314 268 283 214 l 317 268 q 389 151 361 193 l 489 0 l 626 0 l 392 347 l 621 672 l 488 672 l 394 529 q 326 419 351 464 l 324 419 q 254 528 288 481 l 158 672 l 22 672 "},"ц":{"ha":764,"x_min":97,"x_max":719,"o":"m 97 672 l 97 0 l 611 0 l 617 -212 l 713 -212 l 719 90 l 650 92 l 650 672 l 529 672 l 529 96 l 219 96 l 219 672 l 97 672 "},"ч":{"ha":715,"x_min":90,"x_max":617,"o":"m 90 672 l 90 431 q 151 267 90 321 q 311 213 211 213 q 494 263 415 213 l 496 263 l 496 -8 l 617 -8 l 617 672 l 496 672 l 496 349 q 351 303 433 303 q 244 340 275 303 q 213 446 213 376 l 213 672 l 90 672 "},"ш":{"ha":1025,"x_min":97,"x_max":926,"o":"m 97 672 l 97 0 l 926 0 l 926 672 l 806 672 l 806 96 l 572 96 l 572 672 l 451 672 l 451 96 l 218 96 l 218 672 l 97 672 "},"щ":{"ha":1040,"x_min":97,"x_max":996,"o":"m 97 672 l 97 0 l 889 0 l 893 -212 l 989 -212 l 996 90 l 926 92 l 926 672 l 807 672 l 807 96 l 574 96 l 574 672 l 453 672 l 453 96 l 218 96 l 218 672 l 97 672 "},"ъ":{"ha":804,"x_min":19,"x_max":754,"o":"m 19 672 l 19 576 l 218 576 l 218 3 q 399 -7 308 -7 q 683 69 593 -7 q 754 225 754 129 q 707 360 754 307 q 596 433 660 414 q 456 453 532 453 q 340 446 393 453 l 340 672 l 19 672 m 339 357 q 425 365 383 365 q 522 354 479 365 q 599 309 565 343 q 632 221 632 275 q 574 114 632 147 q 431 81 517 81 q 339 86 389 81 l 339 357 "},"ы":{"ha":924,"x_min":97,"x_max":825,"o":"m 97 672 l 97 3 q 278 -7 188 -7 q 549 71 457 -7 q 619 226 619 131 q 535 397 619 342 q 328 453 450 453 q 219 444 269 453 l 219 672 l 97 672 m 218 357 q 308 365 256 365 q 442 332 388 365 q 497 224 497 299 q 440 115 497 150 q 303 81 383 81 q 218 86 251 81 l 218 357 m 704 672 l 704 0 l 825 0 l 825 672 l 704 672 "},"ь":{"ha":692,"x_min":97,"x_max":642,"o":"m 97 672 l 97 3 q 278 -7 188 -7 q 571 71 479 -7 q 642 225 642 131 q 615 335 642 289 q 542 406 589 382 q 444 442 496 431 q 331 453 392 453 q 219 446 268 453 l 219 672 l 97 672 m 218 357 q 306 365 261 365 q 403 355 358 365 q 483 310 447 344 q 519 222 519 276 q 456 114 519 147 q 310 81 393 81 q 218 86 251 81 l 218 357 "},"э":{"ha":644,"x_min":39,"x_max":592,"o":"m 131 300 l 467 300 q 396 141 460 200 q 231 82 332 82 q 64 118 147 82 l 39 32 q 236 -14 124 -14 q 497 84 401 -14 q 592 333 592 182 q 500 592 592 496 q 257 686 410 686 q 50 635 140 686 l 76 554 q 236 592 154 592 q 401 534 343 592 q 468 385 460 476 l 131 385 l 131 300 "},"ю":{"ha":979,"x_min":99,"x_max":926,"o":"m 99 672 l 99 0 l 218 0 l 218 296 l 331 296 q 421 69 340 153 q 624 -15 501 -15 q 840 83 754 -15 q 926 342 926 182 q 844 592 926 497 q 631 686 763 686 q 430 605 511 686 q 333 389 349 524 l 218 389 l 218 672 l 99 672 m 626 75 q 494 151 542 75 q 447 332 447 226 q 495 517 447 440 q 628 594 543 594 q 758 518 713 594 q 804 339 804 442 q 758 154 804 233 q 626 75 713 75 "},"я":{"ha":689,"x_min":15,"x_max":592,"o":"m 592 667 q 376 681 494 681 q 150 635 226 681 q 61 489 61 585 q 114 372 61 415 q 239 321 167 329 l 239 318 q 163 279 196 308 q 118 224 136 257 q 82 141 100 192 q 57 76 64 90 q 15 0 39 35 l 146 0 q 174 56 164 31 q 192 106 179 71 q 213 160 204 140 q 236 205 221 181 q 269 243 251 229 q 381 282 308 282 l 471 282 l 471 0 l 592 0 l 592 667 m 471 364 l 367 364 q 244 394 301 364 q 188 482 188 424 q 217 553 188 525 q 285 590 247 581 q 369 599 324 599 q 471 592 419 599 l 471 364 "},"ё":{"ha":696,"x_min":53,"x_max":646,"o":"m 642 314 q 646 371 646 335 q 633 473 646 422 q 590 574 619 524 q 503 655 561 624 q 368 686 446 686 q 139 583 225 686 q 53 325 53 481 q 142 78 53 171 q 383 -15 231 -15 q 608 28 513 -15 l 586 115 q 400 81 507 81 q 235 138 300 81 q 169 314 171 196 l 642 314 m 171 401 q 226 538 179 478 q 358 599 274 599 q 490 537 450 599 q 528 401 529 475 l 171 401 m 243 792 q 293 813 274 792 q 313 863 313 833 q 293 913 313 893 q 246 933 274 933 q 195 913 215 933 q 175 863 175 892 q 194 813 175 833 q 243 792 214 792 m 500 792 q 550 813 531 792 q 569 863 569 833 q 550 913 569 893 q 501 933 531 933 q 452 913 472 933 q 432 863 432 892 q 451 813 432 833 q 500 792 471 792 "},"ђ":{"ha":774,"x_min":10,"x_max":718,"o":"m 10 868 l 10 781 l 124 781 l 124 0 l 246 0 l 246 424 q 267 500 246 471 q 415 581 333 581 q 543 504 497 581 q 596 268 596 417 q 514 -35 596 58 q 385 -104 467 -87 l 407 -199 q 581 -122 501 -190 q 718 276 718 -7 q 644 569 718 461 q 453 679 576 679 q 249 583 335 679 l 246 583 l 246 781 l 560 781 l 560 868 l 246 868 l 246 986 l 124 986 l 124 868 l 10 868 "},"ѓ":{"ha":535,"x_min":99,"x_max":511,"o":"m 99 672 l 99 0 l 219 0 l 219 575 l 511 575 l 511 672 l 99 672 m 347 963 l 225 764 l 311 764 l 481 963 l 347 963 "},"є":{"ha":639,"x_min":53,"x_max":600,"o":"m 600 642 q 419 686 525 686 q 156 588 258 686 q 53 331 53 490 q 145 82 53 179 q 396 -15 238 -15 q 600 28 514 -15 l 576 115 q 415 81 493 81 q 251 140 317 81 q 179 300 186 200 l 518 300 l 518 385 l 178 385 q 251 533 189 475 q 418 592 313 592 q 571 554 493 592 l 600 642 "},"ѕ":{"ha":550,"x_min":56,"x_max":494,"o":"m 56 32 q 244 -15 136 -15 q 428 40 361 -15 q 494 188 494 96 q 451 308 494 260 q 318 389 407 356 q 220 440 249 417 q 192 504 192 464 q 221 569 192 543 q 303 596 250 596 q 440 556 376 596 l 469 644 q 306 686 406 686 q 138 629 201 686 q 74 489 74 572 q 253 299 74 364 q 349 247 321 274 q 376 176 376 219 q 343 104 376 132 q 247 76 310 76 q 85 124 164 76 l 56 32 "},"і":{"ha":325,"x_min":86,"x_max":238,"o":"m 224 0 l 224 672 l 101 672 l 101 0 l 224 0 m 108 915 q 86 861 86 893 q 106 808 86 829 q 160 786 126 786 q 217 808 196 786 q 238 861 238 829 q 217 916 238 894 q 163 938 196 938 q 118 926 129 938 q 108 915 108 915 "},"ї":{"ha":325,"x_min":-35,"x_max":360,"o":"m 224 0 l 224 672 l 101 672 l 101 0 l 224 0 m 33 792 q 83 813 64 792 q 103 863 103 833 q 83 913 103 893 q 36 933 64 933 q -15 913 6 933 q -35 863 -35 892 q -15 813 -35 833 q 33 792 4 792 m 290 792 q 340 813 321 792 q 360 863 360 833 q 340 913 360 893 q 292 933 321 933 q 242 913 263 933 q 222 863 222 892 q 242 813 222 833 q 290 792 261 792 "},"ј":{"ha":338,"x_min":-64,"x_max":253,"o":"m -50 -293 q 63 -274 4 -293 q 158 -217 121 -254 q 239 60 239 -135 l 239 672 l 117 672 l 117 107 q 106 -62 117 -10 q 69 -144 96 -115 q -64 -197 29 -190 l -50 -293 m 123 915 q 101 861 101 893 q 122 808 101 831 q 175 786 143 786 q 232 808 211 786 q 253 861 253 829 q 232 915 253 893 q 178 938 211 938 q 134 926 144 938 q 123 915 123 915 "},"љ":{"ha":1076,"x_min":3,"x_max":1026,"o":"m 146 672 l 146 406 q 130 214 146 283 q 69 114 114 144 q 3 88 44 94 l 14 -8 q 146 33 97 -8 q 235 164 210 74 q 260 406 260 254 l 260 576 l 485 576 l 485 3 q 667 -7 575 -7 q 960 72 868 -7 q 1026 224 1026 129 q 1000 332 1026 286 q 927 403 974 378 q 828 439 881 428 q 717 450 776 450 q 607 443 656 450 l 607 672 l 146 672 m 606 356 q 703 364 650 364 q 844 331 783 364 q 904 221 904 299 q 842 113 904 146 q 696 81 779 81 q 606 86 639 81 l 606 356 "},"њ":{"ha":1086,"x_min":97,"x_max":1036,"o":"m 97 672 l 97 0 l 219 0 l 219 328 l 503 328 l 503 1 q 685 -7 606 -7 q 968 69 881 -7 q 1036 222 1036 128 q 947 390 1036 336 q 739 444 858 444 q 625 438 671 444 l 625 672 l 503 672 l 503 422 l 219 422 l 219 672 l 97 672 m 624 351 q 715 358 669 358 q 856 326 799 358 q 914 218 914 294 q 854 113 914 144 q 715 81 794 81 q 624 85 694 81 l 624 351 "},"ћ":{"ha":793,"x_min":10,"x_max":696,"o":"m 10 868 l 10 781 l 124 781 l 124 0 l 246 0 l 246 393 q 254 457 246 431 q 316 542 272 507 q 418 578 360 578 q 536 523 499 578 q 574 379 574 468 l 574 0 l 696 0 l 696 393 q 633 605 696 531 q 461 679 569 679 q 332 644 390 679 q 249 563 283 615 l 246 563 l 246 781 l 526 781 l 526 868 l 246 868 l 246 986 l 124 986 l 124 868 l 10 868 "},"ќ":{"ha":665,"x_min":101,"x_max":657,"o":"m 101 672 l 101 0 l 222 0 l 222 296 l 246 296 q 381 258 329 296 q 467 138 432 221 q 529 0 508 35 l 657 0 q 586 164 642 26 q 491 309 544 258 q 360 369 438 360 l 651 672 l 503 672 l 251 381 l 222 381 l 222 672 l 101 672 m 389 963 l 268 764 l 354 764 l 524 963 l 389 963 "},"ў":{"ha":654,"x_min":13,"x_max":644,"o":"m 147 946 q 194 821 151 868 q 322 774 236 774 q 453 818 404 774 q 507 946 501 863 l 419 946 q 325 840 407 840 q 262 869 285 840 q 236 946 239 899 l 147 946 m 13 672 l 260 53 q 269 21 269 32 q 260 -8 269 14 q 157 -144 219 -96 q 50 -204 108 -186 l 81 -306 q 231 -228 154 -292 q 342 -79 292 -174 q 461 193 393 15 l 644 672 l 515 672 l 382 278 q 356 195 372 249 q 339 138 340 142 l 336 138 q 292 275 317 210 l 146 672 l 13 672 "},"џ":{"ha":747,"x_min":97,"x_max":650,"o":"m 97 672 l 97 0 l 317 0 l 326 -218 l 424 -218 l 432 0 l 650 0 l 650 672 l 528 672 l 528 96 l 219 96 l 219 672 l 97 672 "},"Ґ":{"ha":621,"x_min":106,"x_max":622,"o":"m 106 936 l 106 0 l 226 0 l 226 835 l 607 835 l 622 1107 l 532 1107 l 510 936 l 106 936 "},"ґ":{"ha":544,"x_min":99,"x_max":521,"o":"m 99 672 l 99 0 l 219 0 l 219 575 l 513 575 l 521 824 l 433 824 l 417 672 l 99 672 "},"ә":{"ha":456,"x_min":49,"x_max":642,"o":"m 108 556 q 296 590 194 590 q 460 533 397 590 q 525 357 524 475 l 53 357 q 49 300 49 339 q 62 199 49 249 q 104 99 75 149 q 191 17 133 49 q 326 -14 249 -14 q 556 88 469 -14 q 642 346 642 190 q 553 593 642 500 q 313 686 465 686 q 86 642 188 686 l 108 556 m 524 269 q 469 133 515 193 q 336 74 422 74 q 205 135 244 74 q 167 269 165 196 l 524 269 "},"Ẁ":{"ha":1175,"x_min":21,"x_max":1164,"o":"m 385 0 l 518 488 q 590 793 569 667 l 593 793 q 654 488 610 672 l 772 0 l 899 0 l 1164 936 l 1040 936 l 917 464 q 842 140 860 238 l 839 140 q 774 461 824 253 l 660 936 l 533 936 l 408 464 q 332 139 347 233 l 329 139 q 260 463 303 281 l 149 936 l 21 936 l 258 0 l 385 0 m 379 1149 l 557 988 l 656 988 l 526 1149 l 379 1149 "},"ẁ":{"ha":1022,"x_min":25,"x_max":1001,"o":"m 25 672 l 228 0 l 339 0 l 447 319 q 508 542 489 446 l 511 542 q 571 321 531 447 l 674 0 l 785 0 l 1001 672 l 881 672 l 785 335 q 733 117 747 200 l 729 117 q 669 336 707 214 l 565 672 l 463 672 l 353 329 q 293 117 308 185 l 289 117 q 240 331 281 164 l 150 672 l 25 672 m 329 963 l 499 764 l 585 764 l 463 963 l 329 963 "},"Ẃ":{"ha":1175,"x_min":21,"x_max":1164,"o":"m 385 0 l 518 488 q 590 793 569 667 l 593 793 q 654 488 610 672 l 772 0 l 899 0 l 1164 936 l 1040 936 l 917 464 q 842 140 860 238 l 839 140 q 774 461 824 253 l 660 936 l 533 936 l 408 464 q 332 139 347 233 l 329 139 q 260 463 303 281 l 149 936 l 21 936 l 258 0 l 385 0 m 663 1149 l 533 986 l 632 986 l 810 1149 l 663 1149 "},"ẃ":{"ha":1022,"x_min":25,"x_max":1001,"o":"m 25 672 l 228 0 l 339 0 l 447 319 q 508 542 489 446 l 511 542 q 571 321 531 447 l 674 0 l 785 0 l 1001 672 l 881 672 l 785 335 q 733 117 747 200 l 729 117 q 669 336 707 214 l 565 672 l 463 672 l 353 329 q 293 117 308 185 l 289 117 q 240 331 281 164 l 150 672 l 25 672 m 571 963 l 449 764 l 535 764 l 704 963 l 571 963 "},"Ẅ":{"ha":1175,"x_min":21,"x_max":1164,"o":"m 385 0 l 518 488 q 590 793 569 667 l 593 793 q 654 488 610 672 l 772 0 l 899 0 l 1164 936 l 1040 936 l 917 464 q 842 140 860 238 l 839 140 q 774 461 824 253 l 660 936 l 533 936 l 408 464 q 332 139 347 233 l 329 139 q 260 463 303 281 l 149 936 l 21 936 l 258 0 l 385 0 m 463 1001 q 512 1022 493 1001 q 531 1072 531 1042 q 512 1122 531 1101 q 464 1142 493 1142 q 415 1122 435 1142 q 396 1072 396 1101 q 415 1022 396 1043 q 463 1001 433 1001 m 719 1001 q 770 1022 751 1001 q 789 1072 789 1042 q 770 1122 789 1101 q 722 1142 751 1142 q 673 1122 693 1142 q 653 1072 653 1101 q 672 1022 653 1043 q 719 1001 690 1001 "},"ẅ":{"ha":1022,"x_min":25,"x_max":1001,"o":"m 25 672 l 228 0 l 339 0 l 447 319 q 508 542 489 446 l 511 542 q 571 321 531 447 l 674 0 l 785 0 l 1001 672 l 881 672 l 785 335 q 733 117 747 200 l 729 117 q 669 336 707 214 l 565 672 l 463 672 l 353 329 q 293 117 308 185 l 289 117 q 240 331 281 164 l 150 672 l 25 672 m 381 792 q 431 813 411 792 q 450 863 450 833 q 431 913 450 893 q 383 933 411 933 q 333 913 353 933 q 313 863 313 892 q 332 813 313 833 q 381 792 351 792 m 639 792 q 689 813 669 792 q 708 863 708 833 q 689 913 708 893 q 640 933 669 933 q 591 913 611 933 q 571 863 571 892 q 590 813 571 833 q 639 792 610 792 "},"Ạ":{"ha":850,"x_min":35,"x_max":818,"o":"m 589 294 l 689 0 l 818 0 l 499 936 l 354 936 l 35 0 l 160 0 l 257 294 l 589 294 m 282 389 l 374 660 q 421 829 392 713 l 424 829 q 472 658 453 715 l 565 389 l 282 389 m 371 -132 q 350 -182 350 -153 q 370 -233 350 -211 q 419 -254 390 -254 q 469 -233 450 -254 q 489 -182 489 -212 q 469 -132 489 -153 q 421 -111 450 -111 q 381 -122 392 -111 q 371 -132 371 -132 "},"ạ":{"ha":669,"x_min":49,"x_max":583,"o":"m 574 413 q 516 608 574 531 q 318 686 458 686 q 96 628 189 686 l 124 546 q 300 596 197 596 q 381 581 349 596 q 428 539 414 565 q 448 490 443 513 q 453 442 453 467 l 453 428 q 153 365 258 429 q 49 178 49 300 q 103 42 49 99 q 254 -15 157 -15 q 376 13 322 -15 q 460 85 429 42 l 464 85 l 474 0 l 583 0 q 574 161 574 64 l 574 413 m 456 226 q 450 188 456 206 q 390 108 433 140 q 285 75 347 75 q 203 105 236 75 q 171 192 171 135 q 456 343 171 349 l 456 226 m 285 -132 q 264 -183 264 -153 q 284 -233 264 -212 q 333 -254 304 -254 q 383 -233 364 -254 q 403 -183 403 -212 q 383 -132 403 -153 q 335 -111 364 -111 q 295 -122 306 -111 q 285 -132 285 -132 "},"Ả":{"ha":850,"x_min":35,"x_max":818,"o":"m 589 294 l 689 0 l 818 0 l 499 936 l 354 936 l 35 0 l 160 0 l 257 294 l 589 294 m 282 389 l 374 660 q 421 829 389 704 l 424 829 q 472 658 453 715 l 565 389 l 282 389 m 458 985 q 499 1033 472 1008 q 542 1081 526 1058 q 558 1133 558 1103 q 525 1206 558 1176 q 443 1235 492 1235 q 306 1142 353 1235 l 351 1114 q 421 1163 386 1163 q 454 1151 442 1163 q 467 1118 467 1139 q 435 1063 467 1094 q 394 1003 404 1031 l 458 985 "},"ả":{"ha":669,"x_min":49,"x_max":583,"o":"m 574 413 q 516 608 574 531 q 318 686 458 686 q 96 628 189 686 l 124 546 q 300 596 197 596 q 381 581 349 596 q 428 539 414 565 q 448 490 443 513 q 453 442 453 467 l 453 428 q 153 365 258 429 q 49 178 49 300 q 103 42 49 99 q 254 -15 157 -15 q 376 13 322 -15 q 460 85 429 42 l 464 85 l 474 0 l 583 0 q 574 161 574 64 l 574 413 m 456 226 q 450 188 456 206 q 390 108 433 140 q 285 75 347 75 q 203 105 236 75 q 171 192 171 135 q 456 343 171 349 l 456 226 m 354 735 q 412 804 364 756 q 460 897 460 853 q 426 972 460 943 q 342 1001 393 1001 q 206 910 251 1001 l 253 881 q 321 929 285 929 q 355 917 342 929 q 368 883 368 904 q 333 819 368 857 q 289 751 297 781 l 354 735 "},"Ấ":{"ha":850,"x_min":35,"x_max":819,"o":"m 589 294 l 690 0 l 819 0 l 499 936 l 354 936 l 35 0 l 160 0 l 257 294 l 589 294 m 282 389 l 374 660 q 421 829 389 704 l 424 829 q 472 658 453 715 l 565 389 l 282 389 m 389 1143 l 261 985 l 354 985 l 432 1082 l 435 1082 l 511 985 l 608 985 l 476 1143 l 389 1143 m 658 1249 l 542 1103 l 614 1103 l 782 1249 l 658 1249 "},"ấ":{"ha":669,"x_min":49,"x_max":658,"o":"m 574 413 q 516 608 574 531 q 318 686 458 686 q 96 628 189 686 l 124 546 q 300 596 197 596 q 381 581 349 596 q 428 539 414 565 q 448 490 443 513 q 453 442 453 467 l 453 428 q 153 365 258 429 q 49 178 49 300 q 103 42 49 99 q 254 -15 157 -15 q 376 13 322 -15 q 460 85 429 42 l 464 85 l 474 0 l 583 0 q 574 161 574 64 l 574 413 m 456 226 q 450 188 456 206 q 390 108 433 140 q 285 75 347 75 q 203 105 236 75 q 171 192 171 135 q 456 343 171 349 l 456 226 m 279 963 l 163 764 l 251 764 l 322 894 l 325 894 l 396 764 l 489 764 l 369 963 l 279 963 m 546 1075 l 450 893 l 521 893 l 658 1075 l 546 1075 "},"Ầ":{"ha":850,"x_min":35,"x_max":818,"o":"m 589 294 l 689 0 l 818 0 l 499 936 l 353 936 l 35 0 l 160 0 l 257 294 l 589 294 m 282 389 l 374 660 q 419 829 399 738 l 424 829 q 472 658 453 715 l 565 389 l 282 389 m 468 1224 l 619 1078 l 694 1078 l 593 1224 l 468 1224 m 381 1143 l 253 985 l 346 985 l 424 1082 l 426 1082 l 503 985 l 600 985 l 468 1143 l 381 1143 "},"ầ":{"ha":669,"x_min":49,"x_max":585,"o":"m 574 413 q 516 608 574 531 q 318 686 458 686 q 96 628 189 686 l 124 546 q 300 596 197 596 q 381 581 349 596 q 428 539 414 565 q 448 490 443 513 q 453 442 453 467 l 453 428 q 153 365 258 429 q 49 178 49 300 q 103 42 49 99 q 254 -15 157 -15 q 376 13 322 -15 q 460 85 429 42 l 464 85 l 475 0 l 585 0 q 574 161 574 61 l 574 413 m 456 226 q 450 188 456 204 q 390 108 433 140 q 285 75 347 75 q 203 105 236 75 q 171 192 171 135 q 456 343 171 349 l 456 226 m 378 1075 l 507 893 l 576 893 l 489 1075 l 378 1075 m 278 963 l 161 764 l 250 764 l 321 894 l 324 894 l 394 764 l 488 764 l 368 963 l 278 963 "},"Ẩ":{"ha":850,"x_min":36,"x_max":818,"o":"m 589 294 l 689 0 l 818 0 l 499 936 l 354 936 l 36 0 l 161 0 l 257 294 l 589 294 m 282 389 l 374 660 q 421 829 392 713 l 424 829 q 472 658 453 715 l 564 389 l 282 389 m 385 1144 l 256 986 l 350 986 l 426 1082 l 429 1082 l 507 986 l 603 986 l 472 1144 l 385 1144 m 638 1047 q 691 1110 649 1068 q 733 1192 733 1153 q 702 1260 733 1232 q 624 1289 671 1289 q 492 1200 535 1289 l 536 1174 q 604 1224 568 1224 q 638 1211 624 1224 q 651 1179 651 1199 q 620 1123 651 1156 q 579 1064 589 1090 l 638 1047 "},"ẩ":{"ha":669,"x_min":49,"x_max":619,"o":"m 574 413 q 516 608 574 531 q 318 686 458 686 q 96 628 189 686 l 124 546 q 300 596 197 596 q 381 581 349 596 q 428 539 414 565 q 448 490 443 513 q 453 442 453 467 l 453 428 q 153 365 258 429 q 49 178 49 300 q 103 42 49 99 q 254 -15 157 -15 q 376 13 322 -15 q 460 85 429 42 l 464 85 l 474 0 l 585 0 q 574 161 574 61 l 574 413 m 456 226 q 450 188 456 204 q 390 108 433 140 q 285 75 347 75 q 203 105 236 75 q 171 192 171 135 q 456 343 171 349 l 456 226 m 275 963 l 158 764 l 247 764 l 318 894 l 321 894 l 392 764 l 485 764 l 365 963 l 275 963 m 525 881 q 564 928 539 904 q 604 972 589 951 q 619 1024 619 993 q 588 1094 619 1065 q 510 1122 556 1122 q 378 1033 422 1122 l 422 1006 q 489 1056 454 1056 q 522 1043 508 1056 q 535 1011 535 1031 q 504 956 535 988 q 464 897 474 924 l 525 881 "},"Ẫ":{"ha":850,"x_min":35,"x_max":818,"o":"m 589 294 l 689 0 l 818 0 l 499 936 l 354 936 l 35 0 l 160 0 l 257 294 l 589 294 m 282 389 l 374 660 q 421 829 389 704 l 424 829 q 472 658 453 715 l 565 389 l 282 389 m 379 1144 l 238 986 l 336 986 l 425 1082 l 428 1082 l 515 986 l 618 986 l 472 1144 l 379 1144 m 328 1163 q 363 1218 331 1218 q 424 1194 381 1218 q 507 1165 476 1165 q 601 1299 606 1165 l 538 1299 q 499 1242 533 1242 q 440 1264 485 1242 q 354 1294 382 1294 q 285 1258 311 1294 q 260 1163 258 1222 l 328 1163 "},"ẫ":{"ha":669,"x_min":49,"x_max":583,"o":"m 574 413 q 516 608 574 531 q 318 686 458 686 q 96 628 189 686 l 124 546 q 300 596 197 596 q 381 581 349 596 q 428 539 414 565 q 448 490 443 513 q 453 442 453 467 l 453 428 q 153 365 258 429 q 49 178 49 300 q 103 42 49 99 q 254 -15 157 -15 q 376 13 322 -15 q 460 85 429 42 l 464 85 l 474 0 l 583 0 q 574 161 574 64 l 574 413 m 456 226 q 450 188 456 206 q 390 108 433 140 q 285 75 347 75 q 203 105 236 75 q 171 192 171 135 q 456 343 171 349 l 456 226 m 289 926 l 165 764 l 258 764 l 332 865 l 335 865 l 410 764 l 506 764 l 379 926 l 289 926 m 235 943 q 271 997 239 997 q 331 975 286 997 q 415 946 386 946 q 510 1079 513 946 l 444 1079 q 407 1022 440 1022 q 349 1044 393 1022 q 263 1075 288 1075 q 192 1039 218 1075 q 168 943 167 1003 l 235 943 "},"Ậ":{"ha":850,"x_min":35,"x_max":818,"o":"m 589 294 l 689 0 l 818 0 l 499 936 l 354 936 l 35 0 l 160 0 l 257 294 l 589 294 m 282 389 l 374 660 q 421 829 389 704 l 424 829 q 472 658 453 715 l 565 389 l 282 389 m 381 1144 l 239 986 l 338 986 l 426 1082 l 429 1082 l 517 986 l 619 986 l 474 1144 l 381 1144 m 468 -231 q 488 -181 488 -210 q 468 -132 488 -153 q 421 -111 449 -111 q 372 -132 392 -111 q 351 -181 351 -153 q 371 -231 351 -210 q 419 -251 390 -251 q 458 -241 449 -251 q 468 -231 468 -231 "},"ậ":{"ha":669,"x_min":49,"x_max":583,"o":"m 574 413 q 516 608 574 531 q 318 686 458 686 q 96 628 189 686 l 124 546 q 300 596 197 596 q 381 581 349 596 q 428 539 414 565 q 448 490 443 513 q 453 442 453 467 l 453 428 q 153 365 258 429 q 49 178 49 300 q 103 42 49 99 q 254 -15 157 -15 q 376 13 322 -15 q 460 85 429 42 l 464 85 l 474 0 l 583 0 q 574 161 574 64 l 574 413 m 456 226 q 450 188 456 206 q 390 108 433 140 q 285 75 347 75 q 203 105 236 75 q 171 192 171 135 q 456 343 171 349 l 456 226 m 290 963 l 161 764 l 253 764 l 332 894 l 335 894 l 417 764 l 510 764 l 376 963 l 290 963 m 285 -132 q 264 -183 264 -153 q 284 -233 264 -212 q 333 -254 304 -254 q 383 -233 364 -254 q 403 -183 403 -212 q 383 -132 403 -153 q 335 -111 364 -111 q 295 -122 306 -111 q 285 -132 285 -132 "},"Ắ":{"ha":850,"x_min":36,"x_max":819,"o":"m 589 294 l 689 0 l 819 0 l 499 936 l 354 936 l 36 0 l 161 0 l 258 294 l 589 294 m 282 389 l 374 660 q 421 829 390 708 l 424 829 q 472 658 453 715 l 565 389 l 282 389 m 257 1114 q 309 1011 265 1051 q 429 971 353 971 q 551 1013 506 971 q 604 1114 596 1054 l 539 1114 q 431 1046 518 1046 q 324 1114 343 1046 l 257 1114 m 483 1244 l 379 1099 l 456 1099 l 610 1244 l 483 1244 "},"ắ":{"ha":669,"x_min":49,"x_max":583,"o":"m 574 413 q 516 608 574 531 q 318 686 458 686 q 96 628 189 686 l 124 546 q 300 596 197 596 q 381 581 349 596 q 428 539 414 565 q 448 490 443 513 q 453 442 453 467 l 453 428 q 153 365 258 429 q 49 178 49 300 q 103 42 49 99 q 254 -15 157 -15 q 376 13 322 -15 q 460 85 429 42 l 464 85 l 474 0 l 583 0 q 574 161 574 64 l 574 413 m 456 226 q 450 188 456 206 q 390 108 433 140 q 285 75 347 75 q 203 105 236 75 q 171 192 171 135 q 456 343 171 349 l 456 226 m 389 1075 l 278 892 l 351 892 l 506 1075 l 389 1075 m 150 913 q 197 791 151 842 q 329 740 243 740 q 458 788 408 740 q 510 913 508 835 l 440 913 q 408 845 438 874 q 329 817 379 817 q 256 844 285 817 q 219 913 226 871 l 150 913 "},"Ằ":{"ha":850,"x_min":35,"x_max":818,"o":"m 589 294 l 689 0 l 818 0 l 499 936 l 353 936 l 35 0 l 160 0 l 257 294 l 589 294 m 282 389 l 374 660 q 419 829 400 746 l 424 829 q 471 658 453 714 l 564 389 l 282 389 m 257 1244 l 413 1099 l 489 1099 l 385 1244 l 257 1244 m 258 1114 q 310 1011 267 1051 q 429 971 353 971 q 552 1013 507 971 q 604 1114 597 1054 l 540 1114 q 431 1046 519 1046 q 325 1114 342 1046 l 258 1114 "},"ằ":{"ha":669,"x_min":49,"x_max":583,"o":"m 574 413 q 516 608 574 531 q 318 686 458 686 q 97 628 190 686 l 125 546 q 300 596 199 596 q 381 581 349 596 q 428 539 414 565 q 448 490 443 513 q 453 442 453 467 l 453 428 q 153 365 258 429 q 49 178 49 300 q 103 42 49 99 q 254 -15 157 -15 q 376 13 322 -15 q 460 85 429 42 l 463 85 l 474 0 l 583 0 q 574 161 574 64 l 574 413 m 456 226 q 450 188 456 204 q 390 108 433 140 q 285 75 347 75 q 203 105 236 75 q 171 192 171 135 q 456 343 171 349 l 456 226 m 156 1074 l 310 890 l 385 890 l 274 1074 l 156 1074 m 150 913 q 197 790 151 840 q 329 739 243 739 q 458 787 408 739 q 508 913 507 835 l 440 913 q 408 845 438 874 q 329 817 379 817 q 256 844 285 817 q 219 913 226 871 l 150 913 "},"Ẳ":{"ha":850,"x_min":35,"x_max":818,"o":"m 589 294 l 689 0 l 818 0 l 499 936 l 354 936 l 35 0 l 160 0 l 257 294 l 589 294 m 282 389 l 374 660 q 421 829 389 704 l 424 829 q 472 658 453 715 l 564 389 l 282 389 m 450 1081 q 490 1128 464 1104 q 531 1173 515 1151 q 546 1225 546 1194 q 514 1294 546 1265 q 436 1322 482 1322 q 304 1233 347 1322 l 349 1206 q 415 1256 381 1256 q 448 1243 435 1256 q 461 1211 461 1231 q 431 1156 461 1189 q 390 1097 400 1124 l 450 1081 m 258 1114 q 310 1011 267 1051 q 431 971 354 971 q 552 1013 507 971 q 604 1114 597 1054 l 539 1114 q 432 1046 521 1046 q 325 1114 344 1046 l 258 1114 "},"ẳ":{"ha":669,"x_min":49,"x_max":585,"o":"m 574 413 q 516 608 574 531 q 318 686 458 686 q 97 628 190 686 l 125 546 q 300 596 197 596 q 381 581 349 596 q 428 539 414 565 q 448 490 443 513 q 453 442 453 467 l 453 428 q 153 365 258 429 q 49 178 49 300 q 103 42 49 99 q 254 -15 157 -15 q 376 13 322 -15 q 460 85 429 42 l 464 85 l 474 0 l 585 0 q 574 161 574 61 l 574 413 m 456 226 q 450 188 456 204 q 390 108 433 140 q 285 75 347 75 q 203 105 236 75 q 171 192 171 135 q 456 343 171 349 l 456 226 m 344 881 q 385 928 358 904 q 426 972 411 951 q 442 1024 442 993 q 409 1093 442 1064 q 329 1122 376 1122 q 197 1033 242 1122 l 242 1006 q 308 1056 274 1056 q 341 1043 328 1056 q 354 1011 354 1031 q 324 955 354 988 q 283 896 293 922 l 344 881 m 147 913 q 194 790 149 840 q 326 740 240 740 q 456 788 406 740 q 507 913 506 835 l 438 913 q 406 845 435 874 q 326 817 376 817 q 253 844 282 817 q 217 913 224 871 l 147 913 "},"Ẵ":{"ha":850,"x_min":35,"x_max":818,"o":"m 589 294 l 689 0 l 818 0 l 499 936 l 353 936 l 35 0 l 160 0 l 257 294 l 589 294 m 282 389 l 374 660 q 421 829 396 731 l 424 829 q 472 658 453 715 l 564 389 l 282 389 m 324 1161 q 357 1204 329 1204 q 418 1181 375 1204 q 503 1151 471 1151 q 597 1285 600 1151 l 532 1285 q 493 1228 528 1228 q 435 1251 476 1228 q 349 1281 379 1281 q 281 1247 306 1281 q 254 1161 257 1214 l 324 1161 m 250 1114 q 301 1011 258 1051 q 421 971 344 971 q 544 1013 499 971 q 597 1114 589 1054 l 532 1114 q 422 1046 511 1046 q 315 1114 335 1046 l 250 1114 "},"ẵ":{"ha":669,"x_min":49,"x_max":583,"o":"m 574 413 q 516 608 574 531 q 318 686 458 686 q 96 628 189 686 l 124 546 q 300 596 197 596 q 381 581 349 596 q 428 539 414 565 q 448 490 443 513 q 453 442 453 467 l 453 428 q 153 365 258 429 q 49 178 49 300 q 103 42 49 99 q 254 -15 157 -15 q 376 13 322 -15 q 460 85 429 42 l 464 85 l 474 0 l 583 0 q 574 161 574 64 l 574 413 m 456 226 q 450 188 456 206 q 390 108 433 140 q 285 75 347 75 q 203 105 236 75 q 171 192 171 135 q 456 343 171 349 l 456 226 m 233 968 q 268 1011 239 1011 q 328 988 285 1011 q 413 958 383 958 q 507 1092 510 958 l 442 1092 q 404 1036 439 1036 q 344 1058 383 1036 q 258 1088 289 1088 q 192 1054 217 1088 q 165 968 168 1021 l 233 968 m 158 913 q 203 790 160 840 q 333 740 247 740 q 460 788 413 740 q 511 913 508 835 l 442 913 q 410 844 438 874 q 333 814 382 814 q 262 842 290 814 q 226 913 233 869 l 158 913 "},"Ặ":{"ha":850,"x_min":35,"x_max":818,"o":"m 589 294 l 689 0 l 818 0 l 499 936 l 354 936 l 35 0 l 160 0 l 257 294 l 589 294 m 282 389 l 374 660 q 421 829 389 704 l 424 829 q 472 658 453 715 l 565 389 l 282 389 m 253 1156 q 297 1049 256 1089 q 422 1008 339 1008 q 550 1049 507 1008 q 596 1156 593 1090 l 525 1156 q 425 1088 513 1088 q 325 1156 340 1088 l 253 1156 m 471 -231 q 490 -181 490 -210 q 471 -132 490 -153 q 424 -111 451 -111 q 374 -132 394 -111 q 354 -181 354 -153 q 374 -231 354 -210 q 422 -251 393 -251 q 461 -241 451 -251 q 471 -231 471 -231 "}}}
